<svg xmlns="http://www.w3.org/2000/svg" viewBox="0 0 1845 420">
  <path d="M73.63 211.94L73.63 117.56Q73.63 108.98 72.86 104.91Q72.09 100.84 71.10 99.52Q70.11 98.20 69.01 98.20L69.01 98.20L56.25 98.20Q54.49 98.20 54.49 94.02L54.49 94.02Q54.49 92.92 54.82 91.93Q55.15 90.94 56.25 90.94L56.25 90.94Q63.29 90.94 70.33 91.05Q77.37 91.16 83.97 91.16L83.97 91.16Q93.43 91.16 98.82 91.05Q104.21 90.94 107.73 90.72Q111.25 90.50 114.77 90.50L114.77 90.50Q115.87 90.50 116.20 91.60Q116.53 92.70 116.53 94.02L116.53 94.02Q116.53 95.56 116.09 96.77Q115.65 97.98 114.77 97.98L114.77 97.98L105.31 97.98Q99.81 97.98 98.05 100.18Q96.29 102.38 96.29 108.10L96.29 108.10L96.29 209.96Q96.29 225.58 95.19 238.78Q94.09 251.98 90.35 261.22L90.35 261.22Q85.95 271.78 78.14 280.36Q70.33 288.94 59.99 294Q49.65 299.06 37.33 299.06L37.33 299.06Q35.79 299.06 33.04 298.51Q30.29 297.96 27.98 296.20Q25.67 294.44 25.67 291.14L25.67 291.14Q25.67 282.78 35.35 279.04L35.35 279.04Q40.19 281.90 46.35 283.33Q52.51 284.76 56.47 284.76L56.47 284.76Q60.65 284.76 63.07 282.78Q65.49 280.80 67.03 277.94L67.03 277.94Q69.23 273.32 70.55 264.52Q71.87 255.72 72.53 245.60Q73.19 235.48 73.41 226.35Q73.63 217.22 73.63 211.94L73.63 211.94ZM222.35 88.52L222.35 88.52Q238.85 88.52 253.37 94.46Q267.89 100.40 278.89 110.96Q289.89 121.52 296.16 135.38Q302.43 149.24 302.43 165.08L302.43 165.08Q302.43 181.14 296.16 195Q289.89 208.86 278.89 219.42Q267.89 229.98 253.37 235.92Q238.85 241.86 222.35 241.86L222.35 241.86Q205.85 241.86 191.33 235.92Q176.81 229.98 165.81 219.42Q154.81 208.86 148.54 195Q142.27 181.14 142.27 165.08L142.27 165.08Q142.27 149.24 148.54 135.38Q154.81 121.52 165.81 110.96Q176.81 100.40 191.33 94.46Q205.85 88.52 222.35 88.52ZM222.35 98.64L222.35 98.64Q206.73 98.64 194.96 107.55Q183.19 116.46 176.59 131.53Q169.99 146.60 169.99 165.08L169.99 165.08Q169.99 183.56 176.59 198.74Q183.19 213.92 194.96 222.83Q206.73 231.74 222.35 231.74L222.35 231.74Q237.97 231.74 249.74 222.83Q261.51 213.92 268.11 198.74Q274.71 183.56 274.71 165.08L274.71 165.08Q274.71 146.60 268.11 131.53Q261.51 116.46 249.74 107.55Q237.97 98.64 222.35 98.64ZM431.79 201.38L431.79 201.38Q431.79 213.48 424.42 222.61Q417.05 231.74 405.06 236.80Q393.07 241.86 379.21 241.86L379.21 241.86Q369.75 241.86 361.50 239.66Q353.25 237.46 348.19 235.26L348.19 235.26L349.95 239.66Q350.61 241.20 348.85 242.30Q347.09 243.40 345.11 243.40L345.11 243.40Q343.35 243.40 342.69 242.30L342.69 242.30Q340.93 237.46 339.06 230.31Q337.19 223.16 335.87 215.35Q334.55 207.54 334.11 200.94L334.11 200.94Q334.11 199.84 335.21 199.29Q336.31 198.74 337.85 198.74L337.85 198.74Q338.95 198.74 340.05 199.07Q341.15 199.40 341.37 200.28L341.37 200.28Q342.69 204.46 345.66 210.07Q348.63 215.68 353.47 221.07Q358.31 226.46 365.24 229.98Q372.17 233.50 380.97 233.50L380.97 233.50Q394.61 233.50 401.65 226.13Q408.69 218.76 408.69 209.96L408.69 209.96Q408.69 199.40 403.85 192.14Q399.01 184.88 391.20 179.60Q383.39 174.32 374.81 169.48Q366.23 164.64 358.42 159.14Q350.61 153.64 345.77 145.83Q340.93 138.02 340.93 126.80L340.93 126.80Q340.93 116.24 347.42 107.55Q353.91 98.86 365.35 93.69Q376.79 88.52 391.53 88.52L391.53 88.52Q400.55 88.52 406.60 90.17Q412.65 91.82 412.65 91.82L412.65 91.82Q412.43 91.16 412.10 89.18Q411.77 87.20 411.77 86.76L411.77 86.76Q411.55 85.66 412.65 85.11Q413.75 84.56 415.07 84.56L415.07 84.56Q417.71 84.56 418.37 86.32L418.37 86.32Q421.01 95.56 422.55 105.02Q424.09 114.48 424.31 121.30L424.31 121.30Q424.09 121.96 422.66 122.29Q421.23 122.62 419.69 122.62L419.69 122.62Q417.71 122.62 417.05 121.96L417.05 121.96Q415.51 116.46 412.65 110.74Q409.79 105.02 404.07 100.95Q398.35 96.88 388.23 96.88L388.23 96.88Q378.11 96.88 372.61 100.51Q367.11 104.14 365.02 109.53Q362.93 114.92 362.93 120.20L362.93 120.20Q362.93 129 367.88 135.16Q372.83 141.32 380.75 146.16Q388.67 151 397.36 155.84Q406.05 160.68 413.97 166.62Q421.89 172.56 426.84 180.92Q431.79 189.28 431.79 201.38ZM507.47 109.64L507.47 161.56Q517.15 161.34 526.17 160.79Q535.19 160.24 541.35 159.58Q547.51 158.92 548.17 158.48L548.17 158.48L550.37 145.50Q550.59 143.96 553.89 143.96L553.89 143.96Q555.21 143.96 556.31 144.40Q557.41 144.84 557.19 145.94L557.19 145.94Q556.53 151 556.31 155.18Q556.09 159.36 556.09 164.42L556.09 164.42Q556.09 169.26 556.31 174.43Q556.53 179.60 557.19 184.66L557.19 184.66Q557.41 185.54 556.09 185.98Q554.77 186.42 553.23 186.42L553.23 186.42Q550.37 186.42 550.37 185.10L550.37 185.10L547.95 171.90Q547.29 171.46 541.35 170.80Q535.41 170.14 526.39 169.48Q517.37 168.82 507.47 168.60L507.47 168.60L507.47 210.84Q507.47 219.20 508.24 223.38Q509.01 227.56 510.11 228.88Q511.21 230.20 512.09 230.20L512.09 230.20L523.31 230.20Q537.61 229.98 550.70 227.56Q563.79 225.14 569.95 220.96L569.95 220.96L571.49 208.86Q571.71 207.98 572.92 207.54Q574.13 207.10 575.67 207.10L575.67 207.10Q578.97 207.10 578.75 208.86L578.75 208.86Q577.65 217 577.21 226.24Q576.77 235.48 576.77 243.84L576.77 243.84Q576.77 245.38 573.47 245.38L573.47 245.38Q572.15 245.38 571.05 245.05Q569.95 244.72 569.95 243.84L569.95 243.84L569.95 239L515.61 239Q501.53 239 492.84 239.11Q484.15 239.22 479.20 239.22Q474.25 239.22 471.50 239.33Q468.75 239.44 466.33 239.44L466.33 239.44Q465.45 239.44 465.01 238.34Q464.57 237.24 464.57 235.92L464.57 235.92Q464.57 234.38 465.01 233.17Q465.45 231.96 466.33 231.96L466.33 231.96L475.79 231.96Q481.51 231.96 483.16 229.76Q484.81 227.56 484.81 221.84L484.81 221.84L484.81 117.56Q484.81 108.98 484.04 104.91Q483.27 100.84 482.28 99.52Q481.29 98.20 480.19 98.20L480.19 98.20L467.43 98.20Q465.67 98.20 465.67 94.02L465.67 94.02Q465.67 92.92 466.00 91.93Q466.33 90.94 467.43 90.94L467.43 90.94Q473.15 90.94 479.97 91.16Q486.79 91.38 495.15 91.38L495.15 91.38L558.95 91.38L558.95 86.76Q558.95 85.66 560.05 85.22Q561.15 84.78 562.25 84.78L562.25 84.78Q563.35 84.78 564.34 85.22Q565.33 85.66 565.33 86.76L565.33 86.76Q565.33 94.90 565.77 104.03Q566.21 113.16 567.53 120.20L567.53 120.20Q567.97 121.08 566.87 121.52Q565.77 121.96 564.45 121.96L564.45 121.96Q563.13 121.96 561.92 121.52Q560.71 121.08 560.49 120.20L560.49 120.20Q559.39 115.58 557.63 110.74Q555.87 105.90 552.13 104.14L552.13 104.14Q546.41 101.94 537.72 100.84Q529.03 99.74 514.73 99.52L514.73 99.52Q510.33 99.74 508.90 102.05Q507.47 104.36 507.47 109.64L507.47 109.64ZM653.55 166.18L653.55 212.38Q653.55 220.74 654.32 224.92Q655.09 229.10 656.19 230.42Q657.29 231.74 658.17 231.74L658.17 231.74L670.93 231.74Q672.03 231.74 672.58 233.06Q673.13 234.38 673.13 235.92L673.13 235.92Q673.13 239 670.93 239L670.93 239L661.47 239Q659.27 239 656.85 238.89Q654.43 238.78 652.01 238.78L652.01 238.78L643.21 238.78Q633.97 238.78 628.47 238.89Q622.97 239 619.45 239.22Q615.93 239.44 612.41 239.44L612.41 239.44Q611.53 239.44 611.09 238.34Q610.65 237.24 610.65 235.92L610.65 235.92Q610.65 234.38 611.09 233.17Q611.53 231.96 612.41 231.96L612.41 231.96L621.87 231.96Q627.59 231.96 629.24 229.76Q630.89 227.56 630.89 221.84L630.89 221.84L630.89 117.56Q630.89 108.98 630.12 104.91Q629.35 100.84 628.36 99.52Q627.37 98.20 626.27 98.20L626.27 98.20L613.51 98.20Q611.75 98.20 611.75 94.02L611.75 94.02Q611.75 92.92 612.08 91.93Q612.41 90.94 613.51 90.94L613.51 90.94Q622.53 90.94 629.46 91.16Q636.39 91.38 641.23 91.38L641.23 91.38L666.53 91.38Q687.21 91.38 699.97 96.88Q712.73 102.38 718.78 111.29Q724.83 120.20 724.83 130.10L724.83 130.10Q724.83 140.22 719.00 149.68Q713.17 159.14 702.50 165.30Q691.83 171.46 677.09 171.46L677.09 171.46Q671.81 171.46 665.87 170.25Q659.93 169.04 653.55 166.18L653.55 166.18ZM701.07 131.86L701.07 131.86Q701.07 123.94 696.89 116.68Q692.71 109.42 683.91 104.80Q675.11 100.18 661.47 100.18L661.47 100.18Q657.29 100.18 655.42 102.27Q653.55 104.36 653.55 110.30L653.55 110.30L653.55 159.14Q659.49 160.46 665.21 160.46L665.21 160.46Q677.09 160.46 685.01 156.39Q692.93 152.32 697.00 145.83Q701.07 139.34 701.07 131.86ZM933.39 129L933.39 129Q933.39 136.92 929.21 143.63Q925.03 150.34 917.88 155.07Q910.73 159.80 901.71 161.56L901.71 161.56L901.71 162.44Q921.95 165.96 933.17 176.74Q944.39 187.52 944.39 200.50L944.39 200.50Q944.39 210.62 937.02 219.42Q929.65 228.22 915.68 233.61Q901.71 239 881.69 239L881.69 239L860.35 239Q846.27 239 837.25 239.22Q828.23 239.44 822.95 239.44L822.95 239.44Q822.07 239.44 821.63 238.34Q821.19 237.24 821.19 235.92L821.19 235.92Q821.19 234.38 821.63 233.17Q822.07 231.96 822.95 231.96L822.95 231.96L832.41 231.96Q838.13 231.96 839.78 229.76Q841.43 227.56 841.43 221.84L841.43 221.84L841.43 117.78Q841.43 109.20 840.66 105.13Q839.89 101.06 838.90 99.74Q837.91 98.42 836.81 98.42L836.81 98.42L822.95 98.42Q821.19 98.42 821.19 94.24L821.19 94.24Q821.19 93.14 821.52 92.04Q821.85 90.94 822.95 90.94L822.95 90.94Q829.99 90.94 837.58 91.16Q845.17 91.38 851.77 91.38L851.77 91.38L877.07 91.38Q897.31 91.38 909.63 96.77Q921.95 102.16 927.67 110.74Q933.39 119.32 933.39 129ZM864.09 110.30L864.09 157.38Q867.17 157.82 870.03 158.04Q872.89 158.26 875.75 158.26L875.75 158.26Q887.19 158.26 894.67 154.41Q902.15 150.56 905.89 144.18Q909.63 137.80 909.63 130.76L909.63 130.76Q909.63 123.06 905.78 116.13Q901.93 109.20 893.35 104.69Q884.77 100.18 870.47 100.18L870.47 100.18Q867.17 100.18 865.63 102.49Q864.09 104.80 864.09 110.30L864.09 110.30ZM864.09 166.18L864.09 210.84Q864.09 222.94 865.52 226.57Q866.95 230.20 868.93 230.20L868.93 230.20L880.15 230.20Q899.07 230.20 908.42 221.73Q917.77 213.26 917.77 200.50L917.77 200.50Q917.77 193.68 915.57 187.74Q913.37 181.80 907.65 177.18Q901.93 172.56 891.37 169.70Q880.81 166.84 864.09 166.18L864.09 166.18ZM1021.17 109.64L1021.17 161.56Q1030.85 161.34 1039.87 160.79Q1048.89 160.24 1055.05 159.58Q1061.21 158.92 1061.87 158.48L1061.87 158.48L1064.07 145.50Q1064.29 143.96 1067.59 143.96L1067.59 143.96Q1068.91 143.96 1070.01 144.40Q1071.11 144.84 1070.89 145.94L1070.89 145.94Q1070.23 151 1070.01 155.18Q1069.79 159.36 1069.79 164.42L1069.79 164.42Q1069.79 169.26 1070.01 174.43Q1070.23 179.60 1070.89 184.66L1070.89 184.66Q1071.11 185.54 1069.79 185.98Q1068.47 186.42 1066.93 186.42L1066.93 186.42Q1064.07 186.42 1064.07 185.10L1064.07 185.10L1061.65 171.90Q1060.99 171.46 1055.05 170.80Q1049.11 170.14 1040.09 169.48Q1031.07 168.82 1021.17 168.60L1021.17 168.60L1021.17 210.84Q1021.17 219.20 1021.94 223.38Q1022.71 227.56 1023.81 228.88Q1024.91 230.20 1025.79 230.20L1025.79 230.20L1037.01 230.20Q1051.31 229.98 1064.40 227.56Q1077.49 225.14 1083.65 220.96L1083.65 220.96L1085.19 208.86Q1085.41 207.98 1086.62 207.54Q1087.83 207.10 1089.37 207.10L1089.37 207.10Q1092.67 207.10 1092.45 208.86L1092.45 208.86Q1091.35 217 1090.91 226.24Q1090.47 235.48 1090.47 243.84L1090.47 243.84Q1090.47 245.38 1087.17 245.38L1087.17 245.38Q1085.85 245.38 1084.75 245.05Q1083.65 244.72 1083.65 243.84L1083.65 243.84L1083.65 239L1029.31 239Q1015.23 239 1006.54 239.11Q997.85 239.22 992.90 239.22Q987.95 239.22 985.20 239.33Q982.45 239.44 980.03 239.44L980.03 239.44Q979.15 239.44 978.71 238.34Q978.27 237.24 978.27 235.92L978.27 235.92Q978.27 234.38 978.71 233.17Q979.15 231.96 980.03 231.96L980.03 231.96L989.49 231.96Q995.21 231.96 996.86 229.76Q998.51 227.56 998.51 221.84L998.51 221.84L998.51 117.56Q998.51 108.98 997.74 104.91Q996.97 100.84 995.98 99.52Q994.99 98.20 993.89 98.20L993.89 98.20L981.13 98.20Q979.37 98.20 979.37 94.02L979.37 94.02Q979.37 92.92 979.70 91.93Q980.03 90.94 981.13 90.94L981.13 90.94Q986.85 90.94 993.67 91.16Q1000.49 91.38 1008.85 91.38L1008.85 91.38L1072.65 91.38L1072.65 86.76Q1072.65 85.66 1073.75 85.22Q1074.85 84.78 1075.95 84.78L1075.95 84.78Q1077.05 84.78 1078.04 85.22Q1079.03 85.66 1079.03 86.76L1079.03 86.76Q1079.03 94.90 1079.47 104.03Q1079.91 113.16 1081.23 120.20L1081.23 120.20Q1081.67 121.08 1080.57 121.52Q1079.47 121.96 1078.15 121.96L1078.15 121.96Q1076.83 121.96 1075.62 121.52Q1074.41 121.08 1074.19 120.20L1074.19 120.20Q1073.09 115.58 1071.33 110.74Q1069.57 105.90 1065.83 104.14L1065.83 104.14Q1060.11 101.94 1051.42 100.84Q1042.73 99.74 1028.43 99.52L1028.43 99.52Q1024.03 99.74 1022.60 102.05Q1021.17 104.36 1021.17 109.64L1021.17 109.64ZM1200.25 166.62L1200.25 166.62Q1197.17 167.06 1194.75 167.28L1194.75 167.28Q1203.77 170.58 1209.93 177.84Q1216.09 185.10 1220.49 193.79Q1224.89 202.48 1228.85 210.62Q1232.81 218.76 1237.54 224.04Q1242.27 229.32 1249.31 229.32L1249.31 229.32Q1252.83 229.32 1255.14 227.56Q1257.45 225.80 1259.65 223.60L1259.65 223.60Q1260.97 222.50 1262.62 223.93Q1264.27 225.36 1263.39 226.46L1263.39 226.46Q1259.87 231.30 1253.82 236.58Q1247.77 241.86 1239.41 241.86L1239.41 241.86Q1231.05 241.86 1224.78 237.35Q1218.51 232.84 1213.45 225.58Q1208.39 218.32 1204.10 209.74Q1199.81 201.16 1195.52 192.91Q1191.23 184.66 1186.39 178.17Q1181.55 171.68 1175.17 168.60L1175.17 168.60Q1175.17 168.38 1174.95 168.38L1174.95 168.38Q1172.97 168.16 1170.99 167.83Q1169.01 167.50 1167.25 167.28L1167.25 167.28L1167.25 212.38Q1167.25 220.74 1168.02 224.92Q1168.79 229.10 1169.89 230.42Q1170.99 231.74 1171.87 231.74L1171.87 231.74L1184.63 231.74Q1186.39 231.74 1186.39 235.92L1186.39 235.92Q1186.39 236.80 1186.06 237.90Q1185.73 239 1184.63 239L1184.63 239Q1177.81 239 1170.66 238.89Q1163.51 238.78 1156.91 238.78L1156.91 238.78Q1147.67 238.78 1142.17 238.89Q1136.67 239 1133.15 239.22Q1129.63 239.44 1126.11 239.44L1126.11 239.44Q1125.23 239.44 1124.79 238.34Q1124.35 237.24 1124.35 235.92L1124.35 235.92Q1124.35 234.38 1124.79 233.17Q1125.23 231.96 1126.11 231.96L1126.11 231.96L1135.57 231.96Q1141.29 231.96 1142.94 229.76Q1144.59 227.56 1144.59 221.84L1144.59 221.84L1144.59 117.56Q1144.59 108.98 1143.82 104.91Q1143.05 100.84 1142.06 99.52Q1141.07 98.20 1139.97 98.20L1139.97 98.20L1127.21 98.20Q1125.45 98.20 1125.45 94.02L1125.45 94.02Q1125.45 92.92 1125.78 91.93Q1126.11 90.94 1127.21 90.94L1127.21 90.94Q1136.23 90.94 1143.16 91.16Q1150.09 91.38 1154.93 91.38L1154.93 91.38L1180.23 91.38Q1200.91 91.38 1213.67 96.77Q1226.43 102.16 1232.48 110.96Q1238.53 119.76 1238.53 129.66L1238.53 129.66Q1238.53 139.34 1233.36 146.82Q1228.19 154.30 1219.50 159.25Q1210.81 164.20 1200.25 166.62ZM1214.77 131.86L1214.77 131.86Q1214.77 124.16 1210.59 116.90Q1206.41 109.64 1197.83 104.91Q1189.25 100.18 1175.83 100.18L1175.83 100.18Q1170.99 100.18 1169.12 102.49Q1167.25 104.80 1167.25 109.20L1167.25 109.20L1167.25 159.14Q1173.19 160.46 1178.91 160.46L1178.91 160.46Q1190.79 160.46 1198.71 156.39Q1206.63 152.32 1210.70 145.83Q1214.77 139.34 1214.77 131.86ZM1415.63 241.64L1415.63 241.64Q1415.63 241.64 1410.79 235.92Q1405.95 230.20 1397.70 220.30Q1389.45 210.40 1378.89 197.86Q1368.33 185.32 1357 171.68Q1345.67 158.04 1334.67 144.84Q1323.67 131.64 1314.43 120.42L1314.43 120.42L1313.55 120.42Q1313.99 152.10 1314.21 176.08Q1314.43 200.06 1314.87 215.68L1314.87 215.68Q1315.09 221.40 1316.19 226.57Q1317.29 231.74 1319.49 231.74L1319.49 231.74L1331.59 231.74Q1332.69 231.74 1333.13 232.95Q1333.57 234.16 1333.57 235.70L1333.57 235.70Q1333.57 239 1331.59 239L1331.59 239Q1323.45 239 1318.17 238.89Q1312.89 238.78 1308.27 238.78L1308.27 238.78Q1300.79 238.78 1293.75 239.11Q1286.71 239.44 1282.09 239.44L1282.09 239.44Q1281.21 239.44 1280.88 238.23Q1280.55 237.02 1280.55 235.70L1280.55 235.70Q1280.55 234.38 1280.88 233.17Q1281.21 231.96 1282.09 231.96L1282.09 231.96L1289.35 231.96Q1294.19 231.96 1296.50 230.75Q1298.81 229.54 1299.03 226.02L1299.03 226.02Q1300.13 214.80 1300.90 199.84Q1301.67 184.88 1302.22 168.38Q1302.77 151.88 1303.10 136.15Q1303.43 120.42 1303.43 107.66L1303.43 107.66L1301.89 105.90Q1299.25 102.60 1296.94 100.95Q1294.63 99.30 1291.22 98.64Q1287.81 97.98 1281.43 97.98L1281.43 97.98Q1280.77 97.98 1280.44 96.99Q1280.11 96 1280.11 94.90L1280.11 94.90Q1280.11 93.58 1280.44 92.26Q1280.77 90.94 1281.43 90.94L1281.43 90.94Q1284.29 90.94 1289.46 91.05Q1294.63 91.16 1300.68 91.16Q1306.73 91.16 1312.23 91.27Q1317.73 91.38 1321.25 91.38L1321.25 91.38Q1321.25 91.38 1325.54 96.77Q1329.83 102.16 1336.98 111.18Q1344.13 120.20 1353.04 131.31Q1361.95 142.42 1371.19 154.08Q1380.43 165.74 1388.79 176.41Q1397.15 187.08 1403.42 195Q1409.69 202.92 1412.33 206.66L1412.33 206.66L1413.21 206.66Q1412.99 186.20 1412.77 167.50Q1412.55 148.80 1412.11 133.29Q1411.67 117.78 1410.79 107L1410.79 107Q1410.13 98.20 1405.95 98.20L1405.95 98.20L1395.39 98.20Q1394.51 98.20 1393.96 97.21Q1393.41 96.22 1393.41 95.12L1393.41 95.12Q1393.41 93.80 1393.96 92.37Q1394.51 90.94 1395.39 90.94L1395.39 90.94Q1400.23 90.94 1407.05 91.16Q1413.87 91.38 1419.37 91.38L1419.37 91.38Q1425.53 91.38 1432.57 91.05Q1439.61 90.72 1445.33 90.72L1445.33 90.72Q1446.21 90.72 1446.76 92.26Q1447.31 93.80 1447.31 95.12L1447.31 95.12Q1447.31 97.98 1445.33 97.98L1445.33 97.98L1434.99 97.98Q1430.37 97.98 1429.16 100.18Q1427.95 102.38 1427.29 107.88L1427.29 107.88Q1426.63 114.04 1425.97 127.57Q1425.31 141.10 1424.87 159.47Q1424.43 177.84 1424.10 198.96Q1423.77 220.08 1423.77 241.64L1423.77 241.64Q1423.33 243.18 1420.25 243.18L1420.25 243.18Q1417.17 243.18 1415.63 241.64ZM1574.91 225.14L1574.91 225.14Q1570.73 211.72 1566.11 198.30Q1561.49 184.88 1556.87 171.02L1556.87 171.02L1517.05 171.02Q1509.79 194.12 1503.19 217.88L1503.19 217.88Q1502.31 221.40 1501.87 224.04Q1501.43 226.68 1501.43 228.44L1501.43 228.44Q1501.43 231.74 1502.75 231.74L1502.75 231.74L1518.59 231.74Q1519.91 231.74 1520.46 232.95Q1521.01 234.16 1521.01 235.26L1521.01 235.26Q1521.01 236.14 1520.46 237.57Q1519.91 239 1518.15 239L1518.15 239Q1514.63 239 1509.35 238.89Q1504.07 238.78 1498.79 238.78Q1493.51 238.78 1489.77 238.78L1489.77 238.78Q1483.39 238.78 1477.45 239.11Q1471.51 239.44 1465.35 239.44L1465.35 239.44Q1463.37 239.44 1463.37 235.70L1463.37 235.70Q1463.37 231.96 1465.35 231.96L1465.35 231.96L1476.35 231.96Q1481.19 231.96 1483.61 227.12L1483.61 227.12Q1489.99 213.48 1495.05 200.28Q1500.11 187.08 1505.17 172.78Q1510.23 158.48 1516.06 142.42Q1521.89 126.36 1529.59 107.22L1529.59 107.22Q1530.25 105.46 1530.91 103.81Q1531.57 102.16 1531.57 100.84L1531.57 100.84Q1531.57 98.86 1530.69 97.54Q1529.81 96.22 1529.81 95.34L1529.81 95.34Q1529.81 93.58 1532.01 93.58L1532.01 93.58Q1536.63 93.58 1539.05 92.04Q1541.47 90.50 1542.57 88.63Q1543.67 86.76 1544.55 85.22Q1545.43 83.68 1546.97 83.68L1546.97 83.68Q1547.85 83.68 1548.51 85.77Q1549.17 87.86 1550.05 90.28L1550.05 90.28L1594.27 209.74Q1599.11 222.50 1601.75 227.12Q1604.39 231.74 1605.93 231.74L1605.93 231.74L1613.85 231.74Q1616.05 231.74 1616.05 235.04L1616.05 235.04Q1616.05 236.58 1615.72 237.79Q1615.39 239 1614.29 239L1614.29 239Q1605.71 239 1599 238.89Q1592.29 238.78 1586.35 238.78L1586.35 238.78Q1580.63 238.78 1572.82 239.11Q1565.01 239.44 1558.41 239.44L1558.41 239.44Q1556.43 239.44 1556.43 235.48L1556.43 235.48Q1556.43 231.96 1558.41 231.96L1558.41 231.96L1570.95 231.96Q1577.11 231.96 1574.91 225.14ZM1537.95 113.82L1537.07 113.82Q1532.45 125.92 1528.27 137.91Q1524.09 149.90 1519.91 162.22L1519.91 162.22L1553.79 162.22Q1550.05 150.56 1545.98 138.57Q1541.91 126.58 1537.95 113.82L1537.95 113.82ZM1668.63 91.38L1698.55 91.38Q1726.05 91.38 1746.18 100.73Q1766.31 110.08 1777.20 126.69Q1788.09 143.30 1788.09 165.30L1788.09 165.30Q1788.09 182.46 1781.60 196.10Q1775.11 209.74 1763.45 219.31Q1751.79 228.88 1736.28 233.94Q1720.77 239 1702.73 239L1702.73 239L1676.99 239Q1662.91 239 1653.89 239.22Q1644.87 239.44 1639.59 239.44L1639.59 239.44Q1638.71 239.44 1638.27 238.34Q1637.83 237.24 1637.83 235.92L1637.83 235.92Q1637.83 234.38 1638.27 233.17Q1638.71 231.96 1639.59 231.96L1639.59 231.96L1649.05 231.96Q1654.77 231.96 1656.42 229.76Q1658.07 227.56 1658.07 221.84L1658.07 221.84L1658.07 117.12Q1658.07 108.54 1657.30 104.58Q1656.53 100.62 1655.54 99.52Q1654.55 98.42 1653.45 98.42L1653.45 98.42L1639.59 98.42Q1637.61 98.42 1637.61 95.12L1637.61 95.12Q1637.61 93.80 1638.16 92.37Q1638.71 90.94 1639.59 90.94L1639.59 90.94Q1642.23 90.94 1647.29 91.05Q1652.35 91.16 1658.18 91.27Q1664.01 91.38 1668.63 91.38L1668.63 91.38ZM1685.35 230.20L1703.39 229.98Q1721.43 229.76 1734.85 222.50Q1748.27 215.24 1755.64 202.04Q1763.01 188.84 1763.01 170.80L1763.01 170.80Q1763.01 151 1755.53 135.71Q1748.05 120.42 1731.88 111.07Q1715.71 101.72 1689.09 100.18L1689.09 100.18Q1685.13 99.96 1682.93 102.05Q1680.73 104.14 1680.73 109.20L1680.73 109.20L1680.73 210.84Q1680.73 219.20 1681.50 223.38Q1682.27 227.56 1683.37 228.88Q1684.47 230.20 1685.35 230.20L1685.35 230.20Z" fill="currentColor" stroke="currentColor" stroke-width="9" stroke-linejoin="round"/>
  <path d="M268.38 356.32L268.38 356.32Q268.38 360.72 265.70 364.04Q263.02 367.36 258.66 369.20Q254.30 371.04 249.26 371.04L249.26 371.04Q245.82 371.04 242.82 370.24Q239.82 369.44 237.98 368.64L237.98 368.64L238.62 370.24Q238.86 370.80 238.22 371.20Q237.58 371.60 236.86 371.60L236.86 371.60Q236.22 371.60 235.98 371.20L235.98 371.20Q235.34 369.44 234.66 366.84Q233.98 364.24 233.50 361.40Q233.02 358.56 232.86 356.16L232.86 356.16Q232.86 355.76 233.26 355.56Q233.66 355.36 234.22 355.36L234.22 355.36Q234.62 355.36 235.02 355.48Q235.42 355.60 235.50 355.92L235.50 355.92Q235.98 357.44 237.06 359.48Q238.14 361.52 239.90 363.48Q241.66 365.44 244.18 366.72Q246.70 368 249.90 368L249.90 368Q254.86 368 257.42 365.32Q259.98 362.64 259.98 359.44L259.98 359.44Q259.98 355.60 258.22 352.96Q256.46 350.32 253.62 348.40Q250.78 346.48 247.66 344.72Q244.54 342.96 241.70 340.96Q238.86 338.96 237.10 336.12Q235.34 333.28 235.34 329.20L235.34 329.20Q235.34 325.36 237.70 322.20Q240.06 319.04 244.22 317.16Q248.38 315.28 253.74 315.28L253.74 315.28Q257.02 315.28 259.22 315.88Q261.42 316.48 261.42 316.48L261.42 316.48Q261.34 316.24 261.22 315.52Q261.10 314.80 261.10 314.64L261.10 314.64Q261.02 314.24 261.42 314.04Q261.82 313.84 262.30 313.84L262.30 313.84Q263.26 313.84 263.50 314.48L263.50 314.48Q264.46 317.84 265.02 321.28Q265.58 324.72 265.66 327.20L265.66 327.20Q265.58 327.44 265.06 327.56Q264.54 327.68 263.98 327.68L263.98 327.68Q263.26 327.68 263.02 327.44L263.02 327.44Q262.46 325.44 261.42 323.36Q260.38 321.28 258.30 319.80Q256.22 318.32 252.54 318.32L252.54 318.32Q248.86 318.32 246.86 319.64Q244.86 320.96 244.10 322.92Q243.34 324.88 243.34 326.80L243.34 326.80Q243.34 330 245.14 332.24Q246.94 334.48 249.82 336.24Q252.70 338 255.86 339.76Q259.02 341.52 261.90 343.68Q264.78 345.84 266.58 348.88Q268.38 351.92 268.38 356.32ZM302.14 334L302.14 334Q305.90 334 309.34 335.40Q312.78 336.80 315.50 339.32Q318.22 341.84 319.82 345.20Q321.42 348.56 321.42 352.40L321.42 352.40Q321.42 357.76 318.78 362Q316.14 366.24 311.78 368.64Q307.42 371.04 302.14 371.04L302.14 371.04Q296.94 371.04 292.58 368.48Q288.22 365.92 285.58 361.64Q282.94 357.36 282.94 352.08L282.94 352.08Q282.94 348.24 284.54 344.96Q286.14 341.68 288.86 339.20Q291.58 336.72 295.02 335.36Q298.46 334 302.14 334ZM301.82 336.88L301.82 336.88Q298.86 336.88 296.78 338.28Q294.70 339.68 293.42 342Q292.14 344.32 291.54 347.04Q290.94 349.76 290.94 352.40L290.94 352.40Q290.94 356.16 292.06 359.80Q293.18 363.44 295.74 365.80Q298.30 368.16 302.54 368.16L302.54 368.16Q306.54 368.16 308.90 365.84Q311.26 363.52 312.34 359.96Q313.42 356.40 313.42 352.88L313.42 352.88Q313.42 349.04 312.34 345.36Q311.26 341.68 308.70 339.28Q306.14 336.88 301.82 336.88ZM340.78 366.40L340.78 338.08L335.18 338.08Q334.30 338.08 334.30 336.72L334.30 336.72Q334.30 336.24 334.50 335.84Q334.70 335.44 335.02 335.44L335.02 335.44Q335.90 335.44 337.10 335.36Q338.30 335.28 339.34 334.92Q340.38 334.56 340.62 333.76L340.62 333.76Q341.34 331.52 342.02 328.64Q342.70 325.76 343.78 322.88Q344.86 320 346.78 317.56Q348.70 315.12 351.78 313.60Q354.86 312.08 359.50 312.08L359.50 312.08Q362.78 312.08 365.02 313.68Q367.26 315.28 367.26 317.20L367.26 317.20Q367.26 318.32 366.42 319.44Q365.58 320.56 363.26 321.28L363.26 321.28Q361.98 319.28 360.26 317.36Q358.54 315.44 355.82 315.44L355.82 315.44Q352.78 315.44 351.06 317.24Q349.34 319.04 348.62 321.76Q347.90 324.48 347.74 327.44Q347.58 330.40 347.58 332.72L347.58 332.72L347.58 335.04L356.62 335.04Q357.02 335.04 357.26 335.60Q357.50 336.16 357.50 336.72L357.50 336.72Q357.50 337.12 357.34 337.60Q357.18 338.08 356.78 338.08L356.78 338.08L347.58 338.08L347.58 360.56Q347.58 363.60 347.82 365.12Q348.06 366.64 348.46 367.12Q348.86 367.60 349.26 367.60L349.26 367.60L353.18 367.60Q353.50 367.60 353.66 368.08Q353.82 368.56 353.82 368.96L353.82 368.96Q353.82 369.28 353.70 369.64Q353.58 370 353.34 370L353.34 370Q351.18 370 349.86 369.96Q348.54 369.92 347.42 369.92Q346.30 369.92 344.62 369.92L344.62 369.92Q341.18 369.92 339.42 370.04Q337.66 370.16 335.34 370.16L335.34 370.16Q335.10 370.16 334.94 369.72Q334.78 369.28 334.78 368.96L334.78 368.96Q334.78 368.56 334.90 368.16Q335.02 367.76 335.18 367.76L335.18 367.76L339.82 367.76Q340.78 367.76 340.78 366.40L340.78 366.40ZM374.94 360.40L374.94 338.08L370.86 338.08Q370.54 338.08 370.30 337.64Q370.06 337.20 370.06 336.88L370.06 336.88Q370.06 336.56 370.22 336.16Q370.38 335.76 370.70 335.68L370.70 335.68Q374.70 334.88 376.86 331.80Q379.02 328.72 380.38 324.80L380.38 324.80Q380.54 324.40 380.86 324.32Q381.18 324.24 381.42 324.24L381.42 324.24Q382.22 324.24 382.22 325.28L382.22 325.28Q382.22 327.04 381.98 329.16Q381.74 331.28 381.74 335.04L381.74 335.04L391.66 335.04Q392.06 335.04 392.26 335.60Q392.46 336.16 392.46 336.72L392.46 336.72Q392.46 337.12 392.34 337.60Q392.22 338.08 391.82 338.08L391.82 338.08L381.74 338.08L381.74 358.64Q381.74 362.48 383.06 364.36Q384.38 366.24 387.66 366.24L387.66 366.24Q389.42 366.24 390.42 365.44Q391.42 364.64 392.02 363.88Q392.62 363.12 393.02 363.12L393.02 363.12Q393.82 363.12 393.82 363.84L393.82 363.84Q393.82 365.04 392.66 366.80Q391.50 368.56 389.34 369.92Q387.18 371.28 384.14 371.28L384.14 371.28Q379.90 371.28 377.42 368.52Q374.94 365.76 374.94 360.40L374.94 360.40ZM458.94 337.04L456.86 337.04Q455.98 337.04 455.58 337.76L455.58 337.76Q454.54 339.44 453.06 342.92Q451.58 346.40 449.90 350.68Q448.22 354.96 446.66 359.16Q445.10 363.36 443.98 366.60Q442.86 369.84 442.46 371.12L442.46 371.12Q442.14 371.84 440.86 371.84L440.86 371.84Q439.66 371.84 439.34 371.04L439.34 371.04Q438.86 368.96 437.54 365.40Q436.22 361.84 434.54 357.56Q432.86 353.28 431.10 349.12L431.10 349.12Q429.34 353.52 427.62 358.08Q425.90 362.64 424.66 366.20Q423.42 369.76 423.02 371.12L423.02 371.12Q422.70 371.84 421.42 371.84L421.42 371.84Q420.22 371.84 419.90 371.04L419.90 371.04Q419.34 368.88 417.86 365.04Q416.38 361.20 414.38 356.64Q412.38 352.08 410.38 347.72Q408.38 343.36 406.86 340.16L406.86 340.16Q405.90 338.16 405.10 337.64Q404.30 337.12 402.62 337.12L402.62 337.12Q402.14 337.12 402.14 336.16L402.14 336.16Q402.14 335.76 402.26 335.36Q402.38 334.96 402.62 334.96L402.62 334.96Q404.86 334.96 406.46 335.04Q408.06 335.12 410.22 335.12L410.22 335.12Q411.74 335.12 413.34 335.04Q414.94 334.96 417.66 334.96L417.66 334.96Q417.98 334.96 418.06 335.28Q418.14 335.60 418.14 336L418.14 336Q418.14 337.04 417.66 337.04L417.66 337.04L415.02 337.04Q414.14 337.04 414.14 337.76L414.14 337.76Q414.14 338.08 414.78 339.84Q415.42 341.60 416.50 344.32Q417.58 347.04 418.78 350.24Q419.98 353.44 421.18 356.64Q422.38 359.84 423.26 362.48L423.26 362.48Q424.94 356.80 426.54 352.36Q428.14 347.92 429.18 344.80L429.18 344.80Q428.14 342.32 427.10 340.16L427.10 340.16Q426.14 338.16 425.34 337.64Q424.54 337.12 422.86 337.12L422.86 337.12Q422.38 337.12 422.38 336.16L422.38 336.16Q422.38 335.76 422.50 335.36Q422.62 334.96 422.86 334.96L422.86 334.96Q425.10 334.96 426.70 335.04Q428.30 335.12 430.46 335.12L430.46 335.12Q431.98 335.12 434.18 335.04Q436.38 334.96 439.10 334.96L439.10 334.96Q439.42 334.96 439.50 335.28Q439.58 335.60 439.58 336L439.58 336Q439.58 337.04 439.10 337.04L439.10 337.04L435.26 337.04Q434.38 337.04 434.38 337.76L434.38 337.76Q434.38 338.08 435.26 340.72Q436.14 343.36 437.46 347.16Q438.78 350.96 440.18 355.04Q441.58 359.12 442.70 362.48L442.70 362.48Q445.50 353.12 447.82 347.08Q450.14 341.04 450.14 338.72L450.14 338.72Q450.14 337.76 449.86 337.44Q449.58 337.12 449.18 337.12L449.18 337.12L445.90 337.12Q445.34 337.12 445.34 336.24L445.34 336.24Q445.34 335.84 445.46 335.40Q445.58 334.96 445.74 334.96L445.74 334.96Q447.74 334.96 448.90 335Q450.06 335.04 450.98 335.08Q451.90 335.12 453.10 335.12L453.10 335.12Q454.54 335.12 455.74 335.04Q456.94 334.96 458.94 334.96L458.94 334.96Q459.26 334.96 459.38 335.28Q459.50 335.60 459.50 336L459.50 336Q459.50 337.04 458.94 337.04L458.94 337.04ZM497.02 344.08L497.02 344.08Q497.02 346.48 496.82 349.48Q496.62 352.48 496.42 355.32Q496.22 358.16 496.22 360.16L496.22 360.16Q496.22 363.28 497.18 364.40Q498.14 365.52 499.74 365.52L499.74 365.52Q501.58 365.52 502.18 364.68Q502.78 363.84 503.34 363.84L503.34 363.84Q504.14 363.84 504.14 364.64L504.14 364.64Q504.14 365.92 503.06 367.40Q501.98 368.88 500.30 369.88Q498.62 370.88 496.70 370.88L496.70 370.88Q493.50 370.88 492.06 368.32Q490.62 365.76 490.70 362L490.70 362L490.46 362Q489.10 365.84 485.66 368.44Q482.22 371.04 477.82 371.04L477.82 371.04Q474.62 371.04 472.62 369.52Q470.62 368 470.62 365.04L470.62 365.04Q470.62 360.32 475.94 356.40Q481.26 352.48 490.30 349.76L490.30 349.76Q490.38 348.72 490.42 347.88Q490.46 347.04 490.46 346.56L490.46 346.56Q490.46 342.56 488.94 339.60Q487.42 336.64 483.66 336.64L483.66 336.64Q480.78 336.64 478.66 338.40Q476.54 340.16 476.54 343.92L476.54 343.92Q476.54 344.32 476.54 344.76Q476.54 345.20 476.62 345.68L476.62 345.68Q476.30 346.08 475.70 346.28Q475.10 346.48 474.46 346.48L474.46 346.48Q473.10 346.48 471.78 345.60Q470.46 344.72 470.46 342.72L470.46 342.72Q470.46 340.16 472.70 338.20Q474.94 336.24 478.22 335.12Q481.50 334 484.62 334L484.62 334Q490.30 334 493.66 336.28Q497.02 338.56 497.02 344.08ZM481.58 366.64L481.58 366.64Q484.62 366.64 487.30 362.88Q489.98 359.12 490.30 352.08L490.30 352.08Q485.50 353.84 482.86 355.60Q480.22 357.36 479.14 359.16Q478.06 360.96 478.06 362.88L478.06 362.88Q478.06 364.56 478.90 365.60Q479.74 366.64 481.58 366.64ZM528.06 339.92L528.22 339.92Q529.18 338.88 530.94 337.52Q532.70 336.16 534.94 335.08Q537.18 334 539.42 334L539.42 334Q541.50 334 542.50 335Q543.50 336 543.50 337.36L543.50 337.36Q543.50 338.64 542.58 340Q541.66 341.36 539.90 342.16L539.90 342.16Q538.54 340.96 537.06 340.24Q535.58 339.52 534.14 339.52L534.14 339.52Q532.30 339.52 530.78 340.44Q529.26 341.36 528.30 342.64L528.30 342.64L528.30 360.56Q528.30 363.60 528.54 365.12Q528.78 366.64 529.18 367.12Q529.58 367.60 529.98 367.60L529.98 367.60L533.90 367.60Q534.22 367.60 534.38 368.08Q534.54 368.56 534.54 368.96L534.54 368.96Q534.54 369.28 534.42 369.64Q534.30 370 534.06 370L534.06 370Q531.90 370 530.58 369.96Q529.26 369.92 528.14 369.92Q527.02 369.92 525.34 369.92L525.34 369.92Q521.90 369.92 520.14 370.04Q518.38 370.16 516.06 370.16L516.06 370.16Q515.82 370.16 515.66 369.72Q515.50 369.28 515.50 368.96L515.50 368.96Q515.50 368.56 515.62 368.16Q515.74 367.76 515.90 367.76L515.90 367.76L520.54 367.76Q521.50 367.76 521.50 366.40L521.50 366.40L521.50 347.60Q521.50 344.16 521.18 342.52Q520.86 340.88 520.34 340.36Q519.82 339.84 519.26 339.84L519.26 339.84L517.66 339.84Q517.42 339.84 517.22 339.40Q517.02 338.96 517.02 338.56L517.02 338.56Q517.02 338.32 517.10 337.88Q517.18 337.44 517.50 337.44L517.50 337.44Q519.34 337.44 520.94 336.60Q522.54 335.76 523.78 334.60Q525.02 333.44 525.90 332.60Q526.78 331.76 527.10 331.76L527.10 331.76Q528.22 331.76 528.22 332.72L528.22 332.72Q528.22 334.96 528.14 336.44Q528.06 337.92 528.06 339.92L528.06 339.92ZM582.94 350L582.94 350Q578.78 350.32 572.94 350.24Q567.10 350.16 559.42 350.64L559.42 350.64Q559.42 354.40 560.78 357Q562.14 359.60 564.30 361.20Q566.46 362.80 568.98 363.52Q571.50 364.24 573.82 364.24L573.82 364.24Q577.10 364.24 579.14 363.60Q581.18 362.96 582.34 362.16Q583.50 361.36 584.14 360.72Q584.78 360.08 585.34 360.08L585.34 360.08Q586.22 360.08 586.22 361.04L586.22 361.04Q586.22 361.52 585.46 363.12Q584.70 364.72 583.06 366.56Q581.42 368.40 578.62 369.72Q575.82 371.04 571.74 371.04L571.74 371.04Q566.94 371.04 563.18 368.52Q559.42 366 557.26 362Q555.10 358 555.10 353.60L555.10 353.60Q555.10 349.04 556.74 345.40Q558.38 341.76 561.06 339.24Q563.74 336.72 566.94 335.40Q570.14 334.08 573.34 334.08L573.34 334.08Q576.78 334.08 579.54 335.76Q582.30 337.44 583.98 340.44Q585.66 343.44 585.66 347.60L585.66 347.60Q585.66 348.88 585.10 349.36Q584.54 349.84 582.94 350ZM571.18 338.40L571.18 338.40Q568.78 338.40 566.34 339.48Q563.90 340.56 562.10 342.72Q560.30 344.88 559.66 348.16L559.66 348.16Q562.46 347.84 565.66 347.60Q568.86 347.36 571.74 347.12Q574.62 346.88 576.22 346.64L576.22 346.64Q577.66 346.48 578.26 346.16Q578.86 345.84 578.86 345.12L578.86 345.12Q578.86 342.40 576.66 340.40Q574.46 338.40 571.18 338.40ZM645.74 322.96L645.74 341.84Q649.26 341.76 652.54 341.56Q655.82 341.36 658.06 341.12Q660.30 340.88 660.54 340.72L660.54 340.72L661.34 336Q661.42 335.44 662.62 335.44L662.62 335.44Q663.10 335.44 663.50 335.60Q663.90 335.76 663.82 336.16L663.82 336.16Q663.58 338 663.50 339.52Q663.42 341.04 663.42 342.88L663.42 342.88Q663.42 344.64 663.50 346.52Q663.58 348.40 663.82 350.24L663.82 350.24Q663.90 350.56 663.42 350.72Q662.94 350.88 662.38 350.88L662.38 350.88Q661.34 350.88 661.34 350.40L661.34 350.40L660.46 345.60Q660.22 345.44 658.06 345.20Q655.90 344.96 652.62 344.72Q649.34 344.48 645.74 344.40L645.74 344.40L645.74 359.76Q645.74 362.80 646.02 364.32Q646.30 365.84 646.70 366.32Q647.10 366.80 647.42 366.80L647.42 366.80L651.50 366.80Q656.70 366.72 661.46 365.84Q666.22 364.96 668.46 363.44L668.46 363.44L669.02 359.04Q669.10 358.72 669.54 358.56Q669.98 358.40 670.54 358.40L670.54 358.40Q671.74 358.40 671.66 359.04L671.66 359.04Q671.26 362 671.10 365.36Q670.94 368.72 670.94 371.76L670.94 371.76Q670.94 372.32 669.74 372.32L669.74 372.32Q669.26 372.32 668.86 372.20Q668.46 372.08 668.46 371.76L668.46 371.76L668.46 370L648.70 370Q643.58 370 640.42 370.04Q637.26 370.08 635.46 370.08Q633.66 370.08 632.66 370.12Q631.66 370.16 630.78 370.16L630.78 370.16Q630.46 370.16 630.30 369.76Q630.14 369.36 630.14 368.88L630.14 368.88Q630.14 368.32 630.30 367.88Q630.46 367.44 630.78 367.44L630.78 367.44L634.22 367.44Q636.30 367.44 636.90 366.64Q637.50 365.84 637.50 363.76L637.50 363.76L637.50 325.84Q637.50 322.72 637.22 321.24Q636.94 319.76 636.58 319.28Q636.22 318.80 635.82 318.80L635.82 318.80L631.18 318.80Q630.54 318.80 630.54 317.28L630.54 317.28Q630.54 316.88 630.66 316.52Q630.78 316.16 631.18 316.16L631.18 316.16Q633.26 316.16 635.74 316.24Q638.22 316.32 641.26 316.32L641.26 316.32L664.46 316.32L664.46 314.64Q664.46 314.24 664.86 314.08Q665.26 313.92 665.66 313.92L665.66 313.92Q666.06 313.92 666.42 314.08Q666.78 314.24 666.78 314.64L666.78 314.64Q666.78 317.60 666.94 320.92Q667.10 324.24 667.58 326.80L667.58 326.80Q667.74 327.12 667.34 327.28Q666.94 327.44 666.46 327.44L666.46 327.44Q665.98 327.44 665.54 327.28Q665.10 327.12 665.02 326.80L665.02 326.80Q664.62 325.12 663.98 323.36Q663.34 321.60 661.98 320.96L661.98 320.96Q659.90 320.16 656.74 319.76Q653.58 319.36 648.38 319.28L648.38 319.28Q646.78 319.36 646.26 320.20Q645.74 321.04 645.74 322.96L645.74 322.96ZM698.46 338.96L698.62 338.96Q701.02 336.72 704.22 335.36Q707.42 334 710.06 334L710.06 334Q715.98 334 719.66 337.48Q723.34 340.96 723.34 349.36L723.34 349.36L723.34 360.56Q723.34 363.60 723.58 365.12Q723.82 366.64 724.22 367.12Q724.62 367.60 725.02 367.60L725.02 367.60L728.94 367.60Q729.26 367.60 729.42 368.08Q729.58 368.56 729.58 368.96L729.58 368.96Q729.58 369.28 729.46 369.64Q729.34 370 729.10 370L729.10 370Q726.94 370 725.66 369.96Q724.38 369.92 723.22 369.92Q722.06 369.92 720.38 369.92L720.38 369.92Q716.94 369.92 715.18 370.04Q713.42 370.16 711.10 370.16L711.10 370.16Q710.86 370.16 710.70 369.72Q710.54 369.28 710.54 368.96L710.54 368.96Q710.54 368.56 710.66 368.16Q710.78 367.76 710.94 367.76L710.94 367.76L715.58 367.76Q716.54 367.76 716.54 366.40L716.54 366.40L716.54 352.88Q716.54 347.44 715.62 344.28Q714.70 341.12 712.50 339.76Q710.30 338.40 706.46 338.40L706.46 338.40Q704.06 338.40 701.98 339.32Q699.90 340.24 698.70 341.60L698.70 341.60L698.70 360.56Q698.70 363.60 698.94 365.12Q699.18 366.64 699.58 367.12Q699.98 367.60 700.38 367.60L700.38 367.60L704.30 367.60Q704.62 367.60 704.78 368.08Q704.94 368.56 704.94 368.96L704.94 368.96Q704.94 369.28 704.82 369.64Q704.70 370 704.46 370L704.46 370Q702.30 370 700.98 369.96Q699.66 369.92 698.54 369.92Q697.42 369.92 695.74 369.92L695.74 369.92Q692.30 369.92 690.54 370.04Q688.78 370.16 686.46 370.16L686.46 370.16Q686.22 370.16 686.06 369.72Q685.90 369.28 685.90 368.96L685.90 368.96Q685.90 368.56 686.02 368.16Q686.14 367.76 686.30 367.76L686.30 367.76L690.94 367.76Q691.90 367.76 691.90 366.40L691.90 366.40L691.90 347.60Q691.90 344.16 691.58 342.52Q691.26 340.88 690.74 340.36Q690.22 339.84 689.66 339.84L689.66 339.84L688.06 339.84Q687.82 339.84 687.62 339.40Q687.42 338.96 687.42 338.56L687.42 338.56Q687.42 338.32 687.50 337.88Q687.58 337.44 687.90 337.44L687.90 337.44Q689.74 337.44 691.34 336.60Q692.94 335.76 694.18 334.60Q695.42 333.44 696.30 332.60Q697.18 331.76 697.50 331.76L697.50 331.76Q698.62 331.76 698.62 332.72L698.62 332.72Q698.62 334.16 698.58 335.08Q698.54 336 698.50 336.80Q698.46 337.60 698.46 338.96L698.46 338.96ZM757.74 334L757.74 334Q760.70 334 763.42 335.24Q766.14 336.48 768.14 338.64L768.14 338.64Q769.98 336.48 771.90 335.40Q773.82 334.32 775.42 334.32L775.42 334.32Q777.50 334.32 778.62 335.40Q779.74 336.48 779.74 337.84L779.74 337.84Q779.74 338.80 779.18 339.76Q778.62 340.72 777.50 341.36L777.50 341.36Q776.30 340.40 775.10 339.68Q773.90 338.96 772.30 338.96L772.30 338.96Q771.58 338.96 770.74 339.40Q769.90 339.84 769.90 340.56L769.90 340.56Q769.90 341.28 770.74 342.76Q771.58 344.24 771.58 347.28L771.58 347.28Q771.58 351.84 769.62 354.68Q767.66 357.52 764.42 358.84Q761.18 360.16 757.34 360.24L757.34 360.24Q754.22 360.24 752.30 361.04Q750.38 361.84 749.54 362.84Q748.70 363.84 748.70 364.56L748.70 364.56Q748.70 365.60 749.78 366.16Q750.86 366.72 752.50 366.92Q754.14 367.12 755.82 367.12L755.82 367.12Q758.70 367.12 760.74 366.92Q762.78 366.72 765.26 366.72L765.26 366.72Q768.78 366.72 771.82 367.64Q774.86 368.56 776.74 370.52Q778.62 372.48 778.62 375.68L778.62 375.68Q778.62 378.96 776.54 381.96Q774.46 384.96 771.02 387.32Q767.58 389.68 763.42 391.04Q759.26 392.40 755.02 392.40L755.02 392.40Q751.34 392.40 748.34 391.64Q745.34 390.88 743.62 389.16Q741.90 387.44 741.90 384.48L741.90 384.48Q741.90 382.32 743.30 380.04Q744.70 377.76 747.02 375.88Q749.34 374 752.14 373.04L752.14 373.04L752.14 372.80Q750.22 372.56 748.26 371.92Q746.30 371.28 745.02 370.04Q743.74 368.80 743.74 366.88L743.74 366.88Q743.74 365.84 744.46 364.28Q745.18 362.72 746.90 361.32Q748.62 359.92 751.42 359.28L751.42 359.28L751.42 359.12Q747.74 357.76 745.46 354.56Q743.18 351.36 743.18 347.44L743.18 347.44Q743.18 343.20 745.26 340.20Q747.34 337.20 750.66 335.60Q753.98 334 757.74 334ZM757.18 357.60L757.18 357.60Q760.14 357.60 761.78 356.12Q763.42 354.64 764.10 352.28Q764.78 349.92 764.78 347.28L764.78 347.28Q764.78 344.88 764.14 342.40Q763.50 339.92 761.90 338.28Q760.30 336.64 757.34 336.64L757.34 336.64Q754.38 336.64 752.78 338.24Q751.18 339.84 750.58 342.28Q749.98 344.72 749.98 347.28L749.98 347.28Q749.98 349.68 750.62 352.04Q751.26 354.40 752.82 356Q754.38 357.60 757.18 357.60ZM763.42 372.64L763.42 372.64Q761.26 372.64 759.78 372.80Q758.30 372.96 756.14 373.04L756.14 373.04Q752.78 374.24 750.30 376.96Q747.82 379.68 747.82 382.96L747.82 382.96Q747.82 386.32 750.26 387.96Q752.70 389.60 756.86 389.60L756.86 389.60Q759.26 389.60 762.06 388.76Q764.86 387.92 767.38 386.40Q769.90 384.88 771.54 382.76Q773.18 380.64 773.18 378.08L773.18 378.08Q773.18 376.08 771.74 374.88Q770.30 373.68 768.06 373.16Q765.82 372.64 763.42 372.64ZM803.26 346.24L803.26 360.56Q803.26 363.60 803.50 365.12Q803.74 366.64 804.14 367.12Q804.54 367.60 804.94 367.60L804.94 367.60L808.86 367.60Q809.18 367.60 809.34 368.08Q809.50 368.56 809.50 368.96L809.50 368.96Q809.50 369.28 809.38 369.64Q809.26 370 809.02 370L809.02 370Q806.86 370 805.54 369.96Q804.22 369.92 803.10 369.92Q801.98 369.92 800.30 369.92L800.30 369.92Q796.86 369.92 795.10 370.04Q793.34 370.16 791.02 370.16L791.02 370.16Q790.78 370.16 790.62 369.72Q790.46 369.28 790.46 368.96L790.46 368.96Q790.46 368.56 790.58 368.16Q790.70 367.76 790.86 367.76L790.86 367.76L795.50 367.76Q796.46 367.76 796.46 366.40L796.46 366.40L796.46 347.60Q796.46 344.16 796.14 342.52Q795.82 340.88 795.30 340.36Q794.78 339.84 794.22 339.84L794.22 339.84L792.62 339.84Q792.38 339.84 792.18 339.40Q791.98 338.96 791.98 338.56L791.98 338.56Q791.98 338.32 792.06 337.88Q792.14 337.44 792.46 337.44L792.46 337.44Q794.38 337.44 795.98 336.60Q797.58 335.76 798.86 334.60Q800.14 333.44 801.02 332.60Q801.90 331.76 802.38 331.76L802.38 331.76Q803.58 331.76 803.58 332.72L803.58 332.72Q803.58 333.84 803.54 334.76Q803.50 335.68 803.42 337Q803.34 338.32 803.30 340.48Q803.26 342.64 803.26 346.24L803.26 346.24ZM799.90 325.60L799.90 325.60Q798.14 325.60 796.98 324.36Q795.82 323.12 795.82 321.36L795.82 321.36Q795.82 319.68 797.06 318.56Q798.30 317.44 799.90 317.44L799.90 317.44Q801.50 317.44 802.74 318.60Q803.98 319.76 803.98 321.36L803.98 321.36Q803.98 323.12 802.82 324.36Q801.66 325.60 799.90 325.60ZM835.10 338.96L835.26 338.96Q837.66 336.72 840.86 335.36Q844.06 334 846.70 334L846.70 334Q852.62 334 856.30 337.48Q859.98 340.96 859.98 349.36L859.98 349.36L859.98 360.56Q859.98 363.60 860.22 365.12Q860.46 366.64 860.86 367.12Q861.26 367.60 861.66 367.60L861.66 367.60L865.58 367.60Q865.90 367.60 866.06 368.08Q866.22 368.56 866.22 368.96L866.22 368.96Q866.22 369.28 866.10 369.64Q865.98 370 865.74 370L865.74 370Q863.58 370 862.30 369.96Q861.02 369.92 859.86 369.92Q858.70 369.92 857.02 369.92L857.02 369.92Q853.58 369.92 851.82 370.04Q850.06 370.16 847.74 370.16L847.74 370.16Q847.50 370.16 847.34 369.72Q847.18 369.28 847.18 368.96L847.18 368.96Q847.18 368.56 847.30 368.16Q847.42 367.76 847.58 367.76L847.58 367.76L852.22 367.76Q853.18 367.76 853.18 366.40L853.18 366.40L853.18 352.88Q853.18 347.44 852.26 344.28Q851.34 341.12 849.14 339.76Q846.94 338.40 843.10 338.40L843.10 338.40Q840.70 338.40 838.62 339.32Q836.54 340.24 835.34 341.60L835.34 341.60L835.34 360.56Q835.34 363.60 835.58 365.12Q835.82 366.64 836.22 367.12Q836.62 367.60 837.02 367.60L837.02 367.60L840.94 367.60Q841.26 367.60 841.42 368.08Q841.58 368.56 841.58 368.96L841.58 368.96Q841.58 369.28 841.46 369.64Q841.34 370 841.10 370L841.10 370Q838.94 370 837.62 369.96Q836.30 369.92 835.18 369.92Q834.06 369.92 832.38 369.92L832.38 369.92Q828.94 369.92 827.18 370.04Q825.42 370.16 823.10 370.16L823.10 370.16Q822.86 370.16 822.70 369.72Q822.54 369.28 822.54 368.96L822.54 368.96Q822.54 368.56 822.66 368.16Q822.78 367.76 822.94 367.76L822.94 367.76L827.58 367.76Q828.54 367.76 828.54 366.40L828.54 366.40L828.54 347.60Q828.54 344.16 828.22 342.52Q827.90 340.88 827.38 340.36Q826.86 339.84 826.30 339.84L826.30 339.84L824.70 339.84Q824.46 339.84 824.26 339.40Q824.06 338.96 824.06 338.56L824.06 338.56Q824.06 338.32 824.14 337.88Q824.22 337.44 824.54 337.44L824.54 337.44Q826.38 337.44 827.98 336.60Q829.58 335.76 830.82 334.60Q832.06 333.44 832.94 332.60Q833.82 331.76 834.14 331.76L834.14 331.76Q835.26 331.76 835.26 332.72L835.26 332.72Q835.26 334.16 835.22 335.08Q835.18 336 835.14 336.80Q835.10 337.60 835.10 338.96L835.10 338.96ZM906.78 350L906.78 350Q902.62 350.32 896.78 350.24Q890.94 350.16 883.26 350.64L883.26 350.64Q883.26 354.40 884.62 357Q885.98 359.60 888.14 361.20Q890.30 362.80 892.82 363.52Q895.34 364.24 897.66 364.24L897.66 364.24Q900.94 364.24 902.98 363.60Q905.02 362.96 906.18 362.16Q907.34 361.36 907.98 360.72Q908.62 360.08 909.18 360.08L909.18 360.08Q910.06 360.08 910.06 361.04L910.06 361.04Q910.06 361.52 909.30 363.12Q908.54 364.72 906.90 366.56Q905.26 368.40 902.46 369.72Q899.66 371.04 895.58 371.04L895.58 371.04Q890.78 371.04 887.02 368.52Q883.26 366 881.10 362Q878.94 358 878.94 353.60L878.94 353.60Q878.94 349.04 880.58 345.40Q882.22 341.76 884.90 339.24Q887.58 336.72 890.78 335.40Q893.98 334.08 897.18 334.08L897.18 334.08Q900.62 334.08 903.38 335.76Q906.14 337.44 907.82 340.44Q909.50 343.44 909.50 347.60L909.50 347.60Q909.50 348.88 908.94 349.36Q908.38 349.84 906.78 350ZM895.02 338.40L895.02 338.40Q892.62 338.40 890.18 339.48Q887.74 340.56 885.94 342.72Q884.14 344.88 883.50 348.16L883.50 348.16Q886.30 347.84 889.50 347.60Q892.70 347.36 895.58 347.12Q898.46 346.88 900.06 346.64L900.06 346.64Q901.50 346.48 902.10 346.16Q902.70 345.84 902.70 345.12L902.70 345.12Q902.70 342.40 900.50 340.40Q898.30 338.40 895.02 338.40ZM952.06 350L952.06 350Q947.90 350.32 942.06 350.24Q936.22 350.16 928.54 350.64L928.54 350.64Q928.54 354.40 929.90 357Q931.26 359.60 933.42 361.20Q935.58 362.80 938.10 363.52Q940.62 364.24 942.94 364.24L942.94 364.24Q946.22 364.24 948.26 363.60Q950.30 362.96 951.46 362.16Q952.62 361.36 953.26 360.72Q953.90 360.08 954.46 360.08L954.46 360.08Q955.34 360.08 955.34 361.04L955.34 361.04Q955.34 361.52 954.58 363.12Q953.82 364.72 952.18 366.56Q950.54 368.40 947.74 369.72Q944.94 371.04 940.86 371.04L940.86 371.04Q936.06 371.04 932.30 368.52Q928.54 366 926.38 362Q924.22 358 924.22 353.60L924.22 353.60Q924.22 349.04 925.86 345.40Q927.50 341.76 930.18 339.24Q932.86 336.72 936.06 335.40Q939.26 334.08 942.46 334.08L942.46 334.08Q945.90 334.08 948.66 335.76Q951.42 337.44 953.10 340.44Q954.78 343.44 954.78 347.60L954.78 347.60Q954.78 348.88 954.22 349.36Q953.66 349.84 952.06 350ZM940.30 338.40L940.30 338.40Q937.90 338.40 935.46 339.48Q933.02 340.56 931.22 342.72Q929.42 344.88 928.78 348.16L928.78 348.16Q931.58 347.84 934.78 347.60Q937.98 347.36 940.86 347.12Q943.74 346.88 945.34 346.64L945.34 346.64Q946.78 346.48 947.38 346.16Q947.98 345.84 947.98 345.12L947.98 345.12Q947.98 342.40 945.78 340.40Q943.58 338.40 940.30 338.40ZM981.74 339.92L981.90 339.92Q982.86 338.88 984.62 337.52Q986.38 336.16 988.62 335.08Q990.86 334 993.10 334L993.10 334Q995.18 334 996.18 335Q997.18 336 997.18 337.36L997.18 337.36Q997.18 338.64 996.26 340Q995.34 341.36 993.58 342.16L993.58 342.16Q992.22 340.96 990.74 340.24Q989.26 339.52 987.82 339.52L987.82 339.52Q985.98 339.52 984.46 340.44Q982.94 341.36 981.98 342.64L981.98 342.64L981.98 360.56Q981.98 363.60 982.22 365.12Q982.46 366.64 982.86 367.12Q983.26 367.60 983.66 367.60L983.66 367.60L987.58 367.60Q987.90 367.60 988.06 368.08Q988.22 368.56 988.22 368.96L988.22 368.96Q988.22 369.28 988.10 369.64Q987.98 370 987.74 370L987.74 370Q985.58 370 984.26 369.96Q982.94 369.92 981.82 369.92Q980.70 369.92 979.02 369.92L979.02 369.92Q975.58 369.92 973.82 370.04Q972.06 370.16 969.74 370.16L969.74 370.16Q969.50 370.16 969.34 369.72Q969.18 369.28 969.18 368.96L969.18 368.96Q969.18 368.56 969.30 368.16Q969.42 367.76 969.58 367.76L969.58 367.76L974.22 367.76Q975.18 367.76 975.18 366.40L975.18 366.40L975.18 347.60Q975.18 344.16 974.86 342.52Q974.54 340.88 974.02 340.36Q973.50 339.84 972.94 339.84L972.94 339.84L971.34 339.84Q971.10 339.84 970.90 339.40Q970.70 338.96 970.70 338.56L970.70 338.56Q970.70 338.32 970.78 337.88Q970.86 337.44 971.18 337.44L971.18 337.44Q973.02 337.44 974.62 336.60Q976.22 335.76 977.46 334.60Q978.70 333.44 979.58 332.60Q980.46 331.76 980.78 331.76L980.78 331.76Q981.90 331.76 981.90 332.72L981.90 332.72Q981.90 334.96 981.82 336.44Q981.74 337.92 981.74 339.92L981.74 339.92ZM1020.94 346.24L1020.94 360.56Q1020.94 363.60 1021.18 365.12Q1021.42 366.64 1021.82 367.12Q1022.22 367.60 1022.62 367.60L1022.62 367.60L1026.54 367.60Q1026.86 367.60 1027.02 368.08Q1027.18 368.56 1027.18 368.96L1027.18 368.96Q1027.18 369.28 1027.06 369.64Q1026.94 370 1026.70 370L1026.70 370Q1024.54 370 1023.22 369.96Q1021.90 369.92 1020.78 369.92Q1019.66 369.92 1017.98 369.92L1017.98 369.92Q1014.54 369.92 1012.78 370.04Q1011.02 370.16 1008.70 370.16L1008.70 370.16Q1008.46 370.16 1008.30 369.72Q1008.14 369.28 1008.14 368.96L1008.14 368.96Q1008.14 368.56 1008.26 368.16Q1008.38 367.76 1008.54 367.76L1008.54 367.76L1013.18 367.76Q1014.14 367.76 1014.14 366.40L1014.14 366.40L1014.14 347.60Q1014.14 344.16 1013.82 342.52Q1013.50 340.88 1012.98 340.36Q1012.46 339.84 1011.90 339.84L1011.90 339.84L1010.30 339.84Q1010.06 339.84 1009.86 339.40Q1009.66 338.96 1009.66 338.56L1009.66 338.56Q1009.66 338.32 1009.74 337.88Q1009.82 337.44 1010.14 337.44L1010.14 337.44Q1012.06 337.44 1013.66 336.60Q1015.26 335.76 1016.54 334.60Q1017.82 333.44 1018.70 332.60Q1019.58 331.76 1020.06 331.76L1020.06 331.76Q1021.26 331.76 1021.26 332.72L1021.26 332.72Q1021.26 333.84 1021.22 334.76Q1021.18 335.68 1021.10 337Q1021.02 338.32 1020.98 340.48Q1020.94 342.64 1020.94 346.24L1020.94 346.24ZM1017.58 325.60L1017.58 325.60Q1015.82 325.60 1014.66 324.36Q1013.50 323.12 1013.50 321.36L1013.50 321.36Q1013.50 319.68 1014.74 318.56Q1015.98 317.44 1017.58 317.44L1017.58 317.44Q1019.18 317.44 1020.42 318.60Q1021.66 319.76 1021.66 321.36L1021.66 321.36Q1021.66 323.12 1020.50 324.36Q1019.34 325.60 1017.58 325.60ZM1052.78 338.96L1052.94 338.96Q1055.34 336.72 1058.54 335.36Q1061.74 334 1064.38 334L1064.38 334Q1070.30 334 1073.98 337.48Q1077.66 340.96 1077.66 349.36L1077.66 349.36L1077.66 360.56Q1077.66 363.60 1077.90 365.12Q1078.14 366.64 1078.54 367.12Q1078.94 367.60 1079.34 367.60L1079.34 367.60L1083.26 367.60Q1083.58 367.60 1083.74 368.08Q1083.90 368.56 1083.90 368.96L1083.90 368.96Q1083.90 369.28 1083.78 369.64Q1083.66 370 1083.42 370L1083.42 370Q1081.26 370 1079.98 369.96Q1078.70 369.92 1077.54 369.92Q1076.38 369.92 1074.70 369.92L1074.70 369.92Q1071.26 369.92 1069.50 370.04Q1067.74 370.16 1065.42 370.16L1065.42 370.16Q1065.18 370.16 1065.02 369.72Q1064.86 369.28 1064.86 368.96L1064.86 368.96Q1064.86 368.56 1064.98 368.16Q1065.10 367.76 1065.26 367.76L1065.26 367.76L1069.90 367.76Q1070.86 367.76 1070.86 366.40L1070.86 366.40L1070.86 352.88Q1070.86 347.44 1069.94 344.28Q1069.02 341.12 1066.82 339.76Q1064.62 338.40 1060.78 338.40L1060.78 338.40Q1058.38 338.40 1056.30 339.32Q1054.22 340.24 1053.02 341.60L1053.02 341.60L1053.02 360.56Q1053.02 363.60 1053.26 365.12Q1053.50 366.64 1053.90 367.12Q1054.30 367.60 1054.70 367.60L1054.70 367.60L1058.62 367.60Q1058.94 367.60 1059.10 368.08Q1059.26 368.56 1059.26 368.96L1059.26 368.96Q1059.26 369.28 1059.14 369.64Q1059.02 370 1058.78 370L1058.78 370Q1056.62 370 1055.30 369.96Q1053.98 369.92 1052.86 369.92Q1051.74 369.92 1050.06 369.92L1050.06 369.92Q1046.62 369.92 1044.86 370.04Q1043.10 370.16 1040.78 370.16L1040.78 370.16Q1040.54 370.16 1040.38 369.72Q1040.22 369.28 1040.22 368.96L1040.22 368.96Q1040.22 368.56 1040.34 368.16Q1040.46 367.76 1040.62 367.76L1040.62 367.76L1045.26 367.76Q1046.22 367.76 1046.22 366.40L1046.22 366.40L1046.22 347.60Q1046.22 344.16 1045.90 342.52Q1045.58 340.88 1045.06 340.36Q1044.54 339.84 1043.98 339.84L1043.98 339.84L1042.38 339.84Q1042.14 339.84 1041.94 339.40Q1041.74 338.96 1041.74 338.56L1041.74 338.56Q1041.74 338.32 1041.82 337.88Q1041.90 337.44 1042.22 337.44L1042.22 337.44Q1044.06 337.44 1045.66 336.60Q1047.26 335.76 1048.50 334.60Q1049.74 333.44 1050.62 332.60Q1051.50 331.76 1051.82 331.76L1051.82 331.76Q1052.94 331.76 1052.94 332.72L1052.94 332.72Q1052.94 334.16 1052.90 335.08Q1052.86 336 1052.82 336.80Q1052.78 337.60 1052.78 338.96L1052.78 338.96ZM1112.06 334L1112.06 334Q1115.02 334 1117.74 335.24Q1120.46 336.48 1122.46 338.64L1122.46 338.64Q1124.30 336.48 1126.22 335.40Q1128.14 334.32 1129.74 334.32L1129.74 334.32Q1131.82 334.32 1132.94 335.40Q1134.06 336.48 1134.06 337.84L1134.06 337.84Q1134.06 338.80 1133.50 339.76Q1132.94 340.72 1131.82 341.36L1131.82 341.36Q1130.62 340.40 1129.42 339.68Q1128.22 338.96 1126.62 338.96L1126.62 338.96Q1125.90 338.96 1125.06 339.40Q1124.22 339.84 1124.22 340.56L1124.22 340.56Q1124.22 341.28 1125.06 342.76Q1125.90 344.24 1125.90 347.28L1125.90 347.28Q1125.90 351.84 1123.94 354.68Q1121.98 357.52 1118.74 358.84Q1115.50 360.16 1111.66 360.24L1111.66 360.24Q1108.54 360.24 1106.62 361.04Q1104.70 361.84 1103.86 362.84Q1103.02 363.84 1103.02 364.56L1103.02 364.56Q1103.02 365.60 1104.10 366.16Q1105.18 366.72 1106.82 366.92Q1108.46 367.12 1110.14 367.12L1110.14 367.12Q1113.02 367.12 1115.06 366.92Q1117.10 366.72 1119.58 366.72L1119.58 366.72Q1123.10 366.72 1126.14 367.64Q1129.18 368.56 1131.06 370.52Q1132.94 372.48 1132.94 375.68L1132.94 375.68Q1132.94 378.96 1130.86 381.96Q1128.78 384.96 1125.34 387.32Q1121.90 389.68 1117.74 391.04Q1113.58 392.40 1109.34 392.40L1109.34 392.40Q1105.66 392.40 1102.66 391.64Q1099.66 390.88 1097.94 389.16Q1096.22 387.44 1096.22 384.48L1096.22 384.48Q1096.22 382.32 1097.62 380.04Q1099.02 377.76 1101.34 375.88Q1103.66 374 1106.46 373.04L1106.46 373.04L1106.46 372.80Q1104.54 372.56 1102.58 371.92Q1100.62 371.28 1099.34 370.04Q1098.06 368.80 1098.06 366.88L1098.06 366.88Q1098.06 365.84 1098.78 364.28Q1099.50 362.72 1101.22 361.32Q1102.94 359.92 1105.74 359.28L1105.74 359.28L1105.74 359.12Q1102.06 357.76 1099.78 354.56Q1097.50 351.36 1097.50 347.44L1097.50 347.44Q1097.50 343.20 1099.58 340.20Q1101.66 337.20 1104.98 335.60Q1108.30 334 1112.06 334ZM1111.50 357.60L1111.50 357.60Q1114.46 357.60 1116.10 356.12Q1117.74 354.64 1118.42 352.28Q1119.10 349.92 1119.10 347.28L1119.10 347.28Q1119.10 344.88 1118.46 342.40Q1117.82 339.92 1116.22 338.28Q1114.62 336.64 1111.66 336.64L1111.66 336.64Q1108.70 336.64 1107.10 338.24Q1105.50 339.84 1104.90 342.28Q1104.30 344.72 1104.30 347.28L1104.30 347.28Q1104.30 349.68 1104.94 352.04Q1105.58 354.40 1107.14 356Q1108.70 357.60 1111.50 357.60ZM1117.74 372.64L1117.74 372.64Q1115.58 372.64 1114.10 372.80Q1112.62 372.96 1110.46 373.04L1110.46 373.04Q1107.10 374.24 1104.62 376.96Q1102.14 379.68 1102.14 382.96L1102.14 382.96Q1102.14 386.32 1104.58 387.96Q1107.02 389.60 1111.18 389.60L1111.18 389.60Q1113.58 389.60 1116.38 388.76Q1119.18 387.92 1121.70 386.40Q1124.22 384.88 1125.86 382.76Q1127.50 380.64 1127.50 378.08L1127.50 378.08Q1127.50 376.08 1126.06 374.88Q1124.62 373.68 1122.38 373.16Q1120.14 372.64 1117.74 372.64ZM1231.50 337.84L1228.06 337.84Q1227.18 337.84 1226.66 338.60Q1226.14 339.36 1225.82 340L1225.82 340Q1224.78 342.08 1222.82 345.12Q1220.86 348.16 1218.14 351.56Q1215.42 354.96 1212.06 358.16L1212.06 358.16Q1216.38 361.76 1220.26 363.92Q1224.14 366.08 1227.10 366.08L1227.10 366.08Q1229.26 366.08 1230.34 365.28Q1231.42 364.48 1232.10 363.72Q1232.78 362.96 1233.50 362.96L1233.50 362.96Q1234.54 362.96 1234.54 363.92L1234.54 363.92Q1234.54 364.72 1233.06 366.44Q1231.58 368.16 1228.94 369.60Q1226.30 371.04 1222.94 371.04L1222.94 371.04Q1219.26 371.04 1214.90 368.76Q1210.54 366.48 1206.14 362.80L1206.14 362.80Q1201.50 366.32 1196.34 368.68Q1191.18 371.04 1185.98 371.04L1185.98 371.04Q1182.94 371.04 1180.06 369.88Q1177.18 368.72 1175.38 366.24Q1173.58 363.76 1173.58 359.84L1173.58 359.84Q1173.58 355.36 1175.66 352Q1177.74 348.64 1180.98 345.88Q1184.22 343.12 1187.66 340.64L1187.66 340.64Q1185.58 336.96 1184.38 333.64Q1183.18 330.32 1183.18 327.76L1183.18 327.76Q1183.18 323.76 1185.18 321.20Q1187.18 318.64 1190.10 317.44Q1193.02 316.24 1195.74 316.24L1195.74 316.24Q1200.62 316.24 1203.46 318.88Q1206.30 321.52 1206.30 325.28L1206.30 325.28Q1206.30 328.16 1204.62 330.64Q1202.94 333.12 1200.38 335.24Q1197.82 337.36 1195.02 339.36L1195.02 339.36Q1197.82 343.68 1201.66 347.96Q1205.50 352.24 1209.58 356L1209.58 356Q1213.82 351.76 1216.14 347.52Q1218.46 343.28 1218.46 340.80L1218.46 340.80Q1218.46 339.76 1218.06 338.84Q1217.66 337.92 1216.86 337.92L1216.86 337.92L1213.58 337.92Q1213.26 337.92 1213.10 337.56Q1212.94 337.20 1212.94 336.80L1212.94 336.80Q1212.94 336.32 1213.10 335.92Q1213.26 335.52 1213.58 335.52L1213.58 335.52Q1216.14 335.52 1218.10 335.60Q1220.06 335.68 1222.14 335.68L1222.14 335.68Q1224.62 335.68 1227.18 335.56Q1229.74 335.44 1231.50 335.44L1231.50 335.44Q1231.90 335.44 1232.06 335.88Q1232.22 336.32 1232.22 336.80L1232.22 336.80Q1232.22 337.84 1231.50 337.84L1231.50 337.84ZM1189.50 325.68L1189.50 325.68Q1189.50 327.92 1190.58 330.76Q1191.66 333.60 1193.42 336.64L1193.42 336.64Q1196.30 334.16 1198.14 331.24Q1199.98 328.32 1199.98 324.72L1199.98 324.72Q1199.98 322.08 1198.82 320.60Q1197.66 319.12 1194.94 319.12L1194.94 319.12Q1192.78 319.12 1191.14 320.76Q1189.50 322.40 1189.50 325.68ZM1190.94 365.04L1190.94 365.04Q1194.22 365.04 1197.46 363.80Q1200.70 362.56 1203.66 360.56L1203.66 360.56Q1199.50 356.80 1195.74 352.24Q1191.98 347.68 1189.18 343.20L1189.18 343.20Q1185.74 345.84 1183.26 348.88Q1180.78 351.92 1180.78 355.92L1180.78 355.92Q1180.78 359.12 1182.26 361.16Q1183.74 363.20 1186.06 364.12Q1188.38 365.04 1190.94 365.04ZM1293.18 343.52L1293.18 360.32Q1293.18 363.36 1293.46 364.88Q1293.74 366.40 1294.14 366.88Q1294.54 367.36 1294.86 367.36L1294.86 367.36L1299.50 367.36Q1299.90 367.36 1300.10 367.84Q1300.30 368.32 1300.30 368.88L1300.30 368.88Q1300.30 370 1299.50 370L1299.50 370L1296.06 370Q1295.26 370 1294.38 369.96Q1293.50 369.92 1292.62 369.92L1292.62 369.92L1289.42 369.92Q1286.06 369.92 1284.06 369.96Q1282.06 370 1280.78 370.08Q1279.50 370.16 1278.22 370.16L1278.22 370.16Q1277.90 370.16 1277.74 369.76Q1277.58 369.36 1277.58 368.88L1277.58 368.88Q1277.58 368.32 1277.74 367.88Q1277.90 367.44 1278.22 367.44L1278.22 367.44L1281.66 367.44Q1283.74 367.44 1284.34 366.64Q1284.94 365.84 1284.94 363.76L1284.94 363.76L1284.94 325.84Q1284.94 322.72 1284.66 321.24Q1284.38 319.76 1284.02 319.28Q1283.66 318.80 1283.26 318.80L1283.26 318.80L1278.62 318.80Q1277.98 318.80 1277.98 317.28L1277.98 317.28Q1277.98 316.88 1278.10 316.52Q1278.22 316.16 1278.62 316.16L1278.62 316.16Q1281.90 316.16 1284.42 316.24Q1286.94 316.32 1288.70 316.32L1288.70 316.32L1297.90 316.32Q1305.42 316.32 1310.06 318.32Q1314.70 320.32 1316.90 323.56Q1319.10 326.80 1319.10 330.40L1319.10 330.40Q1319.10 334.08 1316.98 337.52Q1314.86 340.96 1310.98 343.20Q1307.10 345.44 1301.74 345.44L1301.74 345.44Q1299.82 345.44 1297.66 345Q1295.50 344.56 1293.18 343.52L1293.18 343.52ZM1310.46 331.04L1310.46 331.04Q1310.46 328.16 1308.94 325.52Q1307.42 322.88 1304.22 321.20Q1301.02 319.52 1296.06 319.52L1296.06 319.52Q1294.54 319.52 1293.86 320.28Q1293.18 321.04 1293.18 323.20L1293.18 323.20L1293.18 340.96Q1295.34 341.44 1297.42 341.44L1297.42 341.44Q1301.74 341.44 1304.62 339.96Q1307.50 338.48 1308.98 336.12Q1310.46 333.76 1310.46 331.04ZM1344.62 339.92L1344.78 339.92Q1345.74 338.88 1347.50 337.52Q1349.26 336.16 1351.50 335.08Q1353.74 334 1355.98 334L1355.98 334Q1358.06 334 1359.06 335Q1360.06 336 1360.06 337.36L1360.06 337.36Q1360.06 338.64 1359.14 340Q1358.22 341.36 1356.46 342.16L1356.46 342.16Q1355.10 340.96 1353.62 340.24Q1352.14 339.52 1350.70 339.52L1350.70 339.52Q1348.86 339.52 1347.34 340.44Q1345.82 341.36 1344.86 342.64L1344.86 342.64L1344.86 360.56Q1344.86 363.60 1345.10 365.12Q1345.34 366.64 1345.74 367.12Q1346.14 367.60 1346.54 367.60L1346.54 367.60L1350.46 367.60Q1350.78 367.60 1350.94 368.08Q1351.10 368.56 1351.10 368.96L1351.10 368.96Q1351.10 369.28 1350.98 369.64Q1350.86 370 1350.62 370L1350.62 370Q1348.46 370 1347.14 369.96Q1345.82 369.92 1344.70 369.92Q1343.58 369.92 1341.90 369.92L1341.90 369.92Q1338.46 369.92 1336.70 370.04Q1334.94 370.16 1332.62 370.16L1332.62 370.16Q1332.38 370.16 1332.22 369.72Q1332.06 369.28 1332.06 368.96L1332.06 368.96Q1332.06 368.56 1332.18 368.16Q1332.30 367.76 1332.46 367.76L1332.46 367.76L1337.10 367.76Q1338.06 367.76 1338.06 366.40L1338.06 366.40L1338.06 347.60Q1338.06 344.16 1337.74 342.52Q1337.42 340.88 1336.90 340.36Q1336.38 339.84 1335.82 339.84L1335.82 339.84L1334.22 339.84Q1333.98 339.84 1333.78 339.40Q1333.58 338.96 1333.58 338.56L1333.58 338.56Q1333.58 338.32 1333.66 337.88Q1333.74 337.44 1334.06 337.44L1334.06 337.44Q1335.90 337.44 1337.50 336.60Q1339.10 335.76 1340.34 334.60Q1341.58 333.44 1342.46 332.60Q1343.34 331.76 1343.66 331.76L1343.66 331.76Q1344.78 331.76 1344.78 332.72L1344.78 332.72Q1344.78 334.96 1344.70 336.44Q1344.62 337.92 1344.62 339.92L1344.62 339.92ZM1390.46 334L1390.46 334Q1394.22 334 1397.66 335.40Q1401.10 336.80 1403.82 339.32Q1406.54 341.84 1408.14 345.20Q1409.74 348.56 1409.74 352.40L1409.74 352.40Q1409.74 357.76 1407.10 362Q1404.46 366.24 1400.10 368.64Q1395.74 371.04 1390.46 371.04L1390.46 371.04Q1385.26 371.04 1380.90 368.48Q1376.54 365.92 1373.90 361.64Q1371.26 357.36 1371.26 352.08L1371.26 352.08Q1371.26 348.24 1372.86 344.96Q1374.46 341.68 1377.18 339.20Q1379.90 336.72 1383.34 335.36Q1386.78 334 1390.46 334ZM1390.14 336.88L1390.14 336.88Q1387.18 336.88 1385.10 338.28Q1383.02 339.68 1381.74 342Q1380.46 344.32 1379.86 347.04Q1379.26 349.76 1379.26 352.40L1379.26 352.40Q1379.26 356.16 1380.38 359.80Q1381.50 363.44 1384.06 365.80Q1386.62 368.16 1390.86 368.16L1390.86 368.16Q1394.86 368.16 1397.22 365.84Q1399.58 363.52 1400.66 359.96Q1401.74 356.40 1401.74 352.88L1401.74 352.88Q1401.74 349.04 1400.66 345.36Q1399.58 341.68 1397.02 339.28Q1394.46 336.88 1390.14 336.88ZM1437.66 346.24L1437.66 366.64Q1437.66 369.20 1437.22 372.56Q1436.78 375.92 1435.66 379.40Q1434.54 382.88 1432.54 385.84Q1430.54 388.80 1427.46 390.64Q1424.38 392.48 1419.98 392.48L1419.98 392.48Q1416.62 392.48 1414.90 391.08Q1413.18 389.68 1413.18 388.08L1413.18 388.08Q1413.18 386.96 1414.06 385.88Q1414.94 384.80 1416.70 384.24L1416.70 384.24Q1417.66 385.76 1419.26 387.32Q1420.86 388.88 1423.34 388.88L1423.34 388.88Q1426.14 388.88 1427.66 387.04Q1429.18 385.20 1429.86 382.40Q1430.54 379.60 1430.70 376.56Q1430.86 373.52 1430.86 371.20L1430.86 371.20L1430.86 347.60Q1430.86 344.16 1430.54 342.52Q1430.22 340.88 1429.70 340.36Q1429.18 339.84 1428.62 339.84L1428.62 339.84L1427.02 339.84Q1426.78 339.84 1426.58 339.40Q1426.38 338.96 1426.38 338.56L1426.38 338.56Q1426.38 338.32 1426.46 337.88Q1426.54 337.44 1426.86 337.44L1426.86 337.44Q1428.78 337.44 1430.38 336.60Q1431.98 335.76 1433.26 334.60Q1434.54 333.44 1435.42 332.60Q1436.30 331.76 1436.78 331.76L1436.78 331.76Q1437.98 331.76 1437.98 332.72L1437.98 332.72Q1437.98 333.84 1437.94 334.76Q1437.90 335.68 1437.82 337Q1437.74 338.32 1437.70 340.48Q1437.66 342.64 1437.66 346.24L1437.66 346.24ZM1433.26 325.60L1433.26 325.60Q1431.50 325.60 1430.34 324.36Q1429.18 323.12 1429.18 321.36L1429.18 321.36Q1429.18 319.68 1430.42 318.56Q1431.66 317.44 1433.26 317.44L1433.26 317.44Q1434.86 317.44 1436.10 318.60Q1437.34 319.76 1437.34 321.36L1437.34 321.36Q1437.34 323.12 1436.18 324.36Q1435.02 325.60 1433.26 325.60ZM1483.34 350L1483.34 350Q1479.18 350.32 1473.34 350.24Q1467.50 350.16 1459.82 350.64L1459.82 350.64Q1459.82 354.40 1461.18 357Q1462.54 359.60 1464.70 361.20Q1466.86 362.80 1469.38 363.52Q1471.90 364.24 1474.22 364.24L1474.22 364.24Q1477.50 364.24 1479.54 363.60Q1481.58 362.96 1482.74 362.16Q1483.90 361.36 1484.54 360.72Q1485.18 360.08 1485.74 360.08L1485.74 360.08Q1486.62 360.08 1486.62 361.04L1486.62 361.04Q1486.62 361.52 1485.86 363.12Q1485.10 364.72 1483.46 366.56Q1481.82 368.40 1479.02 369.72Q1476.22 371.04 1472.14 371.04L1472.14 371.04Q1467.34 371.04 1463.58 368.52Q1459.82 366 1457.66 362Q1455.50 358 1455.50 353.60L1455.50 353.60Q1455.50 349.04 1457.14 345.40Q1458.78 341.76 1461.46 339.24Q1464.14 336.72 1467.34 335.40Q1470.54 334.08 1473.74 334.08L1473.74 334.08Q1477.18 334.08 1479.94 335.76Q1482.70 337.44 1484.38 340.44Q1486.06 343.44 1486.06 347.60L1486.06 347.60Q1486.06 348.88 1485.50 349.36Q1484.94 349.84 1483.34 350ZM1471.58 338.40L1471.58 338.40Q1469.18 338.40 1466.74 339.48Q1464.30 340.56 1462.50 342.72Q1460.70 344.88 1460.06 348.16L1460.06 348.16Q1462.86 347.84 1466.06 347.60Q1469.26 347.36 1472.14 347.12Q1475.02 346.88 1476.62 346.64L1476.62 346.64Q1478.06 346.48 1478.66 346.16Q1479.26 345.84 1479.26 345.12L1479.26 345.12Q1479.26 342.40 1477.06 340.40Q1474.86 338.40 1471.58 338.40ZM1521.82 334L1521.82 334Q1525.74 334 1528.14 335.56Q1530.54 337.12 1530.54 339.12L1530.54 339.12Q1530.54 340.16 1529.86 341.16Q1529.18 342.16 1527.50 342.88L1527.50 342.88Q1524.86 340.32 1522.50 339.12Q1520.14 337.92 1517.42 337.92L1517.42 337.92Q1513.50 337.92 1510.50 341.20Q1507.50 344.48 1507.50 350.72L1507.50 350.72Q1507.50 355.84 1509.42 359.04Q1511.34 362.24 1514.30 363.76Q1517.26 365.28 1520.30 365.28L1520.30 365.28Q1523.82 365.28 1525.98 364.40Q1528.14 363.52 1529.38 362.68Q1530.62 361.84 1531.10 361.84L1531.10 361.84Q1532.06 361.84 1532.06 362.88L1532.06 362.88Q1532.06 363.44 1531.02 364.76Q1529.98 366.08 1528.06 367.52Q1526.14 368.96 1523.54 370Q1520.94 371.04 1517.82 371.04L1517.82 371.04Q1512.30 371.04 1508.50 368.68Q1504.70 366.32 1502.74 362.64Q1500.78 358.96 1500.78 354.96L1500.78 354.96Q1500.78 350.48 1502.54 346.68Q1504.30 342.88 1507.26 340.04Q1510.22 337.20 1513.98 335.60Q1517.74 334 1521.82 334ZM1549.42 360.40L1549.42 338.08L1545.34 338.08Q1545.02 338.08 1544.78 337.64Q1544.54 337.20 1544.54 336.88L1544.54 336.88Q1544.54 336.56 1544.70 336.16Q1544.86 335.76 1545.18 335.68L1545.18 335.68Q1549.18 334.88 1551.34 331.80Q1553.50 328.72 1554.86 324.80L1554.86 324.80Q1555.02 324.40 1555.34 324.32Q1555.66 324.24 1555.90 324.24L1555.90 324.24Q1556.70 324.24 1556.70 325.28L1556.70 325.28Q1556.70 327.04 1556.46 329.16Q1556.22 331.28 1556.22 335.04L1556.22 335.04L1566.14 335.04Q1566.54 335.04 1566.74 335.60Q1566.94 336.16 1566.94 336.72L1566.94 336.72Q1566.94 337.12 1566.82 337.60Q1566.70 338.08 1566.30 338.08L1566.30 338.08L1556.22 338.08L1556.22 358.64Q1556.22 362.48 1557.54 364.36Q1558.86 366.24 1562.14 366.24L1562.14 366.24Q1563.90 366.24 1564.90 365.44Q1565.90 364.64 1566.50 363.88Q1567.10 363.12 1567.50 363.12L1567.50 363.12Q1568.30 363.12 1568.30 363.84L1568.30 363.84Q1568.30 365.04 1567.14 366.80Q1565.98 368.56 1563.82 369.92Q1561.66 371.28 1558.62 371.28L1558.62 371.28Q1554.38 371.28 1551.90 368.52Q1549.42 365.76 1549.42 360.40L1549.42 360.40ZM1600.22 334.80L1600.22 334.80Q1599.82 333.44 1600.06 333.20Q1600.30 332.96 1600.78 332.96L1600.78 332.96Q1601.42 332.96 1601.70 333.12Q1601.98 333.28 1602.22 334.16L1602.22 334.16Q1602.62 335.44 1602.74 336.44Q1602.86 337.44 1603.10 338.40L1603.10 338.40Q1603.34 339.44 1603.54 340.28Q1603.74 341.12 1604.06 342.88L1604.06 342.88Q1604.22 343.60 1603.02 343.60L1603.02 343.60Q1602.70 343.60 1602.38 343.48Q1602.06 343.36 1601.90 342.96L1601.90 342.96Q1600.86 340.08 1598.94 338.32Q1597.02 336.56 1594.30 336.56L1594.30 336.56Q1591.74 336.56 1590.22 338.08Q1588.70 339.60 1588.70 341.92L1588.70 341.92Q1588.70 344.32 1590.38 345.84Q1592.06 347.36 1594.50 348.60Q1596.94 349.84 1599.38 351.32Q1601.82 352.80 1603.50 355.04Q1605.18 357.28 1605.18 360.96L1605.18 360.96Q1605.18 364.32 1603.22 366.56Q1601.26 368.80 1598.18 369.92Q1595.10 371.04 1591.82 371.04L1591.82 371.04Q1587.66 371.04 1586.14 370.36Q1584.62 369.68 1584.62 369.68L1584.62 369.68Q1584.62 370.56 1584.50 370.80Q1584.38 371.04 1583.66 371.20L1583.66 371.20Q1583.34 371.28 1583.02 371.20Q1582.70 371.12 1582.62 370.56L1582.62 370.56Q1582.30 367.76 1581.86 365.48Q1581.42 363.20 1581.02 359.92L1581.02 359.92Q1580.94 359.28 1581.94 359.04Q1582.94 358.80 1583.10 359.44L1583.10 359.44Q1584.22 363.04 1586.50 365.76Q1588.78 368.48 1592.70 368.48L1592.70 368.48Q1595.10 368.48 1597.10 367.08Q1599.10 365.68 1599.10 362.88L1599.10 362.88Q1599.10 360.24 1597.46 358.52Q1595.82 356.80 1593.38 355.48Q1590.94 354.16 1588.50 352.76Q1586.06 351.36 1584.42 349.32Q1582.78 347.28 1582.78 344.08L1582.78 344.08Q1582.78 340.80 1584.46 338.56Q1586.14 336.32 1588.90 335.16Q1591.66 334 1595.02 334L1595.02 334Q1596.46 334 1597.82 334.20Q1599.18 334.40 1600.22 334.80Z" fill="currentColor" stroke="currentColor" stroke-width="1" stroke-linejoin="round"/>
</svg>
