<svg xmlns="http://www.w3.org/2000/svg" viewBox="0 0 1845 419">
  <path d="M73.63 211.94L73.63 117.56Q73.63 108.98 72.86 104.91Q72.09 100.84 71.10 99.52Q70.11 98.20 69.01 98.20L69.01 98.20L56.25 98.20Q54.49 98.20 54.49 94.02L54.49 94.02Q54.49 92.92 54.82 91.93Q55.15 90.94 56.25 90.94L56.25 90.94Q63.29 90.94 70.33 91.05Q77.37 91.16 83.97 91.16L83.97 91.16Q93.43 91.16 98.82 91.05Q104.21 90.94 107.73 90.72Q111.25 90.50 114.77 90.50L114.77 90.50Q115.87 90.50 116.20 91.60Q116.53 92.70 116.53 94.02L116.53 94.02Q116.53 95.56 116.09 96.77Q115.65 97.98 114.77 97.98L114.77 97.98L105.31 97.98Q99.81 97.98 98.05 100.18Q96.29 102.38 96.29 108.10L96.29 108.10L96.29 209.96Q96.29 225.58 95.19 238.78Q94.09 251.98 90.35 261.22L90.35 261.22Q85.95 271.78 78.14 280.36Q70.33 288.94 59.99 294Q49.65 299.06 37.33 299.06L37.33 299.06Q35.79 299.06 33.04 298.51Q30.29 297.96 27.98 296.20Q25.67 294.44 25.67 291.14L25.67 291.14Q25.67 282.78 35.35 279.04L35.35 279.04Q40.19 281.90 46.35 283.33Q52.51 284.76 56.47 284.76L56.47 284.76Q60.65 284.76 63.07 282.78Q65.49 280.80 67.03 277.94L67.03 277.94Q69.23 273.32 70.55 264.52Q71.87 255.72 72.53 245.60Q73.19 235.48 73.41 226.35Q73.63 217.22 73.63 211.94L73.63 211.94ZM222.35 88.52L222.35 88.52Q238.85 88.52 253.37 94.46Q267.89 100.40 278.89 110.96Q289.89 121.52 296.16 135.38Q302.43 149.24 302.43 165.08L302.43 165.08Q302.43 181.14 296.16 195Q289.89 208.86 278.89 219.42Q267.89 229.98 253.37 235.92Q238.85 241.86 222.35 241.86L222.35 241.86Q205.85 241.86 191.33 235.92Q176.81 229.98 165.81 219.42Q154.81 208.86 148.54 195Q142.27 181.14 142.27 165.08L142.27 165.08Q142.27 149.24 148.54 135.38Q154.81 121.52 165.81 110.96Q176.81 100.40 191.33 94.46Q205.85 88.52 222.35 88.52ZM222.35 98.64L222.35 98.64Q206.73 98.64 194.96 107.55Q183.19 116.46 176.59 131.53Q169.99 146.60 169.99 165.08L169.99 165.08Q169.99 183.56 176.59 198.74Q183.19 213.92 194.96 222.83Q206.73 231.74 222.35 231.74L222.35 231.74Q237.97 231.74 249.74 222.83Q261.51 213.92 268.11 198.74Q274.71 183.56 274.71 165.08L274.71 165.08Q274.71 146.60 268.11 131.53Q261.51 116.46 249.74 107.55Q237.97 98.64 222.35 98.64ZM431.79 201.38L431.79 201.38Q431.79 213.48 424.42 222.61Q417.05 231.74 405.06 236.80Q393.07 241.86 379.21 241.86L379.21 241.86Q369.75 241.86 361.50 239.66Q353.25 237.46 348.19 235.26L348.19 235.26L349.95 239.66Q350.61 241.20 348.85 242.30Q347.09 243.40 345.11 243.40L345.11 243.40Q343.35 243.40 342.69 242.30L342.69 242.30Q340.93 237.46 339.06 230.31Q337.19 223.16 335.87 215.35Q334.55 207.54 334.11 200.94L334.11 200.94Q334.11 199.84 335.21 199.29Q336.31 198.74 337.85 198.74L337.85 198.74Q338.95 198.74 340.05 199.07Q341.15 199.40 341.37 200.28L341.37 200.28Q342.69 204.46 345.66 210.07Q348.63 215.68 353.47 221.07Q358.31 226.46 365.24 229.98Q372.17 233.50 380.97 233.50L380.97 233.50Q394.61 233.50 401.65 226.13Q408.69 218.76 408.69 209.96L408.69 209.96Q408.69 199.40 403.85 192.14Q399.01 184.88 391.20 179.60Q383.39 174.32 374.81 169.48Q366.23 164.64 358.42 159.14Q350.61 153.64 345.77 145.83Q340.93 138.02 340.93 126.80L340.93 126.80Q340.93 116.24 347.42 107.55Q353.91 98.86 365.35 93.69Q376.79 88.52 391.53 88.52L391.53 88.52Q400.55 88.52 406.60 90.17Q412.65 91.82 412.65 91.82L412.65 91.82Q412.43 91.16 412.10 89.18Q411.77 87.20 411.77 86.76L411.77 86.76Q411.55 85.66 412.65 85.11Q413.75 84.56 415.07 84.56L415.07 84.56Q417.71 84.56 418.37 86.32L418.37 86.32Q421.01 95.56 422.55 105.02Q424.09 114.48 424.31 121.30L424.31 121.30Q424.09 121.96 422.66 122.29Q421.23 122.62 419.69 122.62L419.69 122.62Q417.71 122.62 417.05 121.96L417.05 121.96Q415.51 116.46 412.65 110.74Q409.79 105.02 404.07 100.95Q398.35 96.88 388.23 96.88L388.23 96.88Q378.11 96.88 372.61 100.51Q367.11 104.14 365.02 109.53Q362.93 114.92 362.93 120.20L362.93 120.20Q362.93 129 367.88 135.16Q372.83 141.32 380.75 146.16Q388.67 151 397.36 155.84Q406.05 160.68 413.97 166.62Q421.89 172.56 426.84 180.92Q431.79 189.28 431.79 201.38ZM507.47 109.64L507.47 161.56Q517.15 161.34 526.17 160.79Q535.19 160.24 541.35 159.58Q547.51 158.92 548.17 158.48L548.17 158.48L550.37 145.50Q550.59 143.96 553.89 143.96L553.89 143.96Q555.21 143.96 556.31 144.40Q557.41 144.84 557.19 145.94L557.19 145.94Q556.53 151 556.31 155.18Q556.09 159.36 556.09 164.42L556.09 164.42Q556.09 169.26 556.31 174.43Q556.53 179.60 557.19 184.66L557.19 184.66Q557.41 185.54 556.09 185.98Q554.77 186.42 553.23 186.42L553.23 186.42Q550.37 186.42 550.37 185.10L550.37 185.10L547.95 171.90Q547.29 171.46 541.35 170.80Q535.41 170.14 526.39 169.48Q517.37 168.82 507.47 168.60L507.47 168.60L507.47 210.84Q507.47 219.20 508.24 223.38Q509.01 227.56 510.11 228.88Q511.21 230.20 512.09 230.20L512.09 230.20L523.31 230.20Q537.61 229.98 550.70 227.56Q563.79 225.14 569.95 220.96L569.95 220.96L571.49 208.86Q571.71 207.98 572.92 207.54Q574.13 207.10 575.67 207.10L575.67 207.10Q578.97 207.10 578.75 208.86L578.75 208.86Q577.65 217 577.21 226.24Q576.77 235.48 576.77 243.84L576.77 243.84Q576.77 245.38 573.47 245.38L573.47 245.38Q572.15 245.38 571.05 245.05Q569.95 244.72 569.95 243.84L569.95 243.84L569.95 239L515.61 239Q501.53 239 492.84 239.11Q484.15 239.22 479.20 239.22Q474.25 239.22 471.50 239.33Q468.75 239.44 466.33 239.44L466.33 239.44Q465.45 239.44 465.01 238.34Q464.57 237.24 464.57 235.92L464.57 235.92Q464.57 234.38 465.01 233.17Q465.45 231.96 466.33 231.96L466.33 231.96L475.79 231.96Q481.51 231.96 483.16 229.76Q484.81 227.56 484.81 221.84L484.81 221.84L484.81 117.56Q484.81 108.98 484.04 104.91Q483.27 100.84 482.28 99.52Q481.29 98.20 480.19 98.20L480.19 98.20L467.43 98.20Q465.67 98.20 465.67 94.02L465.67 94.02Q465.67 92.92 466.00 91.93Q466.33 90.94 467.43 90.94L467.43 90.94Q473.15 90.94 479.97 91.16Q486.79 91.38 495.15 91.38L495.15 91.38L558.95 91.38L558.95 86.76Q558.95 85.66 560.05 85.22Q561.15 84.78 562.25 84.78L562.25 84.78Q563.35 84.78 564.34 85.22Q565.33 85.66 565.33 86.76L565.33 86.76Q565.33 94.90 565.77 104.03Q566.21 113.16 567.53 120.20L567.53 120.20Q567.97 121.08 566.87 121.52Q565.77 121.96 564.45 121.96L564.45 121.96Q563.13 121.96 561.92 121.52Q560.71 121.08 560.49 120.20L560.49 120.20Q559.39 115.58 557.63 110.74Q555.87 105.90 552.13 104.14L552.13 104.14Q546.41 101.94 537.72 100.84Q529.03 99.74 514.73 99.52L514.73 99.52Q510.33 99.74 508.90 102.05Q507.47 104.36 507.47 109.64L507.47 109.64ZM653.55 166.18L653.55 212.38Q653.55 220.74 654.32 224.92Q655.09 229.10 656.19 230.42Q657.29 231.74 658.17 231.74L658.17 231.74L670.93 231.74Q672.03 231.74 672.58 233.06Q673.13 234.38 673.13 235.92L673.13 235.92Q673.13 239 670.93 239L670.93 239L661.47 239Q659.27 239 656.85 238.89Q654.43 238.78 652.01 238.78L652.01 238.78L643.21 238.78Q633.97 238.78 628.47 238.89Q622.97 239 619.45 239.22Q615.93 239.44 612.41 239.44L612.41 239.44Q611.53 239.44 611.09 238.34Q610.65 237.24 610.65 235.92L610.65 235.92Q610.65 234.38 611.09 233.17Q611.53 231.96 612.41 231.96L612.41 231.96L621.87 231.96Q627.59 231.96 629.24 229.76Q630.89 227.56 630.89 221.84L630.89 221.84L630.89 117.56Q630.89 108.98 630.12 104.91Q629.35 100.84 628.36 99.52Q627.37 98.20 626.27 98.20L626.27 98.20L613.51 98.20Q611.75 98.20 611.75 94.02L611.75 94.02Q611.75 92.92 612.08 91.93Q612.41 90.94 613.51 90.94L613.51 90.94Q622.53 90.94 629.46 91.16Q636.39 91.38 641.23 91.38L641.23 91.38L666.53 91.38Q687.21 91.38 699.97 96.88Q712.73 102.38 718.78 111.29Q724.83 120.20 724.83 130.10L724.83 130.10Q724.83 140.22 719.00 149.68Q713.17 159.14 702.50 165.30Q691.83 171.46 677.09 171.46L677.09 171.46Q671.81 171.46 665.87 170.25Q659.93 169.04 653.55 166.18L653.55 166.18ZM701.07 131.86L701.07 131.86Q701.07 123.94 696.89 116.68Q692.71 109.42 683.91 104.80Q675.11 100.18 661.47 100.18L661.47 100.18Q657.29 100.18 655.42 102.27Q653.55 104.36 653.55 110.30L653.55 110.30L653.55 159.14Q659.49 160.46 665.21 160.46L665.21 160.46Q677.09 160.46 685.01 156.39Q692.93 152.32 697.00 145.83Q701.07 139.34 701.07 131.86ZM933.39 129L933.39 129Q933.39 136.92 929.21 143.63Q925.03 150.34 917.88 155.07Q910.73 159.80 901.71 161.56L901.71 161.56L901.71 162.44Q921.95 165.96 933.17 176.74Q944.39 187.52 944.39 200.50L944.39 200.50Q944.39 210.62 937.02 219.42Q929.65 228.22 915.68 233.61Q901.71 239 881.69 239L881.69 239L860.35 239Q846.27 239 837.25 239.22Q828.23 239.44 822.95 239.44L822.95 239.44Q822.07 239.44 821.63 238.34Q821.19 237.24 821.19 235.92L821.19 235.92Q821.19 234.38 821.63 233.17Q822.07 231.96 822.95 231.96L822.95 231.96L832.41 231.96Q838.13 231.96 839.78 229.76Q841.43 227.56 841.43 221.84L841.43 221.84L841.43 117.78Q841.43 109.20 840.66 105.13Q839.89 101.06 838.90 99.74Q837.91 98.42 836.81 98.42L836.81 98.42L822.95 98.42Q821.19 98.42 821.19 94.24L821.19 94.24Q821.19 93.14 821.52 92.04Q821.85 90.94 822.95 90.94L822.95 90.94Q829.99 90.94 837.58 91.16Q845.17 91.38 851.77 91.38L851.77 91.38L877.07 91.38Q897.31 91.38 909.63 96.77Q921.95 102.16 927.67 110.74Q933.39 119.32 933.39 129ZM864.09 110.30L864.09 157.38Q867.17 157.82 870.03 158.04Q872.89 158.26 875.75 158.26L875.75 158.26Q887.19 158.26 894.67 154.41Q902.15 150.56 905.89 144.18Q909.63 137.80 909.63 130.76L909.63 130.76Q909.63 123.06 905.78 116.13Q901.93 109.20 893.35 104.69Q884.77 100.18 870.47 100.18L870.47 100.18Q867.17 100.18 865.63 102.49Q864.09 104.80 864.09 110.30L864.09 110.30ZM864.09 166.18L864.09 210.84Q864.09 222.94 865.52 226.57Q866.95 230.20 868.93 230.20L868.93 230.20L880.15 230.20Q899.07 230.20 908.42 221.73Q917.77 213.26 917.77 200.50L917.77 200.50Q917.77 193.68 915.57 187.74Q913.37 181.80 907.65 177.18Q901.93 172.56 891.37 169.70Q880.81 166.84 864.09 166.18L864.09 166.18ZM1021.17 109.64L1021.17 161.56Q1030.85 161.34 1039.87 160.79Q1048.89 160.24 1055.05 159.58Q1061.21 158.92 1061.87 158.48L1061.87 158.48L1064.07 145.50Q1064.29 143.96 1067.59 143.96L1067.59 143.96Q1068.91 143.96 1070.01 144.40Q1071.11 144.84 1070.89 145.94L1070.89 145.94Q1070.23 151 1070.01 155.18Q1069.79 159.36 1069.79 164.42L1069.79 164.42Q1069.79 169.26 1070.01 174.43Q1070.23 179.60 1070.89 184.66L1070.89 184.66Q1071.11 185.54 1069.79 185.98Q1068.47 186.42 1066.93 186.42L1066.93 186.42Q1064.07 186.42 1064.07 185.10L1064.07 185.10L1061.65 171.90Q1060.99 171.46 1055.05 170.80Q1049.11 170.14 1040.09 169.48Q1031.07 168.82 1021.17 168.60L1021.17 168.60L1021.17 210.84Q1021.17 219.20 1021.94 223.38Q1022.71 227.56 1023.81 228.88Q1024.91 230.20 1025.79 230.20L1025.79 230.20L1037.01 230.20Q1051.31 229.98 1064.40 227.56Q1077.49 225.14 1083.65 220.96L1083.65 220.96L1085.19 208.86Q1085.41 207.98 1086.62 207.54Q1087.83 207.10 1089.37 207.10L1089.37 207.10Q1092.67 207.10 1092.45 208.86L1092.45 208.86Q1091.35 217 1090.91 226.24Q1090.47 235.48 1090.47 243.84L1090.47 243.84Q1090.47 245.38 1087.17 245.38L1087.17 245.38Q1085.85 245.38 1084.75 245.05Q1083.65 244.72 1083.65 243.84L1083.65 243.84L1083.65 239L1029.31 239Q1015.23 239 1006.54 239.11Q997.85 239.22 992.90 239.22Q987.95 239.22 985.20 239.33Q982.45 239.44 980.03 239.44L980.03 239.44Q979.15 239.44 978.71 238.34Q978.27 237.24 978.27 235.92L978.27 235.92Q978.27 234.38 978.71 233.17Q979.15 231.96 980.03 231.96L980.03 231.96L989.49 231.96Q995.21 231.96 996.86 229.76Q998.51 227.56 998.51 221.84L998.51 221.84L998.51 117.56Q998.51 108.98 997.74 104.91Q996.97 100.84 995.98 99.52Q994.99 98.20 993.89 98.20L993.89 98.20L981.13 98.20Q979.37 98.20 979.37 94.02L979.37 94.02Q979.37 92.92 979.70 91.93Q980.03 90.94 981.13 90.94L981.13 90.94Q986.85 90.94 993.67 91.16Q1000.49 91.38 1008.85 91.38L1008.85 91.38L1072.65 91.38L1072.65 86.76Q1072.65 85.66 1073.75 85.22Q1074.85 84.78 1075.95 84.78L1075.95 84.78Q1077.05 84.78 1078.04 85.22Q1079.03 85.66 1079.03 86.76L1079.03 86.76Q1079.03 94.90 1079.47 104.03Q1079.91 113.16 1081.23 120.20L1081.23 120.20Q1081.67 121.08 1080.57 121.52Q1079.47 121.96 1078.15 121.96L1078.15 121.96Q1076.83 121.96 1075.62 121.52Q1074.41 121.08 1074.19 120.20L1074.19 120.20Q1073.09 115.58 1071.33 110.74Q1069.57 105.90 1065.83 104.14L1065.83 104.14Q1060.11 101.94 1051.42 100.84Q1042.73 99.74 1028.43 99.52L1028.43 99.52Q1024.03 99.74 1022.60 102.05Q1021.17 104.36 1021.17 109.64L1021.17 109.64ZM1200.25 166.62L1200.25 166.62Q1197.17 167.06 1194.75 167.28L1194.75 167.28Q1203.77 170.58 1209.93 177.84Q1216.09 185.10 1220.49 193.79Q1224.89 202.48 1228.85 210.62Q1232.81 218.76 1237.54 224.04Q1242.27 229.32 1249.31 229.32L1249.31 229.32Q1252.83 229.32 1255.14 227.56Q1257.45 225.80 1259.65 223.60L1259.65 223.60Q1260.97 222.50 1262.62 223.93Q1264.27 225.36 1263.39 226.46L1263.39 226.46Q1259.87 231.30 1253.82 236.58Q1247.77 241.86 1239.41 241.86L1239.41 241.86Q1231.05 241.86 1224.78 237.35Q1218.51 232.84 1213.45 225.58Q1208.39 218.32 1204.10 209.74Q1199.81 201.16 1195.52 192.91Q1191.23 184.66 1186.39 178.17Q1181.55 171.68 1175.17 168.60L1175.17 168.60Q1175.17 168.38 1174.95 168.38L1174.95 168.38Q1172.97 168.16 1170.99 167.83Q1169.01 167.50 1167.25 167.28L1167.25 167.28L1167.25 212.38Q1167.25 220.74 1168.02 224.92Q1168.79 229.10 1169.89 230.42Q1170.99 231.74 1171.87 231.74L1171.87 231.74L1184.63 231.74Q1186.39 231.74 1186.39 235.92L1186.39 235.92Q1186.39 236.80 1186.06 237.90Q1185.73 239 1184.63 239L1184.63 239Q1177.81 239 1170.66 238.89Q1163.51 238.78 1156.91 238.78L1156.91 238.78Q1147.67 238.78 1142.17 238.89Q1136.67 239 1133.15 239.22Q1129.63 239.44 1126.11 239.44L1126.11 239.44Q1125.23 239.44 1124.79 238.34Q1124.35 237.24 1124.35 235.92L1124.35 235.92Q1124.35 234.38 1124.79 233.17Q1125.23 231.96 1126.11 231.96L1126.11 231.96L1135.57 231.96Q1141.29 231.96 1142.94 229.76Q1144.59 227.56 1144.59 221.84L1144.59 221.84L1144.59 117.56Q1144.59 108.98 1143.82 104.91Q1143.05 100.84 1142.06 99.52Q1141.07 98.20 1139.97 98.20L1139.97 98.20L1127.21 98.20Q1125.45 98.20 1125.45 94.02L1125.45 94.02Q1125.45 92.92 1125.78 91.93Q1126.11 90.94 1127.21 90.94L1127.21 90.94Q1136.23 90.94 1143.16 91.16Q1150.09 91.38 1154.93 91.38L1154.93 91.38L1180.23 91.38Q1200.91 91.38 1213.67 96.77Q1226.43 102.16 1232.48 110.96Q1238.53 119.76 1238.53 129.66L1238.53 129.66Q1238.53 139.34 1233.36 146.82Q1228.19 154.30 1219.50 159.25Q1210.81 164.20 1200.25 166.62ZM1214.77 131.86L1214.77 131.86Q1214.77 124.16 1210.59 116.90Q1206.41 109.64 1197.83 104.91Q1189.25 100.18 1175.83 100.18L1175.83 100.18Q1170.99 100.18 1169.12 102.49Q1167.25 104.80 1167.25 109.20L1167.25 109.20L1167.25 159.14Q1173.19 160.46 1178.91 160.46L1178.91 160.46Q1190.79 160.46 1198.71 156.39Q1206.63 152.32 1210.70 145.83Q1214.77 139.34 1214.77 131.86ZM1415.63 241.64L1415.63 241.64Q1415.63 241.64 1410.79 235.92Q1405.95 230.20 1397.70 220.30Q1389.45 210.40 1378.89 197.86Q1368.33 185.32 1357 171.68Q1345.67 158.04 1334.67 144.84Q1323.67 131.64 1314.43 120.42L1314.43 120.42L1313.55 120.42Q1313.99 152.10 1314.21 176.08Q1314.43 200.06 1314.87 215.68L1314.87 215.68Q1315.09 221.40 1316.19 226.57Q1317.29 231.74 1319.49 231.74L1319.49 231.74L1331.59 231.74Q1332.69 231.74 1333.13 232.95Q1333.57 234.16 1333.57 235.70L1333.57 235.70Q1333.57 239 1331.59 239L1331.59 239Q1323.45 239 1318.17 238.89Q1312.89 238.78 1308.27 238.78L1308.27 238.78Q1300.79 238.78 1293.75 239.11Q1286.71 239.44 1282.09 239.44L1282.09 239.44Q1281.21 239.44 1280.88 238.23Q1280.55 237.02 1280.55 235.70L1280.55 235.70Q1280.55 234.38 1280.88 233.17Q1281.21 231.96 1282.09 231.96L1282.09 231.96L1289.35 231.96Q1294.19 231.96 1296.50 230.75Q1298.81 229.54 1299.03 226.02L1299.03 226.02Q1300.13 214.80 1300.90 199.84Q1301.67 184.88 1302.22 168.38Q1302.77 151.88 1303.10 136.15Q1303.43 120.42 1303.43 107.66L1303.43 107.66L1301.89 105.90Q1299.25 102.60 1296.94 100.95Q1294.63 99.30 1291.22 98.64Q1287.81 97.98 1281.43 97.98L1281.43 97.98Q1280.77 97.98 1280.44 96.99Q1280.11 96 1280.11 94.90L1280.11 94.90Q1280.11 93.58 1280.44 92.26Q1280.77 90.94 1281.43 90.94L1281.43 90.94Q1284.29 90.94 1289.46 91.05Q1294.63 91.16 1300.68 91.16Q1306.73 91.16 1312.23 91.27Q1317.73 91.38 1321.25 91.38L1321.25 91.38Q1321.25 91.38 1325.54 96.77Q1329.83 102.16 1336.98 111.18Q1344.13 120.20 1353.04 131.31Q1361.95 142.42 1371.19 154.08Q1380.43 165.74 1388.79 176.41Q1397.15 187.08 1403.42 195Q1409.69 202.92 1412.33 206.66L1412.33 206.66L1413.21 206.66Q1412.99 186.20 1412.77 167.50Q1412.55 148.80 1412.11 133.29Q1411.67 117.78 1410.79 107L1410.79 107Q1410.13 98.20 1405.95 98.20L1405.95 98.20L1395.39 98.20Q1394.51 98.20 1393.96 97.21Q1393.41 96.22 1393.41 95.12L1393.41 95.12Q1393.41 93.80 1393.96 92.37Q1394.51 90.94 1395.39 90.94L1395.39 90.94Q1400.23 90.94 1407.05 91.16Q1413.87 91.38 1419.37 91.38L1419.37 91.38Q1425.53 91.38 1432.57 91.05Q1439.61 90.72 1445.33 90.72L1445.33 90.72Q1446.21 90.72 1446.76 92.26Q1447.31 93.80 1447.31 95.12L1447.31 95.12Q1447.31 97.98 1445.33 97.98L1445.33 97.98L1434.99 97.98Q1430.37 97.98 1429.16 100.18Q1427.95 102.38 1427.29 107.88L1427.29 107.88Q1426.63 114.04 1425.97 127.57Q1425.31 141.10 1424.87 159.47Q1424.43 177.84 1424.10 198.96Q1423.77 220.08 1423.77 241.64L1423.77 241.64Q1423.33 243.18 1420.25 243.18L1420.25 243.18Q1417.17 243.18 1415.63 241.64ZM1574.91 225.14L1574.91 225.14Q1570.73 211.72 1566.11 198.30Q1561.49 184.88 1556.87 171.02L1556.87 171.02L1517.05 171.02Q1509.79 194.12 1503.19 217.88L1503.19 217.88Q1502.31 221.40 1501.87 224.04Q1501.43 226.68 1501.43 228.44L1501.43 228.44Q1501.43 231.74 1502.75 231.74L1502.75 231.74L1518.59 231.74Q1519.91 231.74 1520.46 232.95Q1521.01 234.16 1521.01 235.26L1521.01 235.26Q1521.01 236.14 1520.46 237.57Q1519.91 239 1518.15 239L1518.15 239Q1514.63 239 1509.35 238.89Q1504.07 238.78 1498.79 238.78Q1493.51 238.78 1489.77 238.78L1489.77 238.78Q1483.39 238.78 1477.45 239.11Q1471.51 239.44 1465.35 239.44L1465.35 239.44Q1463.37 239.44 1463.37 235.70L1463.37 235.70Q1463.37 231.96 1465.35 231.96L1465.35 231.96L1476.35 231.96Q1481.19 231.96 1483.61 227.12L1483.61 227.12Q1489.99 213.48 1495.05 200.28Q1500.11 187.08 1505.17 172.78Q1510.23 158.48 1516.06 142.42Q1521.89 126.36 1529.59 107.22L1529.59 107.22Q1530.25 105.46 1530.91 103.81Q1531.57 102.16 1531.57 100.84L1531.57 100.84Q1531.57 98.86 1530.69 97.54Q1529.81 96.22 1529.81 95.34L1529.81 95.34Q1529.81 93.58 1532.01 93.58L1532.01 93.58Q1536.63 93.58 1539.05 92.04Q1541.47 90.50 1542.57 88.63Q1543.67 86.76 1544.55 85.22Q1545.43 83.68 1546.97 83.68L1546.97 83.68Q1547.85 83.68 1548.51 85.77Q1549.17 87.86 1550.05 90.28L1550.05 90.28L1594.27 209.74Q1599.11 222.50 1601.75 227.12Q1604.39 231.74 1605.93 231.74L1605.93 231.74L1613.85 231.74Q1616.05 231.74 1616.05 235.04L1616.05 235.04Q1616.05 236.58 1615.72 237.79Q1615.39 239 1614.29 239L1614.29 239Q1605.71 239 1599 238.89Q1592.29 238.78 1586.35 238.78L1586.35 238.78Q1580.63 238.78 1572.82 239.11Q1565.01 239.44 1558.41 239.44L1558.41 239.44Q1556.43 239.44 1556.43 235.48L1556.43 235.48Q1556.43 231.96 1558.41 231.96L1558.41 231.96L1570.95 231.96Q1577.11 231.96 1574.91 225.14ZM1537.95 113.82L1537.07 113.82Q1532.45 125.92 1528.27 137.91Q1524.09 149.90 1519.91 162.22L1519.91 162.22L1553.79 162.22Q1550.05 150.56 1545.98 138.57Q1541.91 126.58 1537.95 113.82L1537.95 113.82ZM1668.63 91.38L1698.55 91.38Q1726.05 91.38 1746.18 100.73Q1766.31 110.08 1777.20 126.69Q1788.09 143.30 1788.09 165.30L1788.09 165.30Q1788.09 182.46 1781.60 196.10Q1775.11 209.74 1763.45 219.31Q1751.79 228.88 1736.28 233.94Q1720.77 239 1702.73 239L1702.73 239L1676.99 239Q1662.91 239 1653.89 239.22Q1644.87 239.44 1639.59 239.44L1639.59 239.44Q1638.71 239.44 1638.27 238.34Q1637.83 237.24 1637.83 235.92L1637.83 235.92Q1637.83 234.38 1638.27 233.17Q1638.71 231.96 1639.59 231.96L1639.59 231.96L1649.05 231.96Q1654.77 231.96 1656.42 229.76Q1658.07 227.56 1658.07 221.84L1658.07 221.84L1658.07 117.12Q1658.07 108.54 1657.30 104.58Q1656.53 100.62 1655.54 99.52Q1654.55 98.42 1653.45 98.42L1653.45 98.42L1639.59 98.42Q1637.61 98.42 1637.61 95.12L1637.61 95.12Q1637.61 93.80 1638.16 92.37Q1638.71 90.94 1639.59 90.94L1639.59 90.94Q1642.23 90.94 1647.29 91.05Q1652.35 91.16 1658.18 91.27Q1664.01 91.38 1668.63 91.38L1668.63 91.38ZM1685.35 230.20L1703.39 229.98Q1721.43 229.76 1734.85 222.50Q1748.27 215.24 1755.64 202.04Q1763.01 188.84 1763.01 170.80L1763.01 170.80Q1763.01 151 1755.53 135.71Q1748.05 120.42 1731.88 111.07Q1715.71 101.72 1689.09 100.18L1689.09 100.18Q1685.13 99.96 1682.93 102.05Q1680.73 104.14 1680.73 109.20L1680.73 109.20L1680.73 210.84Q1680.73 219.20 1681.50 223.38Q1682.27 227.56 1683.37 228.88Q1684.47 230.20 1685.35 230.20L1685.35 230.20Z" fill="#000000" stroke="#000000" stroke-width="9" stroke-linejoin="round"/>
  <path d="M818.02 316.04L828.77 316.04Q838.64 316.04 845.87 319.40Q853.10 322.76 857.01 328.72Q860.92 334.69 860.92 342.59L860.92 342.59Q860.92 348.75 858.59 353.65Q856.26 358.54 852.07 361.98Q847.88 365.42 842.32 367.23Q836.75 369.05 830.27 369.05L830.27 369.05L821.02 369.05Q815.97 369.05 812.73 369.13Q809.49 369.21 807.59 369.21L807.59 369.21Q807.28 369.21 807.12 368.81Q806.96 368.42 806.96 367.94L806.96 367.94Q806.96 367.39 807.12 366.96Q807.28 366.52 807.59 366.52L807.59 366.52L810.99 366.52Q813.05 366.52 813.64 365.73Q814.23 364.94 814.23 362.89L814.23 362.89L814.23 325.28Q814.23 322.20 813.95 320.78Q813.68 319.36 813.32 318.96Q812.97 318.57 812.57 318.57L812.57 318.57L807.59 318.57Q806.88 318.57 806.88 317.38L806.88 317.38Q806.88 316.91 807.08 316.40Q807.28 315.88 807.59 315.88L807.59 315.88Q808.54 315.88 810.36 315.92Q812.18 315.96 814.27 316.00Q816.36 316.04 818.02 316.04L818.02 316.04ZM824.03 365.89L830.50 365.81Q836.98 365.73 841.80 363.13Q846.62 360.52 849.27 355.78Q851.91 351.04 851.91 344.56L851.91 344.56Q851.91 337.45 849.23 331.96Q846.54 326.47 840.74 323.11Q834.93 319.75 825.37 319.20L825.37 319.20Q823.95 319.12 823.16 319.87Q822.37 320.62 822.37 322.44L822.37 322.44L822.37 358.94Q822.37 361.94 822.64 363.44Q822.92 364.94 823.32 365.42Q823.71 365.89 824.03 365.89L824.03 365.89ZM878.93 359.33L878.93 325.44Q878.93 322.36 878.66 320.90Q878.38 319.44 878.02 318.96Q877.67 318.49 877.27 318.49L877.27 318.49L872.69 318.49Q872.06 318.49 872.06 316.99L872.06 316.99Q872.06 316.59 872.18 316.24Q872.30 315.88 872.69 315.88L872.69 315.88Q875.22 315.88 877.75 315.92Q880.27 315.96 882.64 315.96L882.64 315.96Q886.04 315.96 887.98 315.92Q889.91 315.88 891.18 315.80Q892.44 315.73 893.70 315.73L893.70 315.73Q894.10 315.73 894.22 316.12Q894.34 316.51 894.34 316.99L894.34 316.99Q894.34 317.54 894.18 317.98Q894.02 318.41 893.70 318.41L893.70 318.41L890.31 318.41Q888.33 318.41 887.70 319.20Q887.07 319.99 887.07 322.05L887.07 322.05L887.07 358.62Q887.07 364.23 886.67 368.97Q886.28 373.71 884.94 377.03L884.94 377.03Q883.36 380.82 880.55 383.90Q877.75 386.98 874.03 388.80Q870.32 390.62 865.90 390.62L865.90 390.62Q865.34 390.62 864.36 390.42Q863.37 390.22 862.54 389.59Q861.71 388.96 861.71 387.77L861.71 387.77Q861.71 384.77 865.19 383.43L865.19 383.43Q866.92 384.45 869.14 384.97Q871.35 385.48 872.77 385.48L872.77 385.48Q874.27 385.48 875.14 384.77Q876.01 384.06 876.56 383.03L876.56 383.03Q877.35 381.37 877.83 378.21Q878.30 375.05 878.54 371.42Q878.77 367.79 878.85 364.51Q878.93 361.23 878.93 359.33L878.93 359.33ZM962.99 355.54L962.99 355.54Q962.99 359.89 960.34 363.16Q957.69 366.44 953.39 368.26Q949.08 370.08 944.11 370.08L944.11 370.08Q940.71 370.08 937.75 369.29Q934.78 368.50 932.97 367.71L932.97 367.71L933.60 369.29Q933.84 369.84 933.20 370.24Q932.57 370.63 931.86 370.63L931.86 370.63Q931.23 370.63 930.99 370.24L930.99 370.24Q930.36 368.50 929.69 365.93Q929.02 363.36 928.54 360.56Q928.07 357.75 927.91 355.38L927.91 355.38Q927.91 354.99 928.31 354.79Q928.70 354.59 929.25 354.59L929.25 354.59Q929.65 354.59 930.04 354.71Q930.44 354.83 930.52 355.15L930.52 355.15Q930.99 356.65 932.06 358.66Q933.13 360.68 934.86 362.61Q936.60 364.55 939.09 365.81Q941.58 367.07 944.74 367.07L944.74 367.07Q949.64 367.07 952.16 364.43Q954.69 361.78 954.69 358.62L954.69 358.62Q954.69 354.83 952.95 352.22Q951.22 349.62 948.41 347.72Q945.61 345.82 942.53 344.09Q939.45 342.35 936.64 340.37Q933.84 338.40 932.10 335.59Q930.36 332.79 930.36 328.76L930.36 328.76Q930.36 324.97 932.69 321.85Q935.02 318.73 939.13 316.87Q943.24 315.01 948.53 315.01L948.53 315.01Q951.77 315.01 953.94 315.61Q956.11 316.20 956.11 316.20L956.11 316.20Q956.04 315.96 955.92 315.25Q955.80 314.54 955.80 314.38L955.80 314.38Q955.72 313.99 956.11 313.79Q956.51 313.59 956.98 313.59L956.98 313.59Q957.93 313.59 958.17 314.22L958.17 314.22Q959.12 317.54 959.67 320.94Q960.22 324.34 960.30 326.79L960.30 326.79Q960.22 327.02 959.71 327.14Q959.20 327.26 958.64 327.26L958.64 327.26Q957.93 327.26 957.69 327.02L957.69 327.02Q957.14 325.05 956.11 322.99Q955.09 320.94 953.03 319.48Q950.98 318.02 947.35 318.02L947.35 318.02Q943.71 318.02 941.74 319.32Q939.76 320.62 939.01 322.56Q938.26 324.49 938.26 326.39L938.26 326.39Q938.26 329.55 940.04 331.76Q941.82 333.97 944.66 335.71Q947.50 337.45 950.62 339.19Q953.74 340.93 956.59 343.06Q959.43 345.19 961.21 348.19Q962.99 351.20 962.99 355.54ZM1001.30 349.30L1001.30 349.30Q997.19 349.62 991.43 349.54Q985.66 349.46 978.08 349.93L978.08 349.93Q978.08 353.65 979.42 356.21Q980.76 358.78 982.90 360.36Q985.03 361.94 987.52 362.65Q990.01 363.36 992.30 363.36L992.30 363.36Q995.54 363.36 997.55 362.73Q999.56 362.10 1000.71 361.31Q1001.86 360.52 1002.49 359.89Q1003.12 359.25 1003.67 359.25L1003.67 359.25Q1004.54 359.25 1004.54 360.20L1004.54 360.20Q1004.54 360.68 1003.79 362.26Q1003.04 363.84 1001.42 365.65Q999.80 367.47 997.04 368.77Q994.27 370.08 990.24 370.08L990.24 370.08Q985.50 370.08 981.79 367.59Q978.08 365.10 975.94 361.15Q973.81 357.20 973.81 352.86L973.81 352.86Q973.81 348.35 975.43 344.76Q977.05 341.16 979.70 338.67Q982.34 336.19 985.50 334.88Q988.66 333.58 991.82 333.58L991.82 333.58Q995.22 333.58 997.95 335.24Q1000.67 336.90 1002.33 339.86Q1003.99 342.82 1003.99 346.93L1003.99 346.93Q1003.99 348.19 1003.44 348.67Q1002.88 349.14 1001.30 349.30ZM989.69 337.85L989.69 337.85Q987.32 337.85 984.91 338.91Q982.50 339.98 980.72 342.11Q978.95 344.24 978.31 347.48L978.31 347.48Q981.08 347.17 984.24 346.93Q987.40 346.69 990.24 346.46Q993.09 346.22 994.67 345.98L994.67 345.98Q996.09 345.82 996.68 345.51Q997.27 345.19 997.27 344.48L997.27 344.48Q997.27 341.80 995.10 339.82Q992.93 337.85 989.69 337.85ZM1018.60 359.57L1018.60 337.53L1014.57 337.53Q1014.26 337.53 1014.02 337.09Q1013.78 336.66 1013.78 336.34L1013.78 336.34Q1013.78 336.03 1013.94 335.63Q1014.10 335.24 1014.42 335.16L1014.42 335.16Q1018.37 334.37 1020.50 331.33Q1022.63 328.29 1023.98 324.42L1023.98 324.42Q1024.13 324.02 1024.45 323.94Q1024.77 323.86 1025.00 323.86L1025.00 323.86Q1025.79 323.86 1025.79 324.89L1025.79 324.89Q1025.79 326.63 1025.56 328.72Q1025.32 330.81 1025.32 334.53L1025.32 334.53L1035.11 334.53Q1035.51 334.53 1035.71 335.08Q1035.90 335.63 1035.90 336.19L1035.90 336.19Q1035.90 336.58 1035.79 337.06Q1035.67 337.53 1035.27 337.53L1035.27 337.53L1025.32 337.53L1025.32 357.83Q1025.32 361.62 1026.62 363.48Q1027.93 365.34 1031.16 365.34L1031.16 365.34Q1032.90 365.34 1033.89 364.55Q1034.88 363.76 1035.47 363.01Q1036.06 362.26 1036.46 362.26L1036.46 362.26Q1037.25 362.26 1037.25 362.97L1037.25 362.97Q1037.25 364.15 1036.10 365.89Q1034.96 367.63 1032.82 368.97Q1030.69 370.31 1027.69 370.31L1027.69 370.31Q1023.50 370.31 1021.05 367.59Q1018.60 364.86 1018.60 359.57L1018.60 359.57Z" fill="#000000" stroke="#000000" stroke-width="1" stroke-linejoin="round"/>
</svg>
