<svg xmlns="http://www.w3.org/2000/svg" viewBox="0 0 1845 420">
  <path d="M73.63 211.94L73.63 117.56Q73.63 108.98 72.86 104.91Q72.09 100.84 71.10 99.52Q70.11 98.20 69.01 98.20L69.01 98.20L56.25 98.20Q54.49 98.20 54.49 94.02L54.49 94.02Q54.49 92.92 54.82 91.93Q55.15 90.94 56.25 90.94L56.25 90.94Q63.29 90.94 70.33 91.05Q77.37 91.16 83.97 91.16L83.97 91.16Q93.43 91.16 98.82 91.05Q104.21 90.94 107.73 90.72Q111.25 90.50 114.77 90.50L114.77 90.50Q115.87 90.50 116.20 91.60Q116.53 92.70 116.53 94.02L116.53 94.02Q116.53 95.56 116.09 96.77Q115.65 97.98 114.77 97.98L114.77 97.98L105.31 97.98Q99.81 97.98 98.05 100.18Q96.29 102.38 96.29 108.10L96.29 108.10L96.29 209.96Q96.29 225.58 95.19 238.78Q94.09 251.98 90.35 261.22L90.35 261.22Q85.95 271.78 78.14 280.36Q70.33 288.94 59.99 294Q49.65 299.06 37.33 299.06L37.33 299.06Q35.79 299.06 33.04 298.51Q30.29 297.96 27.98 296.20Q25.67 294.44 25.67 291.14L25.67 291.14Q25.67 282.78 35.35 279.04L35.35 279.04Q40.19 281.90 46.35 283.33Q52.51 284.76 56.47 284.76L56.47 284.76Q60.65 284.76 63.07 282.78Q65.49 280.80 67.03 277.94L67.03 277.94Q69.23 273.32 70.55 264.52Q71.87 255.72 72.53 245.60Q73.19 235.48 73.41 226.35Q73.63 217.22 73.63 211.94L73.63 211.94ZM222.35 88.52L222.35 88.52Q238.85 88.52 253.37 94.46Q267.89 100.40 278.89 110.96Q289.89 121.52 296.16 135.38Q302.43 149.24 302.43 165.08L302.43 165.08Q302.43 181.14 296.16 195Q289.89 208.86 278.89 219.42Q267.89 229.98 253.37 235.92Q238.85 241.86 222.35 241.86L222.35 241.86Q205.85 241.86 191.33 235.92Q176.81 229.98 165.81 219.42Q154.81 208.86 148.54 195Q142.27 181.14 142.27 165.08L142.27 165.08Q142.27 149.24 148.54 135.38Q154.81 121.52 165.81 110.96Q176.81 100.40 191.33 94.46Q205.85 88.52 222.35 88.52ZM222.35 98.64L222.35 98.64Q206.73 98.64 194.96 107.55Q183.19 116.46 176.59 131.53Q169.99 146.60 169.99 165.08L169.99 165.08Q169.99 183.56 176.59 198.74Q183.19 213.92 194.96 222.83Q206.73 231.74 222.35 231.74L222.35 231.74Q237.97 231.74 249.74 222.83Q261.51 213.92 268.11 198.74Q274.71 183.56 274.71 165.08L274.71 165.08Q274.71 146.60 268.11 131.53Q261.51 116.46 249.74 107.55Q237.97 98.64 222.35 98.64ZM431.79 201.38L431.79 201.38Q431.79 213.48 424.42 222.61Q417.05 231.74 405.06 236.80Q393.07 241.86 379.21 241.86L379.21 241.86Q369.75 241.86 361.50 239.66Q353.25 237.46 348.19 235.26L348.19 235.26L349.95 239.66Q350.61 241.20 348.85 242.30Q347.09 243.40 345.11 243.40L345.11 243.40Q343.35 243.40 342.69 242.30L342.69 242.30Q340.93 237.46 339.06 230.31Q337.19 223.16 335.87 215.35Q334.55 207.54 334.11 200.94L334.11 200.94Q334.11 199.84 335.21 199.29Q336.31 198.74 337.85 198.74L337.85 198.74Q338.95 198.74 340.05 199.07Q341.15 199.40 341.37 200.28L341.37 200.28Q342.69 204.46 345.66 210.07Q348.63 215.68 353.47 221.07Q358.31 226.46 365.24 229.98Q372.17 233.50 380.97 233.50L380.97 233.50Q394.61 233.50 401.65 226.13Q408.69 218.76 408.69 209.96L408.69 209.96Q408.69 199.40 403.85 192.14Q399.01 184.88 391.20 179.60Q383.39 174.32 374.81 169.48Q366.23 164.64 358.42 159.14Q350.61 153.64 345.77 145.83Q340.93 138.02 340.93 126.80L340.93 126.80Q340.93 116.24 347.42 107.55Q353.91 98.86 365.35 93.69Q376.79 88.52 391.53 88.52L391.53 88.52Q400.55 88.52 406.60 90.17Q412.65 91.82 412.65 91.82L412.65 91.82Q412.43 91.16 412.10 89.18Q411.77 87.20 411.77 86.76L411.77 86.76Q411.55 85.66 412.65 85.11Q413.75 84.56 415.07 84.56L415.07 84.56Q417.71 84.56 418.37 86.32L418.37 86.32Q421.01 95.56 422.55 105.02Q424.09 114.48 424.31 121.30L424.31 121.30Q424.09 121.96 422.66 122.29Q421.23 122.62 419.69 122.62L419.69 122.62Q417.71 122.62 417.05 121.96L417.05 121.96Q415.51 116.46 412.65 110.74Q409.79 105.02 404.07 100.95Q398.35 96.88 388.23 96.88L388.23 96.88Q378.11 96.88 372.61 100.51Q367.11 104.14 365.02 109.53Q362.93 114.92 362.93 120.20L362.93 120.20Q362.93 129 367.88 135.16Q372.83 141.32 380.75 146.16Q388.67 151 397.36 155.84Q406.05 160.68 413.97 166.62Q421.89 172.56 426.84 180.92Q431.79 189.28 431.79 201.38ZM507.47 109.64L507.47 161.56Q517.15 161.34 526.17 160.79Q535.19 160.24 541.35 159.58Q547.51 158.92 548.17 158.48L548.17 158.48L550.37 145.50Q550.59 143.96 553.89 143.96L553.89 143.96Q555.21 143.96 556.31 144.40Q557.41 144.84 557.19 145.94L557.19 145.94Q556.53 151 556.31 155.18Q556.09 159.36 556.09 164.42L556.09 164.42Q556.09 169.26 556.31 174.43Q556.53 179.60 557.19 184.66L557.19 184.66Q557.41 185.54 556.09 185.98Q554.77 186.42 553.23 186.42L553.23 186.42Q550.37 186.42 550.37 185.10L550.37 185.10L547.95 171.90Q547.29 171.46 541.35 170.80Q535.41 170.14 526.39 169.48Q517.37 168.82 507.47 168.60L507.47 168.60L507.47 210.84Q507.47 219.20 508.24 223.38Q509.01 227.56 510.11 228.88Q511.21 230.20 512.09 230.20L512.09 230.20L523.31 230.20Q537.61 229.98 550.70 227.56Q563.79 225.14 569.95 220.96L569.95 220.96L571.49 208.86Q571.71 207.98 572.92 207.54Q574.13 207.10 575.67 207.10L575.67 207.10Q578.97 207.10 578.75 208.86L578.75 208.86Q577.65 217 577.21 226.24Q576.77 235.48 576.77 243.84L576.77 243.84Q576.77 245.38 573.47 245.38L573.47 245.38Q572.15 245.38 571.05 245.05Q569.95 244.72 569.95 243.84L569.95 243.84L569.95 239L515.61 239Q501.53 239 492.84 239.11Q484.15 239.22 479.20 239.22Q474.25 239.22 471.50 239.33Q468.75 239.44 466.33 239.44L466.33 239.44Q465.45 239.44 465.01 238.34Q464.57 237.24 464.57 235.92L464.57 235.92Q464.57 234.38 465.01 233.17Q465.45 231.96 466.33 231.96L466.33 231.96L475.79 231.96Q481.51 231.96 483.16 229.76Q484.81 227.56 484.81 221.84L484.81 221.84L484.81 117.56Q484.81 108.98 484.04 104.91Q483.27 100.84 482.28 99.52Q481.29 98.20 480.19 98.20L480.19 98.20L467.43 98.20Q465.67 98.20 465.67 94.02L465.67 94.02Q465.67 92.92 466.00 91.93Q466.33 90.94 467.43 90.94L467.43 90.94Q473.15 90.94 479.97 91.16Q486.79 91.38 495.15 91.38L495.15 91.38L558.95 91.38L558.95 86.76Q558.95 85.66 560.05 85.22Q561.15 84.78 562.25 84.78L562.25 84.78Q563.35 84.78 564.34 85.22Q565.33 85.66 565.33 86.76L565.33 86.76Q565.33 94.90 565.77 104.03Q566.21 113.16 567.53 120.20L567.53 120.20Q567.97 121.08 566.87 121.52Q565.77 121.96 564.45 121.96L564.45 121.96Q563.13 121.96 561.92 121.52Q560.71 121.08 560.49 120.20L560.49 120.20Q559.39 115.58 557.63 110.74Q555.87 105.90 552.13 104.14L552.13 104.14Q546.41 101.94 537.72 100.84Q529.03 99.74 514.73 99.52L514.73 99.52Q510.33 99.74 508.90 102.05Q507.47 104.36 507.47 109.64L507.47 109.64ZM653.55 166.18L653.55 212.38Q653.55 220.74 654.32 224.92Q655.09 229.10 656.19 230.42Q657.29 231.74 658.17 231.74L658.17 231.74L670.93 231.74Q672.03 231.74 672.58 233.06Q673.13 234.38 673.13 235.92L673.13 235.92Q673.13 239 670.93 239L670.93 239L661.47 239Q659.27 239 656.85 238.89Q654.43 238.78 652.01 238.78L652.01 238.78L643.21 238.78Q633.97 238.78 628.47 238.89Q622.97 239 619.45 239.22Q615.93 239.44 612.41 239.44L612.41 239.44Q611.53 239.44 611.09 238.34Q610.65 237.24 610.65 235.92L610.65 235.92Q610.65 234.38 611.09 233.17Q611.53 231.96 612.41 231.96L612.41 231.96L621.87 231.96Q627.59 231.96 629.24 229.76Q630.89 227.56 630.89 221.84L630.89 221.84L630.89 117.56Q630.89 108.98 630.12 104.91Q629.35 100.84 628.36 99.52Q627.37 98.20 626.27 98.20L626.27 98.20L613.51 98.20Q611.75 98.20 611.75 94.02L611.75 94.02Q611.75 92.92 612.08 91.93Q612.41 90.94 613.51 90.94L613.51 90.94Q622.53 90.94 629.46 91.16Q636.39 91.38 641.23 91.38L641.23 91.38L666.53 91.38Q687.21 91.38 699.97 96.88Q712.73 102.38 718.78 111.29Q724.83 120.20 724.83 130.10L724.83 130.10Q724.83 140.22 719.00 149.68Q713.17 159.14 702.50 165.30Q691.83 171.46 677.09 171.46L677.09 171.46Q671.81 171.46 665.87 170.25Q659.93 169.04 653.55 166.18L653.55 166.18ZM701.07 131.86L701.07 131.86Q701.07 123.94 696.89 116.68Q692.71 109.42 683.91 104.80Q675.11 100.18 661.47 100.18L661.47 100.18Q657.29 100.18 655.42 102.27Q653.55 104.36 653.55 110.30L653.55 110.30L653.55 159.14Q659.49 160.46 665.21 160.46L665.21 160.46Q677.09 160.46 685.01 156.39Q692.93 152.32 697.00 145.83Q701.07 139.34 701.07 131.86ZM933.39 129L933.39 129Q933.39 136.92 929.21 143.63Q925.03 150.34 917.88 155.07Q910.73 159.80 901.71 161.56L901.71 161.56L901.71 162.44Q921.95 165.96 933.17 176.74Q944.39 187.52 944.39 200.50L944.39 200.50Q944.39 210.62 937.02 219.42Q929.65 228.22 915.68 233.61Q901.71 239 881.69 239L881.69 239L860.35 239Q846.27 239 837.25 239.22Q828.23 239.44 822.95 239.44L822.95 239.44Q822.07 239.44 821.63 238.34Q821.19 237.24 821.19 235.92L821.19 235.92Q821.19 234.38 821.63 233.17Q822.07 231.96 822.95 231.96L822.95 231.96L832.41 231.96Q838.13 231.96 839.78 229.76Q841.43 227.56 841.43 221.84L841.43 221.84L841.43 117.78Q841.43 109.20 840.66 105.13Q839.89 101.06 838.90 99.74Q837.91 98.42 836.81 98.42L836.81 98.42L822.95 98.42Q821.19 98.42 821.19 94.24L821.19 94.24Q821.19 93.14 821.52 92.04Q821.85 90.94 822.95 90.94L822.95 90.94Q829.99 90.94 837.58 91.16Q845.17 91.38 851.77 91.38L851.77 91.38L877.07 91.38Q897.31 91.38 909.63 96.77Q921.95 102.16 927.67 110.74Q933.39 119.32 933.39 129ZM864.09 110.30L864.09 157.38Q867.17 157.82 870.03 158.04Q872.89 158.26 875.75 158.26L875.75 158.26Q887.19 158.26 894.67 154.41Q902.15 150.56 905.89 144.18Q909.63 137.80 909.63 130.76L909.63 130.76Q909.63 123.06 905.78 116.13Q901.93 109.20 893.35 104.69Q884.77 100.18 870.47 100.18L870.47 100.18Q867.17 100.18 865.63 102.49Q864.09 104.80 864.09 110.30L864.09 110.30ZM864.09 166.18L864.09 210.84Q864.09 222.94 865.52 226.57Q866.95 230.20 868.93 230.20L868.93 230.20L880.15 230.20Q899.07 230.20 908.42 221.73Q917.77 213.26 917.77 200.50L917.77 200.50Q917.77 193.68 915.57 187.74Q913.37 181.80 907.65 177.18Q901.93 172.56 891.37 169.70Q880.81 166.84 864.09 166.18L864.09 166.18ZM1021.17 109.64L1021.17 161.56Q1030.85 161.34 1039.87 160.79Q1048.89 160.24 1055.05 159.58Q1061.21 158.92 1061.87 158.48L1061.87 158.48L1064.07 145.50Q1064.29 143.96 1067.59 143.96L1067.59 143.96Q1068.91 143.96 1070.01 144.40Q1071.11 144.84 1070.89 145.94L1070.89 145.94Q1070.23 151 1070.01 155.18Q1069.79 159.36 1069.79 164.42L1069.79 164.42Q1069.79 169.26 1070.01 174.43Q1070.23 179.60 1070.89 184.66L1070.89 184.66Q1071.11 185.54 1069.79 185.98Q1068.47 186.42 1066.93 186.42L1066.93 186.42Q1064.07 186.42 1064.07 185.10L1064.07 185.10L1061.65 171.90Q1060.99 171.46 1055.05 170.80Q1049.11 170.14 1040.09 169.48Q1031.07 168.82 1021.17 168.60L1021.17 168.60L1021.17 210.84Q1021.17 219.20 1021.94 223.38Q1022.71 227.56 1023.81 228.88Q1024.91 230.20 1025.79 230.20L1025.79 230.20L1037.01 230.20Q1051.31 229.98 1064.40 227.56Q1077.49 225.14 1083.65 220.96L1083.65 220.96L1085.19 208.86Q1085.41 207.98 1086.62 207.54Q1087.83 207.10 1089.37 207.10L1089.37 207.10Q1092.67 207.10 1092.45 208.86L1092.45 208.86Q1091.35 217 1090.91 226.24Q1090.47 235.48 1090.47 243.84L1090.47 243.84Q1090.47 245.38 1087.17 245.38L1087.17 245.38Q1085.85 245.38 1084.75 245.05Q1083.65 244.72 1083.65 243.84L1083.65 243.84L1083.65 239L1029.31 239Q1015.23 239 1006.54 239.11Q997.85 239.22 992.90 239.22Q987.95 239.22 985.20 239.33Q982.45 239.44 980.03 239.44L980.03 239.44Q979.15 239.44 978.71 238.34Q978.27 237.24 978.27 235.92L978.27 235.92Q978.27 234.38 978.71 233.17Q979.15 231.96 980.03 231.96L980.03 231.96L989.49 231.96Q995.21 231.96 996.86 229.76Q998.51 227.56 998.51 221.84L998.51 221.84L998.51 117.56Q998.51 108.98 997.74 104.91Q996.97 100.84 995.98 99.52Q994.99 98.20 993.89 98.20L993.89 98.20L981.13 98.20Q979.37 98.20 979.37 94.02L979.37 94.02Q979.37 92.92 979.70 91.93Q980.03 90.94 981.13 90.94L981.13 90.94Q986.85 90.94 993.67 91.16Q1000.49 91.38 1008.85 91.38L1008.85 91.38L1072.65 91.38L1072.65 86.76Q1072.65 85.66 1073.75 85.22Q1074.85 84.78 1075.95 84.78L1075.95 84.78Q1077.05 84.78 1078.04 85.22Q1079.03 85.66 1079.03 86.76L1079.03 86.76Q1079.03 94.90 1079.47 104.03Q1079.91 113.16 1081.23 120.20L1081.23 120.20Q1081.67 121.08 1080.57 121.52Q1079.47 121.96 1078.15 121.96L1078.15 121.96Q1076.83 121.96 1075.62 121.52Q1074.41 121.08 1074.19 120.20L1074.19 120.20Q1073.09 115.58 1071.33 110.74Q1069.57 105.90 1065.83 104.14L1065.83 104.14Q1060.11 101.94 1051.42 100.84Q1042.73 99.74 1028.43 99.52L1028.43 99.52Q1024.03 99.74 1022.60 102.05Q1021.17 104.36 1021.17 109.64L1021.17 109.64ZM1200.25 166.62L1200.25 166.62Q1197.17 167.06 1194.75 167.28L1194.75 167.28Q1203.77 170.58 1209.93 177.84Q1216.09 185.10 1220.49 193.79Q1224.89 202.48 1228.85 210.62Q1232.81 218.76 1237.54 224.04Q1242.27 229.32 1249.31 229.32L1249.31 229.32Q1252.83 229.32 1255.14 227.56Q1257.45 225.80 1259.65 223.60L1259.65 223.60Q1260.97 222.50 1262.62 223.93Q1264.27 225.36 1263.39 226.46L1263.39 226.46Q1259.87 231.30 1253.82 236.58Q1247.77 241.86 1239.41 241.86L1239.41 241.86Q1231.05 241.86 1224.78 237.35Q1218.51 232.84 1213.45 225.58Q1208.39 218.32 1204.10 209.74Q1199.81 201.16 1195.52 192.91Q1191.23 184.66 1186.39 178.17Q1181.55 171.68 1175.17 168.60L1175.17 168.60Q1175.17 168.38 1174.95 168.38L1174.95 168.38Q1172.97 168.16 1170.99 167.83Q1169.01 167.50 1167.25 167.28L1167.25 167.28L1167.25 212.38Q1167.25 220.74 1168.02 224.92Q1168.79 229.10 1169.89 230.42Q1170.99 231.74 1171.87 231.74L1171.87 231.74L1184.63 231.74Q1186.39 231.74 1186.39 235.92L1186.39 235.92Q1186.39 236.80 1186.06 237.90Q1185.73 239 1184.63 239L1184.63 239Q1177.81 239 1170.66 238.89Q1163.51 238.78 1156.91 238.78L1156.91 238.78Q1147.67 238.78 1142.17 238.89Q1136.67 239 1133.15 239.22Q1129.63 239.44 1126.11 239.44L1126.11 239.44Q1125.23 239.44 1124.79 238.34Q1124.35 237.24 1124.35 235.92L1124.35 235.92Q1124.35 234.38 1124.79 233.17Q1125.23 231.96 1126.11 231.96L1126.11 231.96L1135.57 231.96Q1141.29 231.96 1142.94 229.76Q1144.59 227.56 1144.59 221.84L1144.59 221.84L1144.59 117.56Q1144.59 108.98 1143.82 104.91Q1143.05 100.84 1142.06 99.52Q1141.07 98.20 1139.97 98.20L1139.97 98.20L1127.21 98.20Q1125.45 98.20 1125.45 94.02L1125.45 94.02Q1125.45 92.92 1125.78 91.93Q1126.11 90.94 1127.21 90.94L1127.21 90.94Q1136.23 90.94 1143.16 91.16Q1150.09 91.38 1154.93 91.38L1154.93 91.38L1180.23 91.38Q1200.91 91.38 1213.67 96.77Q1226.43 102.16 1232.48 110.96Q1238.53 119.76 1238.53 129.66L1238.53 129.66Q1238.53 139.34 1233.36 146.82Q1228.19 154.30 1219.50 159.25Q1210.81 164.20 1200.25 166.62ZM1214.77 131.86L1214.77 131.86Q1214.77 124.16 1210.59 116.90Q1206.41 109.64 1197.83 104.91Q1189.25 100.18 1175.83 100.18L1175.83 100.18Q1170.99 100.18 1169.12 102.49Q1167.25 104.80 1167.25 109.20L1167.25 109.20L1167.25 159.14Q1173.19 160.46 1178.91 160.46L1178.91 160.46Q1190.79 160.46 1198.71 156.39Q1206.63 152.32 1210.70 145.83Q1214.77 139.34 1214.77 131.86ZM1415.63 241.64L1415.63 241.64Q1415.63 241.64 1410.79 235.92Q1405.95 230.20 1397.70 220.30Q1389.45 210.40 1378.89 197.86Q1368.33 185.32 1357 171.68Q1345.67 158.04 1334.67 144.84Q1323.67 131.64 1314.43 120.42L1314.43 120.42L1313.55 120.42Q1313.99 152.10 1314.21 176.08Q1314.43 200.06 1314.87 215.68L1314.87 215.68Q1315.09 221.40 1316.19 226.57Q1317.29 231.74 1319.49 231.74L1319.49 231.74L1331.59 231.74Q1332.69 231.74 1333.13 232.95Q1333.57 234.16 1333.57 235.70L1333.57 235.70Q1333.57 239 1331.59 239L1331.59 239Q1323.45 239 1318.17 238.89Q1312.89 238.78 1308.27 238.78L1308.27 238.78Q1300.79 238.78 1293.75 239.11Q1286.71 239.44 1282.09 239.44L1282.09 239.44Q1281.21 239.44 1280.88 238.23Q1280.55 237.02 1280.55 235.70L1280.55 235.70Q1280.55 234.38 1280.88 233.17Q1281.21 231.96 1282.09 231.96L1282.09 231.96L1289.35 231.96Q1294.19 231.96 1296.50 230.75Q1298.81 229.54 1299.03 226.02L1299.03 226.02Q1300.13 214.80 1300.90 199.84Q1301.67 184.88 1302.22 168.38Q1302.77 151.88 1303.10 136.15Q1303.43 120.42 1303.43 107.66L1303.43 107.66L1301.89 105.90Q1299.25 102.60 1296.94 100.95Q1294.63 99.30 1291.22 98.64Q1287.81 97.98 1281.43 97.98L1281.43 97.98Q1280.77 97.98 1280.44 96.99Q1280.11 96 1280.11 94.90L1280.11 94.90Q1280.11 93.58 1280.44 92.26Q1280.77 90.94 1281.43 90.94L1281.43 90.94Q1284.29 90.94 1289.46 91.05Q1294.63 91.16 1300.68 91.16Q1306.73 91.16 1312.23 91.27Q1317.73 91.38 1321.25 91.38L1321.25 91.38Q1321.25 91.38 1325.54 96.77Q1329.83 102.16 1336.98 111.18Q1344.13 120.20 1353.04 131.31Q1361.95 142.42 1371.19 154.08Q1380.43 165.74 1388.79 176.41Q1397.15 187.08 1403.42 195Q1409.69 202.92 1412.33 206.66L1412.33 206.66L1413.21 206.66Q1412.99 186.20 1412.77 167.50Q1412.55 148.80 1412.11 133.29Q1411.67 117.78 1410.79 107L1410.79 107Q1410.13 98.20 1405.95 98.20L1405.95 98.20L1395.39 98.20Q1394.51 98.20 1393.96 97.21Q1393.41 96.22 1393.41 95.12L1393.41 95.12Q1393.41 93.80 1393.96 92.37Q1394.51 90.94 1395.39 90.94L1395.39 90.94Q1400.23 90.94 1407.05 91.16Q1413.87 91.38 1419.37 91.38L1419.37 91.38Q1425.53 91.38 1432.57 91.05Q1439.61 90.72 1445.33 90.72L1445.33 90.72Q1446.21 90.72 1446.76 92.26Q1447.31 93.80 1447.31 95.12L1447.31 95.12Q1447.31 97.98 1445.33 97.98L1445.33 97.98L1434.99 97.98Q1430.37 97.98 1429.16 100.18Q1427.95 102.38 1427.29 107.88L1427.29 107.88Q1426.63 114.04 1425.97 127.57Q1425.31 141.10 1424.87 159.47Q1424.43 177.84 1424.10 198.96Q1423.77 220.08 1423.77 241.64L1423.77 241.64Q1423.33 243.18 1420.25 243.18L1420.25 243.18Q1417.17 243.18 1415.63 241.64ZM1574.91 225.14L1574.91 225.14Q1570.73 211.72 1566.11 198.30Q1561.49 184.88 1556.87 171.02L1556.87 171.02L1517.05 171.02Q1509.79 194.12 1503.19 217.88L1503.19 217.88Q1502.31 221.40 1501.87 224.04Q1501.43 226.68 1501.43 228.44L1501.43 228.44Q1501.43 231.74 1502.75 231.74L1502.75 231.74L1518.59 231.74Q1519.91 231.74 1520.46 232.95Q1521.01 234.16 1521.01 235.26L1521.01 235.26Q1521.01 236.14 1520.46 237.57Q1519.91 239 1518.15 239L1518.15 239Q1514.63 239 1509.35 238.89Q1504.07 238.78 1498.79 238.78Q1493.51 238.78 1489.77 238.78L1489.77 238.78Q1483.39 238.78 1477.45 239.11Q1471.51 239.44 1465.35 239.44L1465.35 239.44Q1463.37 239.44 1463.37 235.70L1463.37 235.70Q1463.37 231.96 1465.35 231.96L1465.35 231.96L1476.35 231.96Q1481.19 231.96 1483.61 227.12L1483.61 227.12Q1489.99 213.48 1495.05 200.28Q1500.11 187.08 1505.17 172.78Q1510.23 158.48 1516.06 142.42Q1521.89 126.36 1529.59 107.22L1529.59 107.22Q1530.25 105.46 1530.91 103.81Q1531.57 102.16 1531.57 100.84L1531.57 100.84Q1531.57 98.86 1530.69 97.54Q1529.81 96.22 1529.81 95.34L1529.81 95.34Q1529.81 93.58 1532.01 93.58L1532.01 93.58Q1536.63 93.58 1539.05 92.04Q1541.47 90.50 1542.57 88.63Q1543.67 86.76 1544.55 85.22Q1545.43 83.68 1546.97 83.68L1546.97 83.68Q1547.85 83.68 1548.51 85.77Q1549.17 87.86 1550.05 90.28L1550.05 90.28L1594.27 209.74Q1599.11 222.50 1601.75 227.12Q1604.39 231.74 1605.93 231.74L1605.93 231.74L1613.85 231.74Q1616.05 231.74 1616.05 235.04L1616.05 235.04Q1616.05 236.58 1615.72 237.79Q1615.39 239 1614.29 239L1614.29 239Q1605.71 239 1599 238.89Q1592.29 238.78 1586.35 238.78L1586.35 238.78Q1580.63 238.78 1572.82 239.11Q1565.01 239.44 1558.41 239.44L1558.41 239.44Q1556.43 239.44 1556.43 235.48L1556.43 235.48Q1556.43 231.96 1558.41 231.96L1558.41 231.96L1570.95 231.96Q1577.11 231.96 1574.91 225.14ZM1537.95 113.82L1537.07 113.82Q1532.45 125.92 1528.27 137.91Q1524.09 149.90 1519.91 162.22L1519.91 162.22L1553.79 162.22Q1550.05 150.56 1545.98 138.57Q1541.91 126.58 1537.95 113.82L1537.95 113.82ZM1668.63 91.38L1698.55 91.38Q1726.05 91.38 1746.18 100.73Q1766.31 110.08 1777.20 126.69Q1788.09 143.30 1788.09 165.30L1788.09 165.30Q1788.09 182.46 1781.60 196.10Q1775.11 209.74 1763.45 219.31Q1751.79 228.88 1736.28 233.94Q1720.77 239 1702.73 239L1702.73 239L1676.99 239Q1662.91 239 1653.89 239.22Q1644.87 239.44 1639.59 239.44L1639.59 239.44Q1638.71 239.44 1638.27 238.34Q1637.83 237.24 1637.83 235.92L1637.83 235.92Q1637.83 234.38 1638.27 233.17Q1638.71 231.96 1639.59 231.96L1639.59 231.96L1649.05 231.96Q1654.77 231.96 1656.42 229.76Q1658.07 227.56 1658.07 221.84L1658.07 221.84L1658.07 117.12Q1658.07 108.54 1657.30 104.58Q1656.53 100.62 1655.54 99.52Q1654.55 98.42 1653.45 98.42L1653.45 98.42L1639.59 98.42Q1637.61 98.42 1637.61 95.12L1637.61 95.12Q1637.61 93.80 1638.16 92.37Q1638.71 90.94 1639.59 90.94L1639.59 90.94Q1642.23 90.94 1647.29 91.05Q1652.35 91.16 1658.18 91.27Q1664.01 91.38 1668.63 91.38L1668.63 91.38ZM1685.35 230.20L1703.39 229.98Q1721.43 229.76 1734.85 222.50Q1748.27 215.24 1755.64 202.04Q1763.01 188.84 1763.01 170.80L1763.01 170.80Q1763.01 151 1755.53 135.71Q1748.05 120.42 1731.88 111.07Q1715.71 101.72 1689.09 100.18L1689.09 100.18Q1685.13 99.96 1682.93 102.05Q1680.73 104.14 1680.73 109.20L1680.73 109.20L1680.73 210.84Q1680.73 219.20 1681.50 223.38Q1682.27 227.56 1683.37 228.88Q1684.47 230.20 1685.35 230.20L1685.35 230.20Z" fill="#000000" stroke="#000000" stroke-width="9" stroke-linejoin="round"/>
  <path d="M204.86 322.40L204.86 360.32Q204.86 363.36 205.14 364.88Q205.42 366.40 205.82 366.88Q206.22 367.36 206.54 367.36L206.54 367.36L211.18 367.36Q211.82 367.36 211.82 368.88L211.82 368.88Q211.82 369.20 211.70 369.60Q211.58 370 211.18 370L211.18 370Q208.70 370 206.10 369.96Q203.50 369.92 201.10 369.92L201.10 369.92Q197.74 369.92 195.74 369.96Q193.74 370 192.46 370.08Q191.18 370.16 189.90 370.16L189.90 370.16Q189.58 370.16 189.42 369.76Q189.26 369.36 189.26 368.88L189.26 368.88Q189.26 368.32 189.42 367.88Q189.58 367.44 189.90 367.44L189.90 367.44L193.34 367.44Q195.42 367.44 196.02 366.64Q196.62 365.84 196.62 363.76L196.62 363.76L196.62 325.84Q196.62 322.72 196.34 321.24Q196.06 319.76 195.70 319.28Q195.34 318.80 194.94 318.80L194.94 318.80L190.30 318.80Q189.66 318.80 189.66 317.28L189.66 317.28Q189.66 316.88 189.78 316.52Q189.90 316.16 190.30 316.16L190.30 316.16Q192.86 316.16 195.42 316.20Q197.98 316.24 200.38 316.24L200.38 316.24Q203.82 316.24 205.78 316.20Q207.74 316.16 209.02 316.08Q210.30 316 211.58 316L211.58 316Q211.98 316 212.10 316.40Q212.22 316.80 212.22 317.28L212.22 317.28Q212.22 317.84 212.06 318.28Q211.90 318.72 211.58 318.72L211.58 318.72L208.14 318.72Q206.14 318.72 205.50 319.52Q204.86 320.32 204.86 322.40L204.86 322.40ZM239.18 338.96L239.34 338.96Q241.74 336.72 244.94 335.36Q248.14 334 250.78 334L250.78 334Q256.70 334 260.38 337.48Q264.06 340.96 264.06 349.36L264.06 349.36L264.06 360.56Q264.06 363.60 264.30 365.12Q264.54 366.64 264.94 367.12Q265.34 367.60 265.74 367.60L265.74 367.60L269.66 367.60Q269.98 367.60 270.14 368.08Q270.30 368.56 270.30 368.96L270.30 368.96Q270.30 369.28 270.18 369.64Q270.06 370 269.82 370L269.82 370Q267.66 370 266.38 369.96Q265.10 369.92 263.94 369.92Q262.78 369.92 261.10 369.92L261.10 369.92Q257.66 369.92 255.90 370.04Q254.14 370.16 251.82 370.16L251.82 370.16Q251.58 370.16 251.42 369.72Q251.26 369.28 251.26 368.96L251.26 368.96Q251.26 368.56 251.38 368.16Q251.50 367.76 251.66 367.76L251.66 367.76L256.30 367.76Q257.26 367.76 257.26 366.40L257.26 366.40L257.26 352.88Q257.26 347.44 256.34 344.28Q255.42 341.12 253.22 339.76Q251.02 338.40 247.18 338.40L247.18 338.40Q244.78 338.40 242.70 339.32Q240.62 340.24 239.42 341.60L239.42 341.60L239.42 360.56Q239.42 363.60 239.66 365.12Q239.90 366.64 240.30 367.12Q240.70 367.60 241.10 367.60L241.10 367.60L245.02 367.60Q245.34 367.60 245.50 368.08Q245.66 368.56 245.66 368.96L245.66 368.96Q245.66 369.28 245.54 369.64Q245.42 370 245.18 370L245.18 370Q243.02 370 241.70 369.96Q240.38 369.92 239.26 369.92Q238.14 369.92 236.46 369.92L236.46 369.92Q233.02 369.92 231.26 370.04Q229.50 370.16 227.18 370.16L227.18 370.16Q226.94 370.16 226.78 369.72Q226.62 369.28 226.62 368.96L226.62 368.96Q226.62 368.56 226.74 368.16Q226.86 367.76 227.02 367.76L227.02 367.76L231.66 367.76Q232.62 367.76 232.62 366.40L232.62 366.40L232.62 347.60Q232.62 344.16 232.30 342.52Q231.98 340.88 231.46 340.36Q230.94 339.84 230.38 339.84L230.38 339.84L228.78 339.84Q228.54 339.84 228.34 339.40Q228.14 338.96 228.14 338.56L228.14 338.56Q228.14 338.32 228.22 337.88Q228.30 337.44 228.62 337.44L228.62 337.44Q230.46 337.44 232.06 336.60Q233.66 335.76 234.90 334.60Q236.14 333.44 237.02 332.60Q237.90 331.76 238.22 331.76L238.22 331.76Q239.34 331.76 239.34 332.72L239.34 332.72Q239.34 334.16 239.30 335.08Q239.26 336 239.22 336.80Q239.18 337.60 239.18 338.96L239.18 338.96ZM298.46 334L298.46 334Q301.42 334 304.14 335.24Q306.86 336.48 308.86 338.64L308.86 338.64Q310.70 336.48 312.62 335.40Q314.54 334.32 316.14 334.32L316.14 334.32Q318.22 334.32 319.34 335.40Q320.46 336.48 320.46 337.84L320.46 337.84Q320.46 338.80 319.90 339.76Q319.34 340.72 318.22 341.36L318.22 341.36Q317.02 340.40 315.82 339.68Q314.62 338.96 313.02 338.96L313.02 338.96Q312.30 338.96 311.46 339.40Q310.62 339.84 310.62 340.56L310.62 340.56Q310.62 341.28 311.46 342.76Q312.30 344.24 312.30 347.28L312.30 347.28Q312.30 351.84 310.34 354.68Q308.38 357.52 305.14 358.84Q301.90 360.16 298.06 360.24L298.06 360.24Q294.94 360.24 293.02 361.04Q291.10 361.84 290.26 362.84Q289.42 363.84 289.42 364.56L289.42 364.56Q289.42 365.60 290.50 366.16Q291.58 366.72 293.22 366.92Q294.86 367.12 296.54 367.12L296.54 367.12Q299.42 367.12 301.46 366.92Q303.50 366.72 305.98 366.72L305.98 366.72Q309.50 366.72 312.54 367.64Q315.58 368.56 317.46 370.52Q319.34 372.48 319.34 375.68L319.34 375.68Q319.34 378.96 317.26 381.96Q315.18 384.96 311.74 387.32Q308.30 389.68 304.14 391.04Q299.98 392.40 295.74 392.40L295.74 392.40Q292.06 392.40 289.06 391.64Q286.06 390.88 284.34 389.16Q282.62 387.44 282.62 384.48L282.62 384.48Q282.62 382.32 284.02 380.04Q285.42 377.76 287.74 375.88Q290.06 374 292.86 373.04L292.86 373.04L292.86 372.80Q290.94 372.56 288.98 371.92Q287.02 371.28 285.74 370.04Q284.46 368.80 284.46 366.88L284.46 366.88Q284.46 365.84 285.18 364.28Q285.90 362.72 287.62 361.32Q289.34 359.92 292.14 359.28L292.14 359.28L292.14 359.12Q288.46 357.76 286.18 354.56Q283.90 351.36 283.90 347.44L283.90 347.44Q283.90 343.20 285.98 340.20Q288.06 337.20 291.38 335.60Q294.70 334 298.46 334ZM297.90 357.60L297.90 357.60Q300.86 357.60 302.50 356.12Q304.14 354.64 304.82 352.28Q305.50 349.92 305.50 347.28L305.50 347.28Q305.50 344.88 304.86 342.40Q304.22 339.92 302.62 338.28Q301.02 336.64 298.06 336.64L298.06 336.64Q295.10 336.64 293.50 338.24Q291.90 339.84 291.30 342.28Q290.70 344.72 290.70 347.28L290.70 347.28Q290.70 349.68 291.34 352.04Q291.98 354.40 293.54 356Q295.10 357.60 297.90 357.60ZM304.14 372.64L304.14 372.64Q301.98 372.64 300.50 372.80Q299.02 372.96 296.86 373.04L296.86 373.04Q293.50 374.24 291.02 376.96Q288.54 379.68 288.54 382.96L288.54 382.96Q288.54 386.32 290.98 387.96Q293.42 389.60 297.58 389.60L297.58 389.60Q299.98 389.60 302.78 388.76Q305.58 387.92 308.10 386.40Q310.62 384.88 312.26 382.76Q313.90 380.64 313.90 378.08L313.90 378.08Q313.90 376.08 312.46 374.88Q311.02 373.68 308.78 373.16Q306.54 372.64 304.14 372.64ZM359.66 350L359.66 350Q355.50 350.32 349.66 350.24Q343.82 350.16 336.14 350.64L336.14 350.64Q336.14 354.40 337.50 357Q338.86 359.60 341.02 361.20Q343.18 362.80 345.70 363.52Q348.22 364.24 350.54 364.24L350.54 364.24Q353.82 364.24 355.86 363.60Q357.90 362.96 359.06 362.16Q360.22 361.36 360.86 360.72Q361.50 360.08 362.06 360.08L362.06 360.08Q362.94 360.08 362.94 361.04L362.94 361.04Q362.94 361.52 362.18 363.12Q361.42 364.72 359.78 366.56Q358.14 368.40 355.34 369.72Q352.54 371.04 348.46 371.04L348.46 371.04Q343.66 371.04 339.90 368.52Q336.14 366 333.98 362Q331.82 358 331.82 353.60L331.82 353.60Q331.82 349.04 333.46 345.40Q335.10 341.76 337.78 339.24Q340.46 336.72 343.66 335.40Q346.86 334.08 350.06 334.08L350.06 334.08Q353.50 334.08 356.26 335.76Q359.02 337.44 360.70 340.44Q362.38 343.44 362.38 347.60L362.38 347.60Q362.38 348.88 361.82 349.36Q361.26 349.84 359.66 350ZM347.90 338.40L347.90 338.40Q345.50 338.40 343.06 339.48Q340.62 340.56 338.82 342.72Q337.02 344.88 336.38 348.16L336.38 348.16Q339.18 347.84 342.38 347.60Q345.58 347.36 348.46 347.12Q351.34 346.88 352.94 346.64L352.94 346.64Q354.38 346.48 354.98 346.16Q355.58 345.84 355.58 345.12L355.58 345.12Q355.58 342.40 353.38 340.40Q351.18 338.40 347.90 338.40ZM389.26 338.96L389.42 338.96Q391.82 336.72 395.02 335.36Q398.22 334 400.86 334L400.86 334Q406.78 334 410.46 337.48Q414.14 340.96 414.14 349.36L414.14 349.36L414.14 360.56Q414.14 363.60 414.38 365.12Q414.62 366.64 415.02 367.12Q415.42 367.60 415.82 367.60L415.82 367.60L419.74 367.60Q420.06 367.60 420.22 368.08Q420.38 368.56 420.38 368.96L420.38 368.96Q420.38 369.28 420.26 369.64Q420.14 370 419.90 370L419.90 370Q417.74 370 416.46 369.96Q415.18 369.92 414.02 369.92Q412.86 369.92 411.18 369.92L411.18 369.92Q407.74 369.92 405.98 370.04Q404.22 370.16 401.90 370.16L401.90 370.16Q401.66 370.16 401.50 369.72Q401.34 369.28 401.34 368.96L401.34 368.96Q401.34 368.56 401.46 368.16Q401.58 367.76 401.74 367.76L401.74 367.76L406.38 367.76Q407.34 367.76 407.34 366.40L407.34 366.40L407.34 352.88Q407.34 347.44 406.42 344.28Q405.50 341.12 403.30 339.76Q401.10 338.40 397.26 338.40L397.26 338.40Q394.86 338.40 392.78 339.32Q390.70 340.24 389.50 341.60L389.50 341.60L389.50 360.56Q389.50 363.60 389.74 365.12Q389.98 366.64 390.38 367.12Q390.78 367.60 391.18 367.60L391.18 367.60L395.10 367.60Q395.42 367.60 395.58 368.08Q395.74 368.56 395.74 368.96L395.74 368.96Q395.74 369.28 395.62 369.64Q395.50 370 395.26 370L395.26 370Q393.10 370 391.78 369.96Q390.46 369.92 389.34 369.92Q388.22 369.92 386.54 369.92L386.54 369.92Q383.10 369.92 381.34 370.04Q379.58 370.16 377.26 370.16L377.26 370.16Q377.02 370.16 376.86 369.72Q376.70 369.28 376.70 368.96L376.70 368.96Q376.70 368.56 376.82 368.16Q376.94 367.76 377.10 367.76L377.10 367.76L381.74 367.76Q382.70 367.76 382.70 366.40L382.70 366.40L382.70 347.60Q382.70 344.16 382.38 342.52Q382.06 340.88 381.54 340.36Q381.02 339.84 380.46 339.84L380.46 339.84L378.86 339.84Q378.62 339.84 378.42 339.40Q378.22 338.96 378.22 338.56L378.22 338.56Q378.22 338.32 378.30 337.88Q378.38 337.44 378.70 337.44L378.70 337.44Q380.54 337.44 382.14 336.60Q383.74 335.76 384.98 334.60Q386.22 333.44 387.10 332.60Q387.98 331.76 388.30 331.76L388.30 331.76Q389.42 331.76 389.42 332.72L389.42 332.72Q389.42 334.16 389.38 335.08Q389.34 336 389.30 336.80Q389.26 337.60 389.26 338.96L389.26 338.96ZM445.26 346.24L445.26 360.56Q445.26 363.60 445.50 365.12Q445.74 366.64 446.14 367.12Q446.54 367.60 446.94 367.60L446.94 367.60L450.86 367.60Q451.18 367.60 451.34 368.08Q451.50 368.56 451.50 368.96L451.50 368.96Q451.50 369.28 451.38 369.64Q451.26 370 451.02 370L451.02 370Q448.86 370 447.54 369.96Q446.22 369.92 445.10 369.92Q443.98 369.92 442.30 369.92L442.30 369.92Q438.86 369.92 437.10 370.04Q435.34 370.16 433.02 370.16L433.02 370.16Q432.78 370.16 432.62 369.72Q432.46 369.28 432.46 368.96L432.46 368.96Q432.46 368.56 432.58 368.16Q432.70 367.76 432.86 367.76L432.86 367.76L437.50 367.76Q438.46 367.76 438.46 366.40L438.46 366.40L438.46 347.60Q438.46 344.16 438.14 342.52Q437.82 340.88 437.30 340.36Q436.78 339.84 436.22 339.84L436.22 339.84L434.62 339.84Q434.38 339.84 434.18 339.40Q433.98 338.96 433.98 338.56L433.98 338.56Q433.98 338.32 434.06 337.88Q434.14 337.44 434.46 337.44L434.46 337.44Q436.38 337.44 437.98 336.60Q439.58 335.76 440.86 334.60Q442.14 333.44 443.02 332.60Q443.90 331.76 444.38 331.76L444.38 331.76Q445.58 331.76 445.58 332.72L445.58 332.72Q445.58 333.84 445.54 334.76Q445.50 335.68 445.42 337Q445.34 338.32 445.30 340.48Q445.26 342.64 445.26 346.24L445.26 346.24ZM441.90 325.60L441.90 325.60Q440.14 325.60 438.98 324.36Q437.82 323.12 437.82 321.36L437.82 321.36Q437.82 319.68 439.06 318.56Q440.30 317.44 441.90 317.44L441.90 317.44Q443.50 317.44 444.74 318.60Q445.98 319.76 445.98 321.36L445.98 321.36Q445.98 323.12 444.82 324.36Q443.66 325.60 441.90 325.60ZM492.78 350L492.78 350Q488.62 350.32 482.78 350.24Q476.94 350.16 469.26 350.64L469.26 350.64Q469.26 354.40 470.62 357Q471.98 359.60 474.14 361.20Q476.30 362.80 478.82 363.52Q481.34 364.24 483.66 364.24L483.66 364.24Q486.94 364.24 488.98 363.60Q491.02 362.96 492.18 362.16Q493.34 361.36 493.98 360.72Q494.62 360.08 495.18 360.08L495.18 360.08Q496.06 360.08 496.06 361.04L496.06 361.04Q496.06 361.52 495.30 363.12Q494.54 364.72 492.90 366.56Q491.26 368.40 488.46 369.72Q485.66 371.04 481.58 371.04L481.58 371.04Q476.78 371.04 473.02 368.52Q469.26 366 467.10 362Q464.94 358 464.94 353.60L464.94 353.60Q464.94 349.04 466.58 345.40Q468.22 341.76 470.90 339.24Q473.58 336.72 476.78 335.40Q479.98 334.08 483.18 334.08L483.18 334.08Q486.62 334.08 489.38 335.76Q492.14 337.44 493.82 340.44Q495.50 343.44 495.50 347.60L495.50 347.60Q495.50 348.88 494.94 349.36Q494.38 349.84 492.78 350ZM481.02 338.40L481.02 338.40Q478.62 338.40 476.18 339.48Q473.74 340.56 471.94 342.72Q470.14 344.88 469.50 348.16L469.50 348.16Q472.30 347.84 475.50 347.60Q478.70 347.36 481.58 347.12Q484.46 346.88 486.06 346.64L486.06 346.64Q487.50 346.48 488.10 346.16Q488.70 345.84 488.70 345.12L488.70 345.12Q488.70 342.40 486.50 340.40Q484.30 338.40 481.02 338.40ZM522.46 339.92L522.62 339.92Q523.58 338.88 525.34 337.52Q527.10 336.16 529.34 335.08Q531.58 334 533.82 334L533.82 334Q535.90 334 536.90 335Q537.90 336 537.90 337.36L537.90 337.36Q537.90 338.64 536.98 340Q536.06 341.36 534.30 342.16L534.30 342.16Q532.94 340.96 531.46 340.24Q529.98 339.52 528.54 339.52L528.54 339.52Q526.70 339.52 525.18 340.44Q523.66 341.36 522.70 342.64L522.70 342.64L522.70 360.56Q522.70 363.60 522.94 365.12Q523.18 366.64 523.58 367.12Q523.98 367.60 524.38 367.60L524.38 367.60L528.30 367.60Q528.62 367.60 528.78 368.08Q528.94 368.56 528.94 368.96L528.94 368.96Q528.94 369.28 528.82 369.64Q528.70 370 528.46 370L528.46 370Q526.30 370 524.98 369.96Q523.66 369.92 522.54 369.92Q521.42 369.92 519.74 369.92L519.74 369.92Q516.30 369.92 514.54 370.04Q512.78 370.16 510.46 370.16L510.46 370.16Q510.22 370.16 510.06 369.72Q509.90 369.28 509.90 368.96L509.90 368.96Q509.90 368.56 510.02 368.16Q510.14 367.76 510.30 367.76L510.30 367.76L514.94 367.76Q515.90 367.76 515.90 366.40L515.90 366.40L515.90 347.60Q515.90 344.16 515.58 342.52Q515.26 340.88 514.74 340.36Q514.22 339.84 513.66 339.84L513.66 339.84L512.06 339.84Q511.82 339.84 511.62 339.40Q511.42 338.96 511.42 338.56L511.42 338.56Q511.42 338.32 511.50 337.88Q511.58 337.44 511.90 337.44L511.90 337.44Q513.74 337.44 515.34 336.60Q516.94 335.76 518.18 334.60Q519.42 333.44 520.30 332.60Q521.18 331.76 521.50 331.76L521.50 331.76Q522.62 331.76 522.62 332.72L522.62 332.72Q522.62 334.96 522.54 336.44Q522.46 337.92 522.46 339.92L522.46 339.92ZM561.66 346.24L561.66 360.56Q561.66 363.60 561.90 365.12Q562.14 366.64 562.54 367.12Q562.94 367.60 563.34 367.60L563.34 367.60L567.26 367.60Q567.58 367.60 567.74 368.08Q567.90 368.56 567.90 368.96L567.90 368.96Q567.90 369.28 567.78 369.64Q567.66 370 567.42 370L567.42 370Q565.26 370 563.94 369.96Q562.62 369.92 561.50 369.92Q560.38 369.92 558.70 369.92L558.70 369.92Q555.26 369.92 553.50 370.04Q551.74 370.16 549.42 370.16L549.42 370.16Q549.18 370.16 549.02 369.72Q548.86 369.28 548.86 368.96L548.86 368.96Q548.86 368.56 548.98 368.16Q549.10 367.76 549.26 367.76L549.26 367.76L553.90 367.76Q554.86 367.76 554.86 366.40L554.86 366.40L554.86 347.60Q554.86 344.16 554.54 342.52Q554.22 340.88 553.70 340.36Q553.18 339.84 552.62 339.84L552.62 339.84L551.02 339.84Q550.78 339.84 550.58 339.40Q550.38 338.96 550.38 338.56L550.38 338.56Q550.38 338.32 550.46 337.88Q550.54 337.44 550.86 337.44L550.86 337.44Q552.78 337.44 554.38 336.60Q555.98 335.76 557.26 334.60Q558.54 333.44 559.42 332.60Q560.30 331.76 560.78 331.76L560.78 331.76Q561.98 331.76 561.98 332.72L561.98 332.72Q561.98 333.84 561.94 334.76Q561.90 335.68 561.82 337Q561.74 338.32 561.70 340.48Q561.66 342.64 561.66 346.24L561.66 346.24ZM554.22 327.12L554.22 327.12Q553.90 327.36 553.42 327.36L553.42 327.36Q552.38 327.36 552.38 326.64L552.38 326.64Q552.38 326.40 552.70 326.08L552.70 326.08Q556.30 322 558.30 319.16Q560.30 316.32 561.46 314.56Q562.62 312.80 563.70 311.96Q564.78 311.12 566.62 311.12L566.62 311.12Q567.82 311.12 568.62 311.84Q569.42 312.56 569.42 313.68L569.42 313.68Q569.42 315.12 568.14 316.64Q566.86 318.16 563.54 320.56Q560.22 322.96 554.22 327.12ZM608.22 344.08L608.22 344.08Q608.22 346.48 608.02 349.48Q607.82 352.48 607.62 355.32Q607.42 358.16 607.42 360.16L607.42 360.16Q607.42 363.28 608.38 364.40Q609.34 365.52 610.94 365.52L610.94 365.52Q612.78 365.52 613.38 364.68Q613.98 363.84 614.54 363.84L614.54 363.84Q615.34 363.84 615.34 364.64L615.34 364.64Q615.34 365.92 614.26 367.40Q613.18 368.88 611.50 369.88Q609.82 370.88 607.90 370.88L607.90 370.88Q604.70 370.88 603.26 368.32Q601.82 365.76 601.90 362L601.90 362L601.66 362Q600.30 365.84 596.86 368.44Q593.42 371.04 589.02 371.04L589.02 371.04Q585.82 371.04 583.82 369.52Q581.82 368 581.82 365.04L581.82 365.04Q581.82 360.32 587.14 356.40Q592.46 352.48 601.50 349.76L601.50 349.76Q601.58 348.72 601.62 347.88Q601.66 347.04 601.66 346.56L601.66 346.56Q601.66 342.56 600.14 339.60Q598.62 336.64 594.86 336.64L594.86 336.64Q591.98 336.64 589.86 338.40Q587.74 340.16 587.74 343.92L587.74 343.92Q587.74 344.32 587.74 344.76Q587.74 345.20 587.82 345.68L587.82 345.68Q587.50 346.08 586.90 346.28Q586.30 346.48 585.66 346.48L585.66 346.48Q584.30 346.48 582.98 345.60Q581.66 344.72 581.66 342.72L581.66 342.72Q581.66 340.16 583.90 338.20Q586.14 336.24 589.42 335.12Q592.70 334 595.82 334L595.82 334Q601.50 334 604.86 336.28Q608.22 338.56 608.22 344.08ZM592.78 366.64L592.78 366.64Q595.82 366.64 598.50 362.88Q601.18 359.12 601.50 352.08L601.50 352.08Q596.70 353.84 594.06 355.60Q591.42 357.36 590.34 359.16Q589.26 360.96 589.26 362.88L589.26 362.88Q589.26 364.56 590.10 365.60Q590.94 366.64 592.78 366.64ZM691.42 339.92L691.42 358.32Q691.42 361.04 691.62 362.56Q691.82 364.08 692.54 364.72L692.54 364.72Q693.18 365.20 694.22 365.20L694.22 365.20Q694.94 365.20 695.66 365.08Q696.38 364.96 696.94 364.96L696.94 364.96Q697.18 364.96 697.38 365.36Q697.58 365.76 697.58 366.16L697.58 366.16Q697.58 367.20 697.10 367.36L697.10 367.36Q693.66 367.92 691.58 368.80Q689.50 369.68 688.42 370.36Q687.34 371.04 686.78 371.04L686.78 371.04Q685.90 371.04 685.50 369.88Q685.10 368.72 684.98 367.28Q684.86 365.84 684.78 365.04L684.78 365.04L684.62 365.04Q682.62 367.52 679.30 369.28Q675.98 371.04 671.34 371.04L671.34 371.04Q664.06 371.04 659.94 366.24Q655.82 361.44 655.82 353.68L655.82 353.68Q655.82 348.24 658.34 343.80Q660.86 339.36 665.10 336.68Q669.34 334 674.38 334L674.38 334Q678.78 334 681.06 335.24Q683.34 336.48 684.62 337.52L684.62 337.52L684.62 323.28Q684.62 319.84 684.30 318.20Q683.98 316.56 683.54 316.04Q683.10 315.52 682.62 315.52L682.62 315.52L679.02 315.52Q678.78 315.52 678.58 315.08Q678.38 314.64 678.38 314.24L678.38 314.24Q678.38 314 678.46 313.56Q678.54 313.12 678.86 313.12L678.86 313.12Q683.18 313.12 685.94 312Q688.70 310.88 690.30 310.24L690.30 310.24Q691.50 310.24 691.50 311.20L691.50 311.20Q691.50 312.32 691.50 315.24Q691.50 318.16 691.46 322.24Q691.42 326.32 691.42 330.88Q691.42 335.44 691.42 339.92L691.42 339.92ZM684.62 362.48L684.62 348.16Q684.06 341.76 681.38 339.32Q678.70 336.88 674.62 336.88L674.62 336.88Q670.70 336.88 668.30 339.28Q665.90 341.68 664.86 345.24Q663.82 348.80 663.82 352.40L663.82 352.40Q663.82 355.92 665.26 359.08Q666.70 362.24 669.42 364.20Q672.14 366.16 675.98 366.16L675.98 366.16Q679.74 366.16 681.62 364.80Q683.50 363.44 684.62 362.48L684.62 362.48ZM737.50 350L737.50 350Q733.34 350.32 727.50 350.24Q721.66 350.16 713.98 350.64L713.98 350.64Q713.98 354.40 715.34 357Q716.70 359.60 718.86 361.20Q721.02 362.80 723.54 363.52Q726.06 364.24 728.38 364.24L728.38 364.24Q731.66 364.24 733.70 363.60Q735.74 362.96 736.90 362.16Q738.06 361.36 738.70 360.72Q739.34 360.08 739.90 360.08L739.90 360.08Q740.78 360.08 740.78 361.04L740.78 361.04Q740.78 361.52 740.02 363.12Q739.26 364.72 737.62 366.56Q735.98 368.40 733.18 369.72Q730.38 371.04 726.30 371.04L726.30 371.04Q721.50 371.04 717.74 368.52Q713.98 366 711.82 362Q709.66 358 709.66 353.60L709.66 353.60Q709.66 349.04 711.30 345.40Q712.94 341.76 715.62 339.24Q718.30 336.72 721.50 335.40Q724.70 334.08 727.90 334.08L727.90 334.08Q731.34 334.08 734.10 335.76Q736.86 337.44 738.54 340.44Q740.22 343.44 740.22 347.60L740.22 347.60Q740.22 348.88 739.66 349.36Q739.10 349.84 737.50 350ZM725.74 338.40L725.74 338.40Q723.34 338.40 720.90 339.48Q718.46 340.56 716.66 342.72Q714.86 344.88 714.22 348.16L714.22 348.16Q717.02 347.84 720.22 347.60Q723.42 347.36 726.30 347.12Q729.18 346.88 730.78 346.64L730.78 346.64Q732.22 346.48 732.82 346.16Q733.42 345.84 733.42 345.12L733.42 345.12Q733.42 342.40 731.22 340.40Q729.02 338.40 725.74 338.40ZM819.82 356.32L819.82 356.32Q819.82 360.72 817.14 364.04Q814.46 367.36 810.10 369.20Q805.74 371.04 800.70 371.04L800.70 371.04Q797.26 371.04 794.26 370.24Q791.26 369.44 789.42 368.64L789.42 368.64L790.06 370.24Q790.30 370.80 789.66 371.20Q789.02 371.60 788.30 371.60L788.30 371.60Q787.66 371.60 787.42 371.20L787.42 371.20Q786.78 369.44 786.10 366.84Q785.42 364.24 784.94 361.40Q784.46 358.56 784.30 356.16L784.30 356.16Q784.30 355.76 784.70 355.56Q785.10 355.36 785.66 355.36L785.66 355.36Q786.06 355.36 786.46 355.48Q786.86 355.60 786.94 355.92L786.94 355.92Q787.42 357.44 788.50 359.48Q789.58 361.52 791.34 363.48Q793.10 365.44 795.62 366.72Q798.14 368 801.34 368L801.34 368Q806.30 368 808.86 365.32Q811.42 362.64 811.42 359.44L811.42 359.44Q811.42 355.60 809.66 352.96Q807.90 350.32 805.06 348.40Q802.22 346.48 799.10 344.72Q795.98 342.96 793.14 340.96Q790.30 338.96 788.54 336.12Q786.78 333.28 786.78 329.20L786.78 329.20Q786.78 325.36 789.14 322.20Q791.50 319.04 795.66 317.16Q799.82 315.28 805.18 315.28L805.18 315.28Q808.46 315.28 810.66 315.88Q812.86 316.48 812.86 316.48L812.86 316.48Q812.78 316.24 812.66 315.52Q812.54 314.80 812.54 314.64L812.54 314.64Q812.46 314.24 812.86 314.04Q813.26 313.84 813.74 313.84L813.74 313.84Q814.70 313.84 814.94 314.48L814.94 314.48Q815.90 317.84 816.46 321.28Q817.02 324.72 817.10 327.20L817.10 327.20Q817.02 327.44 816.50 327.56Q815.98 327.68 815.42 327.68L815.42 327.68Q814.70 327.68 814.46 327.44L814.46 327.44Q813.90 325.44 812.86 323.36Q811.82 321.28 809.74 319.80Q807.66 318.32 803.98 318.32L803.98 318.32Q800.30 318.32 798.30 319.64Q796.30 320.96 795.54 322.92Q794.78 324.88 794.78 326.80L794.78 326.80Q794.78 330 796.58 332.24Q798.38 334.48 801.26 336.24Q804.14 338 807.30 339.76Q810.46 341.52 813.34 343.68Q816.22 345.84 818.02 348.88Q819.82 351.92 819.82 356.32ZM853.58 334L853.58 334Q857.34 334 860.78 335.40Q864.22 336.80 866.94 339.32Q869.66 341.84 871.26 345.20Q872.86 348.56 872.86 352.40L872.86 352.40Q872.86 357.76 870.22 362Q867.58 366.24 863.22 368.64Q858.86 371.04 853.58 371.04L853.58 371.04Q848.38 371.04 844.02 368.48Q839.66 365.92 837.02 361.64Q834.38 357.36 834.38 352.08L834.38 352.08Q834.38 348.24 835.98 344.96Q837.58 341.68 840.30 339.20Q843.02 336.72 846.46 335.36Q849.90 334 853.58 334ZM853.26 336.88L853.26 336.88Q850.30 336.88 848.22 338.28Q846.14 339.68 844.86 342Q843.58 344.32 842.98 347.04Q842.38 349.76 842.38 352.40L842.38 352.40Q842.38 356.16 843.50 359.80Q844.62 363.44 847.18 365.80Q849.74 368.16 853.98 368.16L853.98 368.16Q857.98 368.16 860.34 365.84Q862.70 363.52 863.78 359.96Q864.86 356.40 864.86 352.88L864.86 352.88Q864.86 349.04 863.78 345.36Q862.70 341.68 860.14 339.28Q857.58 336.88 853.26 336.88ZM892.22 366.40L892.22 338.08L886.62 338.08Q885.74 338.08 885.74 336.72L885.74 336.72Q885.74 336.24 885.94 335.84Q886.14 335.44 886.46 335.44L886.46 335.44Q887.34 335.44 888.54 335.36Q889.74 335.28 890.78 334.92Q891.82 334.56 892.06 333.76L892.06 333.76Q892.78 331.52 893.46 328.64Q894.14 325.76 895.22 322.88Q896.30 320 898.22 317.56Q900.14 315.12 903.22 313.60Q906.30 312.08 910.94 312.08L910.94 312.08Q914.22 312.08 916.46 313.68Q918.70 315.28 918.70 317.20L918.70 317.20Q918.70 318.32 917.86 319.44Q917.02 320.56 914.70 321.28L914.70 321.28Q913.42 319.28 911.70 317.36Q909.98 315.44 907.26 315.44L907.26 315.44Q904.22 315.44 902.50 317.24Q900.78 319.04 900.06 321.76Q899.34 324.48 899.18 327.44Q899.02 330.40 899.02 332.72L899.02 332.72L899.02 335.04L908.06 335.04Q908.46 335.04 908.70 335.60Q908.94 336.16 908.94 336.72L908.94 336.72Q908.94 337.12 908.78 337.60Q908.62 338.08 908.22 338.08L908.22 338.08L899.02 338.08L899.02 360.56Q899.02 363.60 899.26 365.12Q899.50 366.64 899.90 367.12Q900.30 367.60 900.70 367.60L900.70 367.60L904.62 367.60Q904.94 367.60 905.10 368.08Q905.26 368.56 905.26 368.96L905.26 368.96Q905.26 369.28 905.14 369.64Q905.02 370 904.78 370L904.78 370Q902.62 370 901.30 369.96Q899.98 369.92 898.86 369.92Q897.74 369.92 896.06 369.92L896.06 369.92Q892.62 369.92 890.86 370.04Q889.10 370.16 886.78 370.16L886.78 370.16Q886.54 370.16 886.38 369.72Q886.22 369.28 886.22 368.96L886.22 368.96Q886.22 368.56 886.34 368.16Q886.46 367.76 886.62 367.76L886.62 367.76L891.26 367.76Q892.22 367.76 892.22 366.40L892.22 366.40ZM926.38 360.40L926.38 338.08L922.30 338.08Q921.98 338.08 921.74 337.64Q921.50 337.20 921.50 336.88L921.50 336.88Q921.50 336.56 921.66 336.16Q921.82 335.76 922.14 335.68L922.14 335.68Q926.14 334.88 928.30 331.80Q930.46 328.72 931.82 324.80L931.82 324.80Q931.98 324.40 932.30 324.32Q932.62 324.24 932.86 324.24L932.86 324.24Q933.66 324.24 933.66 325.28L933.66 325.28Q933.66 327.04 933.42 329.16Q933.18 331.28 933.18 335.04L933.18 335.04L943.10 335.04Q943.50 335.04 943.70 335.60Q943.90 336.16 943.90 336.72L943.90 336.72Q943.90 337.12 943.78 337.60Q943.66 338.08 943.26 338.08L943.26 338.08L933.18 338.08L933.18 358.64Q933.18 362.48 934.50 364.36Q935.82 366.24 939.10 366.24L939.10 366.24Q940.86 366.24 941.86 365.44Q942.86 364.64 943.46 363.88Q944.06 363.12 944.46 363.12L944.46 363.12Q945.26 363.12 945.26 363.84L945.26 363.84Q945.26 365.04 944.10 366.80Q942.94 368.56 940.78 369.92Q938.62 371.28 935.58 371.28L935.58 371.28Q931.34 371.28 928.86 368.52Q926.38 365.76 926.38 360.40L926.38 360.40ZM1010.38 337.04L1008.30 337.04Q1007.42 337.04 1007.02 337.76L1007.02 337.76Q1005.98 339.44 1004.50 342.92Q1003.02 346.40 1001.34 350.68Q999.66 354.96 998.10 359.16Q996.54 363.36 995.42 366.60Q994.30 369.84 993.90 371.12L993.90 371.12Q993.58 371.84 992.30 371.84L992.30 371.84Q991.10 371.84 990.78 371.04L990.78 371.04Q990.30 368.96 988.98 365.40Q987.66 361.84 985.98 357.56Q984.30 353.28 982.54 349.12L982.54 349.12Q980.78 353.52 979.06 358.08Q977.34 362.64 976.10 366.20Q974.86 369.76 974.46 371.12L974.46 371.12Q974.14 371.84 972.86 371.84L972.86 371.84Q971.66 371.84 971.34 371.04L971.34 371.04Q970.78 368.88 969.30 365.04Q967.82 361.20 965.82 356.64Q963.82 352.08 961.82 347.72Q959.82 343.36 958.30 340.16L958.30 340.16Q957.34 338.16 956.54 337.64Q955.74 337.12 954.06 337.12L954.06 337.12Q953.58 337.12 953.58 336.16L953.58 336.16Q953.58 335.76 953.70 335.36Q953.82 334.96 954.06 334.96L954.06 334.96Q956.30 334.96 957.90 335.04Q959.50 335.12 961.66 335.12L961.66 335.12Q963.18 335.12 964.78 335.04Q966.38 334.96 969.10 334.96L969.10 334.96Q969.42 334.96 969.50 335.28Q969.58 335.60 969.58 336L969.58 336Q969.58 337.04 969.10 337.04L969.10 337.04L966.46 337.04Q965.58 337.04 965.58 337.76L965.58 337.76Q965.58 338.08 966.22 339.84Q966.86 341.60 967.94 344.32Q969.02 347.04 970.22 350.24Q971.42 353.44 972.62 356.64Q973.82 359.84 974.70 362.48L974.70 362.48Q976.38 356.80 977.98 352.36Q979.58 347.92 980.62 344.80L980.62 344.80Q979.58 342.32 978.54 340.16L978.54 340.16Q977.58 338.16 976.78 337.64Q975.98 337.12 974.30 337.12L974.30 337.12Q973.82 337.12 973.82 336.16L973.82 336.16Q973.82 335.76 973.94 335.36Q974.06 334.96 974.30 334.96L974.30 334.96Q976.54 334.96 978.14 335.04Q979.74 335.12 981.90 335.12L981.90 335.12Q983.42 335.12 985.62 335.04Q987.82 334.96 990.54 334.96L990.54 334.96Q990.86 334.96 990.94 335.28Q991.02 335.60 991.02 336L991.02 336Q991.02 337.04 990.54 337.04L990.54 337.04L986.70 337.04Q985.82 337.04 985.82 337.76L985.82 337.76Q985.82 338.08 986.70 340.72Q987.58 343.36 988.90 347.16Q990.22 350.96 991.62 355.04Q993.02 359.12 994.14 362.48L994.14 362.48Q996.94 353.12 999.26 347.08Q1001.58 341.04 1001.58 338.72L1001.58 338.72Q1001.58 337.76 1001.30 337.44Q1001.02 337.12 1000.62 337.12L1000.62 337.12L997.34 337.12Q996.78 337.12 996.78 336.24L996.78 336.24Q996.78 335.84 996.90 335.40Q997.02 334.96 997.18 334.96L997.18 334.96Q999.18 334.96 1000.34 335Q1001.50 335.04 1002.42 335.08Q1003.34 335.12 1004.54 335.12L1004.54 335.12Q1005.98 335.12 1007.18 335.04Q1008.38 334.96 1010.38 334.96L1010.38 334.96Q1010.70 334.96 1010.82 335.28Q1010.94 335.60 1010.94 336L1010.94 336Q1010.94 337.04 1010.38 337.04L1010.38 337.04ZM1048.46 344.08L1048.46 344.08Q1048.46 346.48 1048.26 349.48Q1048.06 352.48 1047.86 355.32Q1047.66 358.16 1047.66 360.16L1047.66 360.16Q1047.66 363.28 1048.62 364.40Q1049.58 365.52 1051.18 365.52L1051.18 365.52Q1053.02 365.52 1053.62 364.68Q1054.22 363.84 1054.78 363.84L1054.78 363.84Q1055.58 363.84 1055.58 364.64L1055.58 364.64Q1055.58 365.92 1054.50 367.40Q1053.42 368.88 1051.74 369.88Q1050.06 370.88 1048.14 370.88L1048.14 370.88Q1044.94 370.88 1043.50 368.32Q1042.06 365.76 1042.14 362L1042.14 362L1041.90 362Q1040.54 365.84 1037.10 368.44Q1033.66 371.04 1029.26 371.04L1029.26 371.04Q1026.06 371.04 1024.06 369.52Q1022.06 368 1022.06 365.04L1022.06 365.04Q1022.06 360.32 1027.38 356.40Q1032.70 352.48 1041.74 349.76L1041.74 349.76Q1041.82 348.72 1041.86 347.88Q1041.90 347.04 1041.90 346.56L1041.90 346.56Q1041.90 342.56 1040.38 339.60Q1038.86 336.64 1035.10 336.64L1035.10 336.64Q1032.22 336.64 1030.10 338.40Q1027.98 340.16 1027.98 343.92L1027.98 343.92Q1027.98 344.32 1027.98 344.76Q1027.98 345.20 1028.06 345.68L1028.06 345.68Q1027.74 346.08 1027.14 346.28Q1026.54 346.48 1025.90 346.48L1025.90 346.48Q1024.54 346.48 1023.22 345.60Q1021.90 344.72 1021.90 342.72L1021.90 342.72Q1021.90 340.16 1024.14 338.20Q1026.38 336.24 1029.66 335.12Q1032.94 334 1036.06 334L1036.06 334Q1041.74 334 1045.10 336.28Q1048.46 338.56 1048.46 344.08ZM1033.02 366.64L1033.02 366.64Q1036.06 366.64 1038.74 362.88Q1041.42 359.12 1041.74 352.08L1041.74 352.08Q1036.94 353.84 1034.30 355.60Q1031.66 357.36 1030.58 359.16Q1029.50 360.96 1029.50 362.88L1029.50 362.88Q1029.50 364.56 1030.34 365.60Q1031.18 366.64 1033.02 366.64ZM1079.50 339.92L1079.66 339.92Q1080.62 338.88 1082.38 337.52Q1084.14 336.16 1086.38 335.08Q1088.62 334 1090.86 334L1090.86 334Q1092.94 334 1093.94 335Q1094.94 336 1094.94 337.36L1094.94 337.36Q1094.94 338.64 1094.02 340Q1093.10 341.36 1091.34 342.16L1091.34 342.16Q1089.98 340.96 1088.50 340.24Q1087.02 339.52 1085.58 339.52L1085.58 339.52Q1083.74 339.52 1082.22 340.44Q1080.70 341.36 1079.74 342.64L1079.74 342.64L1079.74 360.56Q1079.74 363.60 1079.98 365.12Q1080.22 366.64 1080.62 367.12Q1081.02 367.60 1081.42 367.60L1081.42 367.60L1085.34 367.60Q1085.66 367.60 1085.82 368.08Q1085.98 368.56 1085.98 368.96L1085.98 368.96Q1085.98 369.28 1085.86 369.64Q1085.74 370 1085.50 370L1085.50 370Q1083.34 370 1082.02 369.96Q1080.70 369.92 1079.58 369.92Q1078.46 369.92 1076.78 369.92L1076.78 369.92Q1073.34 369.92 1071.58 370.04Q1069.82 370.16 1067.50 370.16L1067.50 370.16Q1067.26 370.16 1067.10 369.72Q1066.94 369.28 1066.94 368.96L1066.94 368.96Q1066.94 368.56 1067.06 368.16Q1067.18 367.76 1067.34 367.76L1067.34 367.76L1071.98 367.76Q1072.94 367.76 1072.94 366.40L1072.94 366.40L1072.94 347.60Q1072.94 344.16 1072.62 342.52Q1072.30 340.88 1071.78 340.36Q1071.26 339.84 1070.70 339.84L1070.70 339.84L1069.10 339.84Q1068.86 339.84 1068.66 339.40Q1068.46 338.96 1068.46 338.56L1068.46 338.56Q1068.46 338.32 1068.54 337.88Q1068.62 337.44 1068.94 337.44L1068.94 337.44Q1070.78 337.44 1072.38 336.60Q1073.98 335.76 1075.22 334.60Q1076.46 333.44 1077.34 332.60Q1078.22 331.76 1078.54 331.76L1078.54 331.76Q1079.66 331.76 1079.66 332.72L1079.66 332.72Q1079.66 334.96 1079.58 336.44Q1079.50 337.92 1079.50 339.92L1079.50 339.92ZM1134.38 350L1134.38 350Q1130.22 350.32 1124.38 350.24Q1118.54 350.16 1110.86 350.64L1110.86 350.64Q1110.86 354.40 1112.22 357Q1113.58 359.60 1115.74 361.20Q1117.90 362.80 1120.42 363.52Q1122.94 364.24 1125.26 364.24L1125.26 364.24Q1128.54 364.24 1130.58 363.60Q1132.62 362.96 1133.78 362.16Q1134.94 361.36 1135.58 360.72Q1136.22 360.08 1136.78 360.08L1136.78 360.08Q1137.66 360.08 1137.66 361.04L1137.66 361.04Q1137.66 361.52 1136.90 363.12Q1136.14 364.72 1134.50 366.56Q1132.86 368.40 1130.06 369.72Q1127.26 371.04 1123.18 371.04L1123.18 371.04Q1118.38 371.04 1114.62 368.52Q1110.86 366 1108.70 362Q1106.54 358 1106.54 353.60L1106.54 353.60Q1106.54 349.04 1108.18 345.40Q1109.82 341.76 1112.50 339.24Q1115.18 336.72 1118.38 335.40Q1121.58 334.08 1124.78 334.08L1124.78 334.08Q1128.22 334.08 1130.98 335.76Q1133.74 337.44 1135.42 340.44Q1137.10 343.44 1137.10 347.60L1137.10 347.60Q1137.10 348.88 1136.54 349.36Q1135.98 349.84 1134.38 350ZM1122.62 338.40L1122.62 338.40Q1120.22 338.40 1117.78 339.48Q1115.34 340.56 1113.54 342.72Q1111.74 344.88 1111.10 348.16L1111.10 348.16Q1113.90 347.84 1117.10 347.60Q1120.30 347.36 1123.18 347.12Q1126.06 346.88 1127.66 346.64L1127.66 346.64Q1129.10 346.48 1129.70 346.16Q1130.30 345.84 1130.30 345.12L1130.30 345.12Q1130.30 342.40 1128.10 340.40Q1125.90 338.40 1122.62 338.40ZM1214.78 337.04L1212.78 337.04Q1211.82 337.04 1211.26 338.16L1211.26 338.16Q1209.42 341.76 1207.46 346.56Q1205.50 351.36 1203.58 356.56Q1201.66 361.76 1199.94 366.60Q1198.22 371.44 1196.86 375.04L1196.86 375.04Q1192.62 386 1188.14 390.44Q1183.66 394.88 1178.94 394.88L1178.94 394.88Q1176.62 394.88 1175.14 393.96Q1173.66 393.04 1173.62 391.40Q1173.58 389.76 1175.50 387.68L1175.50 387.68Q1175.50 387.68 1177.02 388.48Q1178.54 389.28 1180.62 389.28L1180.62 389.28Q1182.62 389.28 1184.58 387.84Q1186.54 386.40 1188.26 384.12Q1189.98 381.84 1191.30 379.32Q1192.62 376.80 1193.38 374.60Q1194.14 372.40 1194.14 371.20L1194.14 371.20Q1194.14 368.64 1192.86 364.68Q1191.58 360.72 1189.62 356.20Q1187.66 351.68 1185.62 347.36Q1183.58 343.04 1182.14 339.84L1182.14 339.84Q1181.34 338.16 1180.54 337.64Q1179.74 337.12 1177.90 337.12L1177.90 337.12Q1177.42 337.12 1177.42 336.16L1177.42 336.16Q1177.42 335.76 1177.54 335.36Q1177.66 334.96 1177.90 334.96L1177.90 334.96Q1180.14 334.96 1181.74 335.04Q1183.34 335.12 1185.50 335.12L1185.50 335.12Q1187.02 335.12 1189.22 335.04Q1191.42 334.96 1194.14 334.96L1194.14 334.96Q1194.46 334.96 1194.54 335.28Q1194.62 335.60 1194.62 336L1194.62 336Q1194.62 337.04 1194.14 337.04L1194.14 337.04L1190.54 337.04Q1189.50 337.04 1189.50 337.76L1189.50 337.76Q1189.50 338.32 1190.86 341.76Q1192.22 345.20 1194.30 350.60Q1196.38 356 1198.54 362.48L1198.54 362.48Q1200.38 356.48 1202.10 351.72Q1203.82 346.96 1204.94 343.60Q1206.06 340.24 1206.06 338.48L1206.06 338.48Q1206.06 337.60 1205.70 337.36Q1205.34 337.12 1205.02 337.12L1205.02 337.12L1201.26 337.12Q1200.86 337.12 1200.86 336.24L1200.86 336.24Q1200.86 335.84 1200.98 335.40Q1201.10 334.96 1201.26 334.96L1201.26 334.96Q1204.30 334.96 1205.74 335.04Q1207.18 335.12 1208.94 335.12L1208.94 335.12Q1210.38 335.12 1211.58 335.04Q1212.78 334.96 1214.78 334.96L1214.78 334.96Q1215.10 334.96 1215.22 335.28Q1215.34 335.60 1215.34 336L1215.34 336Q1215.34 337.04 1214.78 337.04L1214.78 337.04ZM1271.58 343.52L1271.58 360.32Q1271.58 363.36 1271.86 364.88Q1272.14 366.40 1272.54 366.88Q1272.94 367.36 1273.26 367.36L1273.26 367.36L1277.90 367.36Q1278.30 367.36 1278.50 367.84Q1278.70 368.32 1278.70 368.88L1278.70 368.88Q1278.70 370 1277.90 370L1277.90 370L1274.46 370Q1273.66 370 1272.78 369.96Q1271.90 369.92 1271.02 369.92L1271.02 369.92L1267.82 369.92Q1264.46 369.92 1262.46 369.96Q1260.46 370 1259.18 370.08Q1257.90 370.16 1256.62 370.16L1256.62 370.16Q1256.30 370.16 1256.14 369.76Q1255.98 369.36 1255.98 368.88L1255.98 368.88Q1255.98 368.32 1256.14 367.88Q1256.30 367.44 1256.62 367.44L1256.62 367.44L1260.06 367.44Q1262.14 367.44 1262.74 366.64Q1263.34 365.84 1263.34 363.76L1263.34 363.76L1263.34 325.84Q1263.34 322.72 1263.06 321.24Q1262.78 319.76 1262.42 319.28Q1262.06 318.80 1261.66 318.80L1261.66 318.80L1257.02 318.80Q1256.38 318.80 1256.38 317.28L1256.38 317.28Q1256.38 316.88 1256.50 316.52Q1256.62 316.16 1257.02 316.16L1257.02 316.16Q1260.30 316.16 1262.82 316.24Q1265.34 316.32 1267.10 316.32L1267.10 316.32L1276.30 316.32Q1283.82 316.32 1288.46 318.32Q1293.10 320.32 1295.30 323.56Q1297.50 326.80 1297.50 330.40L1297.50 330.40Q1297.50 334.08 1295.38 337.52Q1293.26 340.96 1289.38 343.20Q1285.50 345.44 1280.14 345.44L1280.14 345.44Q1278.22 345.44 1276.06 345Q1273.90 344.56 1271.58 343.52L1271.58 343.52ZM1288.86 331.04L1288.86 331.04Q1288.86 328.16 1287.34 325.52Q1285.82 322.88 1282.62 321.20Q1279.42 319.52 1274.46 319.52L1274.46 319.52Q1272.94 319.52 1272.26 320.28Q1271.58 321.04 1271.58 323.20L1271.58 323.20L1271.58 340.96Q1273.74 341.44 1275.82 341.44L1275.82 341.44Q1280.14 341.44 1283.02 339.96Q1285.90 338.48 1287.38 336.12Q1288.86 333.76 1288.86 331.04ZM1323.02 339.92L1323.18 339.92Q1324.14 338.88 1325.90 337.52Q1327.66 336.16 1329.90 335.08Q1332.14 334 1334.38 334L1334.38 334Q1336.46 334 1337.46 335Q1338.46 336 1338.46 337.36L1338.46 337.36Q1338.46 338.64 1337.54 340Q1336.62 341.36 1334.86 342.16L1334.86 342.16Q1333.50 340.96 1332.02 340.24Q1330.54 339.52 1329.10 339.52L1329.10 339.52Q1327.26 339.52 1325.74 340.44Q1324.22 341.36 1323.26 342.64L1323.26 342.64L1323.26 360.56Q1323.26 363.60 1323.50 365.12Q1323.74 366.64 1324.14 367.12Q1324.54 367.60 1324.94 367.60L1324.94 367.60L1328.86 367.60Q1329.18 367.60 1329.34 368.08Q1329.50 368.56 1329.50 368.96L1329.50 368.96Q1329.50 369.28 1329.38 369.64Q1329.26 370 1329.02 370L1329.02 370Q1326.86 370 1325.54 369.96Q1324.22 369.92 1323.10 369.92Q1321.98 369.92 1320.30 369.92L1320.30 369.92Q1316.86 369.92 1315.10 370.04Q1313.34 370.16 1311.02 370.16L1311.02 370.16Q1310.78 370.16 1310.62 369.72Q1310.46 369.28 1310.46 368.96L1310.46 368.96Q1310.46 368.56 1310.58 368.16Q1310.70 367.76 1310.86 367.76L1310.86 367.76L1315.50 367.76Q1316.46 367.76 1316.46 366.40L1316.46 366.40L1316.46 347.60Q1316.46 344.16 1316.14 342.52Q1315.82 340.88 1315.30 340.36Q1314.78 339.84 1314.22 339.84L1314.22 339.84L1312.62 339.84Q1312.38 339.84 1312.18 339.40Q1311.98 338.96 1311.98 338.56L1311.98 338.56Q1311.98 338.32 1312.06 337.88Q1312.14 337.44 1312.46 337.44L1312.46 337.44Q1314.30 337.44 1315.90 336.60Q1317.50 335.76 1318.74 334.60Q1319.98 333.44 1320.86 332.60Q1321.74 331.76 1322.06 331.76L1322.06 331.76Q1323.18 331.76 1323.18 332.72L1323.18 332.72Q1323.18 334.96 1323.10 336.44Q1323.02 337.92 1323.02 339.92L1323.02 339.92ZM1368.86 334L1368.86 334Q1372.62 334 1376.06 335.40Q1379.50 336.80 1382.22 339.32Q1384.94 341.84 1386.54 345.20Q1388.14 348.56 1388.14 352.40L1388.14 352.40Q1388.14 357.76 1385.50 362Q1382.86 366.24 1378.50 368.64Q1374.14 371.04 1368.86 371.04L1368.86 371.04Q1363.66 371.04 1359.30 368.48Q1354.94 365.92 1352.30 361.64Q1349.66 357.36 1349.66 352.08L1349.66 352.08Q1349.66 348.24 1351.26 344.96Q1352.86 341.68 1355.58 339.20Q1358.30 336.72 1361.74 335.36Q1365.18 334 1368.86 334ZM1368.54 336.88L1368.54 336.88Q1365.58 336.88 1363.50 338.28Q1361.42 339.68 1360.14 342Q1358.86 344.32 1358.26 347.04Q1357.66 349.76 1357.66 352.40L1357.66 352.40Q1357.66 356.16 1358.78 359.80Q1359.90 363.44 1362.46 365.80Q1365.02 368.16 1369.26 368.16L1369.26 368.16Q1373.26 368.16 1375.62 365.84Q1377.98 363.52 1379.06 359.96Q1380.14 356.40 1380.14 352.88L1380.14 352.88Q1380.14 349.04 1379.06 345.36Q1377.98 341.68 1375.42 339.28Q1372.86 336.88 1368.54 336.88ZM1436.14 337.04L1434.14 337.04Q1433.18 337.04 1432.62 338.16L1432.62 338.16Q1430.78 341.76 1428.82 346.56Q1426.86 351.36 1424.94 356.56Q1423.02 361.76 1421.30 366.60Q1419.58 371.44 1418.22 375.04L1418.22 375.04Q1413.98 386 1409.50 390.44Q1405.02 394.88 1400.30 394.88L1400.30 394.88Q1397.98 394.88 1396.50 393.96Q1395.02 393.04 1394.98 391.40Q1394.94 389.76 1396.86 387.68L1396.86 387.68Q1396.86 387.68 1398.38 388.48Q1399.90 389.28 1401.98 389.28L1401.98 389.28Q1403.98 389.28 1405.94 387.84Q1407.90 386.40 1409.62 384.12Q1411.34 381.84 1412.66 379.32Q1413.98 376.80 1414.74 374.60Q1415.50 372.40 1415.50 371.20L1415.50 371.20Q1415.50 368.64 1414.22 364.68Q1412.94 360.72 1410.98 356.20Q1409.02 351.68 1406.98 347.36Q1404.94 343.04 1403.50 339.84L1403.50 339.84Q1402.70 338.16 1401.90 337.64Q1401.10 337.12 1399.26 337.12L1399.26 337.12Q1398.78 337.12 1398.78 336.16L1398.78 336.16Q1398.78 335.76 1398.90 335.36Q1399.02 334.96 1399.26 334.96L1399.26 334.96Q1401.50 334.96 1403.10 335.04Q1404.70 335.12 1406.86 335.12L1406.86 335.12Q1408.38 335.12 1410.58 335.04Q1412.78 334.96 1415.50 334.96L1415.50 334.96Q1415.82 334.96 1415.90 335.28Q1415.98 335.60 1415.98 336L1415.98 336Q1415.98 337.04 1415.50 337.04L1415.50 337.04L1411.90 337.04Q1410.86 337.04 1410.86 337.76L1410.86 337.76Q1410.86 338.32 1412.22 341.76Q1413.58 345.20 1415.66 350.60Q1417.74 356 1419.90 362.48L1419.90 362.48Q1421.74 356.48 1423.46 351.72Q1425.18 346.96 1426.30 343.60Q1427.42 340.24 1427.42 338.48L1427.42 338.48Q1427.42 337.60 1427.06 337.36Q1426.70 337.12 1426.38 337.12L1426.38 337.12L1422.62 337.12Q1422.22 337.12 1422.22 336.24L1422.22 336.24Q1422.22 335.84 1422.34 335.40Q1422.46 334.96 1422.62 334.96L1422.62 334.96Q1425.66 334.96 1427.10 335.04Q1428.54 335.12 1430.30 335.12L1430.30 335.12Q1431.74 335.12 1432.94 335.04Q1434.14 334.96 1436.14 334.96L1436.14 334.96Q1436.46 334.96 1436.58 335.28Q1436.70 335.60 1436.70 336L1436.70 336Q1436.70 337.04 1436.14 337.04L1436.14 337.04ZM1475.42 350L1475.42 350Q1471.26 350.32 1465.42 350.24Q1459.58 350.16 1451.90 350.64L1451.90 350.64Q1451.90 354.40 1453.26 357Q1454.62 359.60 1456.78 361.20Q1458.94 362.80 1461.46 363.52Q1463.98 364.24 1466.30 364.24L1466.30 364.24Q1469.58 364.24 1471.62 363.60Q1473.66 362.96 1474.82 362.16Q1475.98 361.36 1476.62 360.72Q1477.26 360.08 1477.82 360.08L1477.82 360.08Q1478.70 360.08 1478.70 361.04L1478.70 361.04Q1478.70 361.52 1477.94 363.12Q1477.18 364.72 1475.54 366.56Q1473.90 368.40 1471.10 369.72Q1468.30 371.04 1464.22 371.04L1464.22 371.04Q1459.42 371.04 1455.66 368.52Q1451.90 366 1449.74 362Q1447.58 358 1447.58 353.60L1447.58 353.60Q1447.58 349.04 1449.22 345.40Q1450.86 341.76 1453.54 339.24Q1456.22 336.72 1459.42 335.40Q1462.62 334.08 1465.82 334.08L1465.82 334.08Q1469.26 334.08 1472.02 335.76Q1474.78 337.44 1476.46 340.44Q1478.14 343.44 1478.14 347.60L1478.14 347.60Q1478.14 348.88 1477.58 349.36Q1477.02 349.84 1475.42 350ZM1463.66 338.40L1463.66 338.40Q1461.26 338.40 1458.82 339.48Q1456.38 340.56 1454.58 342.72Q1452.78 344.88 1452.14 348.16L1452.14 348.16Q1454.94 347.84 1458.14 347.60Q1461.34 347.36 1464.22 347.12Q1467.10 346.88 1468.70 346.64L1468.70 346.64Q1470.14 346.48 1470.74 346.16Q1471.34 345.84 1471.34 345.12L1471.34 345.12Q1471.34 342.40 1469.14 340.40Q1466.94 338.40 1463.66 338.40ZM1513.90 334L1513.90 334Q1517.82 334 1520.22 335.56Q1522.62 337.12 1522.62 339.12L1522.62 339.12Q1522.62 340.16 1521.94 341.16Q1521.26 342.16 1519.58 342.88L1519.58 342.88Q1516.94 340.32 1514.58 339.12Q1512.22 337.92 1509.50 337.92L1509.50 337.92Q1505.58 337.92 1502.58 341.20Q1499.58 344.48 1499.58 350.72L1499.58 350.72Q1499.58 355.84 1501.50 359.04Q1503.42 362.24 1506.38 363.76Q1509.34 365.28 1512.38 365.28L1512.38 365.28Q1515.90 365.28 1518.06 364.40Q1520.22 363.52 1521.46 362.68Q1522.70 361.84 1523.18 361.84L1523.18 361.84Q1524.14 361.84 1524.14 362.88L1524.14 362.88Q1524.14 363.44 1523.10 364.76Q1522.06 366.08 1520.14 367.52Q1518.22 368.96 1515.62 370Q1513.02 371.04 1509.90 371.04L1509.90 371.04Q1504.38 371.04 1500.58 368.68Q1496.78 366.32 1494.82 362.64Q1492.86 358.96 1492.86 354.96L1492.86 354.96Q1492.86 350.48 1494.62 346.68Q1496.38 342.88 1499.34 340.04Q1502.30 337.20 1506.06 335.60Q1509.82 334 1513.90 334ZM1541.50 360.40L1541.50 338.08L1537.42 338.08Q1537.10 338.08 1536.86 337.64Q1536.62 337.20 1536.62 336.88L1536.62 336.88Q1536.62 336.56 1536.78 336.16Q1536.94 335.76 1537.26 335.68L1537.26 335.68Q1541.26 334.88 1543.42 331.80Q1545.58 328.72 1546.94 324.80L1546.94 324.80Q1547.10 324.40 1547.42 324.32Q1547.74 324.24 1547.98 324.24L1547.98 324.24Q1548.78 324.24 1548.78 325.28L1548.78 325.28Q1548.78 327.04 1548.54 329.16Q1548.30 331.28 1548.30 335.04L1548.30 335.04L1558.22 335.04Q1558.62 335.04 1558.82 335.60Q1559.02 336.16 1559.02 336.72L1559.02 336.72Q1559.02 337.12 1558.90 337.60Q1558.78 338.08 1558.38 338.08L1558.38 338.08L1548.30 338.08L1548.30 358.64Q1548.30 362.48 1549.62 364.36Q1550.94 366.24 1554.22 366.24L1554.22 366.24Q1555.98 366.24 1556.98 365.44Q1557.98 364.64 1558.58 363.88Q1559.18 363.12 1559.58 363.12L1559.58 363.12Q1560.38 363.12 1560.38 363.84L1560.38 363.84Q1560.38 365.04 1559.22 366.80Q1558.06 368.56 1555.90 369.92Q1553.74 371.28 1550.70 371.28L1550.70 371.28Q1546.46 371.28 1543.98 368.52Q1541.50 365.76 1541.50 360.40L1541.50 360.40ZM1591.26 334L1591.26 334Q1595.02 334 1598.46 335.40Q1601.90 336.80 1604.62 339.32Q1607.34 341.84 1608.94 345.20Q1610.54 348.56 1610.54 352.40L1610.54 352.40Q1610.54 357.76 1607.90 362Q1605.26 366.24 1600.90 368.64Q1596.54 371.04 1591.26 371.04L1591.26 371.04Q1586.06 371.04 1581.70 368.48Q1577.34 365.92 1574.70 361.64Q1572.06 357.36 1572.06 352.08L1572.06 352.08Q1572.06 348.24 1573.66 344.96Q1575.26 341.68 1577.98 339.20Q1580.70 336.72 1584.14 335.36Q1587.58 334 1591.26 334ZM1590.94 336.88L1590.94 336.88Q1587.98 336.88 1585.90 338.28Q1583.82 339.68 1582.54 342Q1581.26 344.32 1580.66 347.04Q1580.06 349.76 1580.06 352.40L1580.06 352.40Q1580.06 356.16 1581.18 359.80Q1582.30 363.44 1584.86 365.80Q1587.42 368.16 1591.66 368.16L1591.66 368.16Q1595.66 368.16 1598.02 365.84Q1600.38 363.52 1601.46 359.96Q1602.54 356.40 1602.54 352.88L1602.54 352.88Q1602.54 349.04 1601.46 345.36Q1600.38 341.68 1597.82 339.28Q1595.26 336.88 1590.94 336.88ZM1644.22 334.80L1644.22 334.80Q1643.82 333.44 1644.06 333.20Q1644.30 332.96 1644.78 332.96L1644.78 332.96Q1645.42 332.96 1645.70 333.12Q1645.98 333.28 1646.22 334.16L1646.22 334.16Q1646.62 335.44 1646.74 336.44Q1646.86 337.44 1647.10 338.40L1647.10 338.40Q1647.34 339.44 1647.54 340.28Q1647.74 341.12 1648.06 342.88L1648.06 342.88Q1648.22 343.60 1647.02 343.60L1647.02 343.60Q1646.70 343.60 1646.38 343.48Q1646.06 343.36 1645.90 342.96L1645.90 342.96Q1644.86 340.08 1642.94 338.32Q1641.02 336.56 1638.30 336.56L1638.30 336.56Q1635.74 336.56 1634.22 338.08Q1632.70 339.60 1632.70 341.92L1632.70 341.92Q1632.70 344.32 1634.38 345.84Q1636.06 347.36 1638.50 348.60Q1640.94 349.84 1643.38 351.32Q1645.82 352.80 1647.50 355.04Q1649.18 357.28 1649.18 360.96L1649.18 360.96Q1649.18 364.32 1647.22 366.56Q1645.26 368.80 1642.18 369.92Q1639.10 371.04 1635.82 371.04L1635.82 371.04Q1631.66 371.04 1630.14 370.36Q1628.62 369.68 1628.62 369.68L1628.62 369.68Q1628.62 370.56 1628.50 370.80Q1628.38 371.04 1627.66 371.20L1627.66 371.20Q1627.34 371.28 1627.02 371.20Q1626.70 371.12 1626.62 370.56L1626.62 370.56Q1626.30 367.76 1625.86 365.48Q1625.42 363.20 1625.02 359.92L1625.02 359.92Q1624.94 359.28 1625.94 359.04Q1626.94 358.80 1627.10 359.44L1627.10 359.44Q1628.22 363.04 1630.50 365.76Q1632.78 368.48 1636.70 368.48L1636.70 368.48Q1639.10 368.48 1641.10 367.08Q1643.10 365.68 1643.10 362.88L1643.10 362.88Q1643.10 360.24 1641.46 358.52Q1639.82 356.80 1637.38 355.48Q1634.94 354.16 1632.50 352.76Q1630.06 351.36 1628.42 349.32Q1626.78 347.28 1626.78 344.08L1626.78 344.08Q1626.78 340.80 1628.46 338.56Q1630.14 336.32 1632.90 335.16Q1635.66 334 1639.02 334L1639.02 334Q1640.46 334 1641.82 334.20Q1643.18 334.40 1644.22 334.80Z" fill="#000000" stroke="#000000" stroke-width="1" stroke-linejoin="round"/>
</svg>
