<svg xmlns="http://www.w3.org/2000/svg" viewBox="0 0 1845 419">
  <path d="M73.63 211.94L73.63 117.56Q73.63 108.98 72.86 104.91Q72.09 100.84 71.10 99.52Q70.11 98.20 69.01 98.20L69.01 98.20L56.25 98.20Q54.49 98.20 54.49 94.02L54.49 94.02Q54.49 92.92 54.82 91.93Q55.15 90.94 56.25 90.94L56.25 90.94Q63.29 90.94 70.33 91.05Q77.37 91.16 83.97 91.16L83.97 91.16Q93.43 91.16 98.82 91.05Q104.21 90.94 107.73 90.72Q111.25 90.50 114.77 90.50L114.77 90.50Q115.87 90.50 116.20 91.60Q116.53 92.70 116.53 94.02L116.53 94.02Q116.53 95.56 116.09 96.77Q115.65 97.98 114.77 97.98L114.77 97.98L105.31 97.98Q99.81 97.98 98.05 100.18Q96.29 102.38 96.29 108.10L96.29 108.10L96.29 209.96Q96.29 225.58 95.19 238.78Q94.09 251.98 90.35 261.22L90.35 261.22Q85.95 271.78 78.14 280.36Q70.33 288.94 59.99 294Q49.65 299.06 37.33 299.06L37.33 299.06Q35.79 299.06 33.04 298.51Q30.29 297.96 27.98 296.20Q25.67 294.44 25.67 291.14L25.67 291.14Q25.67 282.78 35.35 279.04L35.35 279.04Q40.19 281.90 46.35 283.33Q52.51 284.76 56.47 284.76L56.47 284.76Q60.65 284.76 63.07 282.78Q65.49 280.80 67.03 277.94L67.03 277.94Q69.23 273.32 70.55 264.52Q71.87 255.72 72.53 245.60Q73.19 235.48 73.41 226.35Q73.63 217.22 73.63 211.94L73.63 211.94ZM222.35 88.52L222.35 88.52Q238.85 88.52 253.37 94.46Q267.89 100.40 278.89 110.96Q289.89 121.52 296.16 135.38Q302.43 149.24 302.43 165.08L302.43 165.08Q302.43 181.14 296.16 195Q289.89 208.86 278.89 219.42Q267.89 229.98 253.37 235.92Q238.85 241.86 222.35 241.86L222.35 241.86Q205.85 241.86 191.33 235.92Q176.81 229.98 165.81 219.42Q154.81 208.86 148.54 195Q142.27 181.14 142.27 165.08L142.27 165.08Q142.27 149.24 148.54 135.38Q154.81 121.52 165.81 110.96Q176.81 100.40 191.33 94.46Q205.85 88.52 222.35 88.52ZM222.35 98.64L222.35 98.64Q206.73 98.64 194.96 107.55Q183.19 116.46 176.59 131.53Q169.99 146.60 169.99 165.08L169.99 165.08Q169.99 183.56 176.59 198.74Q183.19 213.92 194.96 222.83Q206.73 231.74 222.35 231.74L222.35 231.74Q237.97 231.74 249.74 222.83Q261.51 213.92 268.11 198.74Q274.71 183.56 274.71 165.08L274.71 165.08Q274.71 146.60 268.11 131.53Q261.51 116.46 249.74 107.55Q237.97 98.64 222.35 98.64ZM431.79 201.38L431.79 201.38Q431.79 213.48 424.42 222.61Q417.05 231.74 405.06 236.80Q393.07 241.86 379.21 241.86L379.21 241.86Q369.75 241.86 361.50 239.66Q353.25 237.46 348.19 235.26L348.19 235.26L349.95 239.66Q350.61 241.20 348.85 242.30Q347.09 243.40 345.11 243.40L345.11 243.40Q343.35 243.40 342.69 242.30L342.69 242.30Q340.93 237.46 339.06 230.31Q337.19 223.16 335.87 215.35Q334.55 207.54 334.11 200.94L334.11 200.94Q334.11 199.84 335.21 199.29Q336.31 198.74 337.85 198.74L337.85 198.74Q338.95 198.74 340.05 199.07Q341.15 199.40 341.37 200.28L341.37 200.28Q342.69 204.46 345.66 210.07Q348.63 215.68 353.47 221.07Q358.31 226.46 365.24 229.98Q372.17 233.50 380.97 233.50L380.97 233.50Q394.61 233.50 401.65 226.13Q408.69 218.76 408.69 209.96L408.69 209.96Q408.69 199.40 403.85 192.14Q399.01 184.88 391.20 179.60Q383.39 174.32 374.81 169.48Q366.23 164.64 358.42 159.14Q350.61 153.64 345.77 145.83Q340.93 138.02 340.93 126.80L340.93 126.80Q340.93 116.24 347.42 107.55Q353.91 98.86 365.35 93.69Q376.79 88.52 391.53 88.52L391.53 88.52Q400.55 88.52 406.60 90.17Q412.65 91.82 412.65 91.82L412.65 91.82Q412.43 91.16 412.10 89.18Q411.77 87.20 411.77 86.76L411.77 86.76Q411.55 85.66 412.65 85.11Q413.75 84.56 415.07 84.56L415.07 84.56Q417.71 84.56 418.37 86.32L418.37 86.32Q421.01 95.56 422.55 105.02Q424.09 114.48 424.31 121.30L424.31 121.30Q424.09 121.96 422.66 122.29Q421.23 122.62 419.69 122.62L419.69 122.62Q417.71 122.62 417.05 121.96L417.05 121.96Q415.51 116.46 412.65 110.74Q409.79 105.02 404.07 100.95Q398.35 96.88 388.23 96.88L388.23 96.88Q378.11 96.88 372.61 100.51Q367.11 104.14 365.02 109.53Q362.93 114.92 362.93 120.20L362.93 120.20Q362.93 129 367.88 135.16Q372.83 141.32 380.75 146.16Q388.67 151 397.36 155.84Q406.05 160.68 413.97 166.62Q421.89 172.56 426.84 180.92Q431.79 189.28 431.79 201.38ZM507.47 109.64L507.47 161.56Q517.15 161.34 526.17 160.79Q535.19 160.24 541.35 159.58Q547.51 158.92 548.17 158.48L548.17 158.48L550.37 145.50Q550.59 143.96 553.89 143.96L553.89 143.96Q555.21 143.96 556.31 144.40Q557.41 144.84 557.19 145.94L557.19 145.94Q556.53 151 556.31 155.18Q556.09 159.36 556.09 164.42L556.09 164.42Q556.09 169.26 556.31 174.43Q556.53 179.60 557.19 184.66L557.19 184.66Q557.41 185.54 556.09 185.98Q554.77 186.42 553.23 186.42L553.23 186.42Q550.37 186.42 550.37 185.10L550.37 185.10L547.95 171.90Q547.29 171.46 541.35 170.80Q535.41 170.14 526.39 169.48Q517.37 168.82 507.47 168.60L507.47 168.60L507.47 210.84Q507.47 219.20 508.24 223.38Q509.01 227.56 510.11 228.88Q511.21 230.20 512.09 230.20L512.09 230.20L523.31 230.20Q537.61 229.98 550.70 227.56Q563.79 225.14 569.95 220.96L569.95 220.96L571.49 208.86Q571.71 207.98 572.92 207.54Q574.13 207.10 575.67 207.10L575.67 207.10Q578.97 207.10 578.75 208.86L578.75 208.86Q577.65 217 577.21 226.24Q576.77 235.48 576.77 243.84L576.77 243.84Q576.77 245.38 573.47 245.38L573.47 245.38Q572.15 245.38 571.05 245.05Q569.95 244.72 569.95 243.84L569.95 243.84L569.95 239L515.61 239Q501.53 239 492.84 239.11Q484.15 239.22 479.20 239.22Q474.25 239.22 471.50 239.33Q468.75 239.44 466.33 239.44L466.33 239.44Q465.45 239.44 465.01 238.34Q464.57 237.24 464.57 235.92L464.57 235.92Q464.57 234.38 465.01 233.17Q465.45 231.96 466.33 231.96L466.33 231.96L475.79 231.96Q481.51 231.96 483.16 229.76Q484.81 227.56 484.81 221.84L484.81 221.84L484.81 117.56Q484.81 108.98 484.04 104.91Q483.27 100.84 482.28 99.52Q481.29 98.20 480.19 98.20L480.19 98.20L467.43 98.20Q465.67 98.20 465.67 94.02L465.67 94.02Q465.67 92.92 466.00 91.93Q466.33 90.94 467.43 90.94L467.43 90.94Q473.15 90.94 479.97 91.16Q486.79 91.38 495.15 91.38L495.15 91.38L558.95 91.38L558.95 86.76Q558.95 85.66 560.05 85.22Q561.15 84.78 562.25 84.78L562.25 84.78Q563.35 84.78 564.34 85.22Q565.33 85.66 565.33 86.76L565.33 86.76Q565.33 94.90 565.77 104.03Q566.21 113.16 567.53 120.20L567.53 120.20Q567.97 121.08 566.87 121.52Q565.77 121.96 564.45 121.96L564.45 121.96Q563.13 121.96 561.92 121.52Q560.71 121.08 560.49 120.20L560.49 120.20Q559.39 115.58 557.63 110.74Q555.87 105.90 552.13 104.14L552.13 104.14Q546.41 101.94 537.72 100.84Q529.03 99.74 514.73 99.52L514.73 99.52Q510.33 99.74 508.90 102.05Q507.47 104.36 507.47 109.64L507.47 109.64ZM653.55 166.18L653.55 212.38Q653.55 220.74 654.32 224.92Q655.09 229.10 656.19 230.42Q657.29 231.74 658.17 231.74L658.17 231.74L670.93 231.74Q672.03 231.74 672.58 233.06Q673.13 234.38 673.13 235.92L673.13 235.92Q673.13 239 670.93 239L670.93 239L661.47 239Q659.27 239 656.85 238.89Q654.43 238.78 652.01 238.78L652.01 238.78L643.21 238.78Q633.97 238.78 628.47 238.89Q622.97 239 619.45 239.22Q615.93 239.44 612.41 239.44L612.41 239.44Q611.53 239.44 611.09 238.34Q610.65 237.24 610.65 235.92L610.65 235.92Q610.65 234.38 611.09 233.17Q611.53 231.96 612.41 231.96L612.41 231.96L621.87 231.96Q627.59 231.96 629.24 229.76Q630.89 227.56 630.89 221.84L630.89 221.84L630.89 117.56Q630.89 108.98 630.12 104.91Q629.35 100.84 628.36 99.52Q627.37 98.20 626.27 98.20L626.27 98.20L613.51 98.20Q611.75 98.20 611.75 94.02L611.75 94.02Q611.75 92.92 612.08 91.93Q612.41 90.94 613.51 90.94L613.51 90.94Q622.53 90.94 629.46 91.16Q636.39 91.38 641.23 91.38L641.23 91.38L666.53 91.38Q687.21 91.38 699.97 96.88Q712.73 102.38 718.78 111.29Q724.83 120.20 724.83 130.10L724.83 130.10Q724.83 140.22 719.00 149.68Q713.17 159.14 702.50 165.30Q691.83 171.46 677.09 171.46L677.09 171.46Q671.81 171.46 665.87 170.25Q659.93 169.04 653.55 166.18L653.55 166.18ZM701.07 131.86L701.07 131.86Q701.07 123.94 696.89 116.68Q692.71 109.42 683.91 104.80Q675.11 100.18 661.47 100.18L661.47 100.18Q657.29 100.18 655.42 102.27Q653.55 104.36 653.55 110.30L653.55 110.30L653.55 159.14Q659.49 160.46 665.21 160.46L665.21 160.46Q677.09 160.46 685.01 156.39Q692.93 152.32 697.00 145.83Q701.07 139.34 701.07 131.86ZM933.39 129L933.39 129Q933.39 136.92 929.21 143.63Q925.03 150.34 917.88 155.07Q910.73 159.80 901.71 161.56L901.71 161.56L901.71 162.44Q921.95 165.96 933.17 176.74Q944.39 187.52 944.39 200.50L944.39 200.50Q944.39 210.62 937.02 219.42Q929.65 228.22 915.68 233.61Q901.71 239 881.69 239L881.69 239L860.35 239Q846.27 239 837.25 239.22Q828.23 239.44 822.95 239.44L822.95 239.44Q822.07 239.44 821.63 238.34Q821.19 237.24 821.19 235.92L821.19 235.92Q821.19 234.38 821.63 233.17Q822.07 231.96 822.95 231.96L822.95 231.96L832.41 231.96Q838.13 231.96 839.78 229.76Q841.43 227.56 841.43 221.84L841.43 221.84L841.43 117.78Q841.43 109.20 840.66 105.13Q839.89 101.06 838.90 99.74Q837.91 98.42 836.81 98.42L836.81 98.42L822.95 98.42Q821.19 98.42 821.19 94.24L821.19 94.24Q821.19 93.14 821.52 92.04Q821.85 90.94 822.95 90.94L822.95 90.94Q829.99 90.94 837.58 91.16Q845.17 91.38 851.77 91.38L851.77 91.38L877.07 91.38Q897.31 91.38 909.63 96.77Q921.95 102.16 927.67 110.74Q933.39 119.32 933.39 129ZM864.09 110.30L864.09 157.38Q867.17 157.82 870.03 158.04Q872.89 158.26 875.75 158.26L875.75 158.26Q887.19 158.26 894.67 154.41Q902.15 150.56 905.89 144.18Q909.63 137.80 909.63 130.76L909.63 130.76Q909.63 123.06 905.78 116.13Q901.93 109.20 893.35 104.69Q884.77 100.18 870.47 100.18L870.47 100.18Q867.17 100.18 865.63 102.49Q864.09 104.80 864.09 110.30L864.09 110.30ZM864.09 166.18L864.09 210.84Q864.09 222.94 865.52 226.57Q866.95 230.20 868.93 230.20L868.93 230.20L880.15 230.20Q899.07 230.20 908.42 221.73Q917.77 213.26 917.77 200.50L917.77 200.50Q917.77 193.68 915.57 187.74Q913.37 181.80 907.65 177.18Q901.93 172.56 891.37 169.70Q880.81 166.84 864.09 166.18L864.09 166.18ZM1021.17 109.64L1021.17 161.56Q1030.85 161.34 1039.87 160.79Q1048.89 160.24 1055.05 159.58Q1061.21 158.92 1061.87 158.48L1061.87 158.48L1064.07 145.50Q1064.29 143.96 1067.59 143.96L1067.59 143.96Q1068.91 143.96 1070.01 144.40Q1071.11 144.84 1070.89 145.94L1070.89 145.94Q1070.23 151 1070.01 155.18Q1069.79 159.36 1069.79 164.42L1069.79 164.42Q1069.79 169.26 1070.01 174.43Q1070.23 179.60 1070.89 184.66L1070.89 184.66Q1071.11 185.54 1069.79 185.98Q1068.47 186.42 1066.93 186.42L1066.93 186.42Q1064.07 186.42 1064.07 185.10L1064.07 185.10L1061.65 171.90Q1060.99 171.46 1055.05 170.80Q1049.11 170.14 1040.09 169.48Q1031.07 168.82 1021.17 168.60L1021.17 168.60L1021.17 210.84Q1021.17 219.20 1021.94 223.38Q1022.71 227.56 1023.81 228.88Q1024.91 230.20 1025.79 230.20L1025.79 230.20L1037.01 230.20Q1051.31 229.98 1064.40 227.56Q1077.49 225.14 1083.65 220.96L1083.65 220.96L1085.19 208.86Q1085.41 207.98 1086.62 207.54Q1087.83 207.10 1089.37 207.10L1089.37 207.10Q1092.67 207.10 1092.45 208.86L1092.45 208.86Q1091.35 217 1090.91 226.24Q1090.47 235.48 1090.47 243.84L1090.47 243.84Q1090.47 245.38 1087.17 245.38L1087.17 245.38Q1085.85 245.38 1084.75 245.05Q1083.65 244.72 1083.65 243.84L1083.65 243.84L1083.65 239L1029.31 239Q1015.23 239 1006.54 239.11Q997.85 239.22 992.90 239.22Q987.95 239.22 985.20 239.33Q982.45 239.44 980.03 239.44L980.03 239.44Q979.15 239.44 978.71 238.34Q978.27 237.24 978.27 235.92L978.27 235.92Q978.27 234.38 978.71 233.17Q979.15 231.96 980.03 231.96L980.03 231.96L989.49 231.96Q995.21 231.96 996.86 229.76Q998.51 227.56 998.51 221.84L998.51 221.84L998.51 117.56Q998.51 108.98 997.74 104.91Q996.97 100.84 995.98 99.52Q994.99 98.20 993.89 98.20L993.89 98.20L981.13 98.20Q979.37 98.20 979.37 94.02L979.37 94.02Q979.37 92.92 979.70 91.93Q980.03 90.94 981.13 90.94L981.13 90.94Q986.85 90.94 993.67 91.16Q1000.49 91.38 1008.85 91.38L1008.85 91.38L1072.65 91.38L1072.65 86.76Q1072.65 85.66 1073.75 85.22Q1074.85 84.78 1075.95 84.78L1075.95 84.78Q1077.05 84.78 1078.04 85.22Q1079.03 85.66 1079.03 86.76L1079.03 86.76Q1079.03 94.90 1079.47 104.03Q1079.91 113.16 1081.23 120.20L1081.23 120.20Q1081.67 121.08 1080.57 121.52Q1079.47 121.96 1078.15 121.96L1078.15 121.96Q1076.83 121.96 1075.62 121.52Q1074.41 121.08 1074.19 120.20L1074.19 120.20Q1073.09 115.58 1071.33 110.74Q1069.57 105.90 1065.83 104.14L1065.83 104.14Q1060.11 101.94 1051.42 100.84Q1042.73 99.74 1028.43 99.52L1028.43 99.52Q1024.03 99.74 1022.60 102.05Q1021.17 104.36 1021.17 109.64L1021.17 109.64ZM1200.25 166.62L1200.25 166.62Q1197.17 167.06 1194.75 167.28L1194.75 167.28Q1203.77 170.58 1209.93 177.84Q1216.09 185.10 1220.49 193.79Q1224.89 202.48 1228.85 210.62Q1232.81 218.76 1237.54 224.04Q1242.27 229.32 1249.31 229.32L1249.31 229.32Q1252.83 229.32 1255.14 227.56Q1257.45 225.80 1259.65 223.60L1259.65 223.60Q1260.97 222.50 1262.62 223.93Q1264.27 225.36 1263.39 226.46L1263.39 226.46Q1259.87 231.30 1253.82 236.58Q1247.77 241.86 1239.41 241.86L1239.41 241.86Q1231.05 241.86 1224.78 237.35Q1218.51 232.84 1213.45 225.58Q1208.39 218.32 1204.10 209.74Q1199.81 201.16 1195.52 192.91Q1191.23 184.66 1186.39 178.17Q1181.55 171.68 1175.17 168.60L1175.17 168.60Q1175.17 168.38 1174.95 168.38L1174.95 168.38Q1172.97 168.16 1170.99 167.83Q1169.01 167.50 1167.25 167.28L1167.25 167.28L1167.25 212.38Q1167.25 220.74 1168.02 224.92Q1168.79 229.10 1169.89 230.42Q1170.99 231.74 1171.87 231.74L1171.87 231.74L1184.63 231.74Q1186.39 231.74 1186.39 235.92L1186.39 235.92Q1186.39 236.80 1186.06 237.90Q1185.73 239 1184.63 239L1184.63 239Q1177.81 239 1170.66 238.89Q1163.51 238.78 1156.91 238.78L1156.91 238.78Q1147.67 238.78 1142.17 238.89Q1136.67 239 1133.15 239.22Q1129.63 239.44 1126.11 239.44L1126.11 239.44Q1125.23 239.44 1124.79 238.34Q1124.35 237.24 1124.35 235.92L1124.35 235.92Q1124.35 234.38 1124.79 233.17Q1125.23 231.96 1126.11 231.96L1126.11 231.96L1135.57 231.96Q1141.29 231.96 1142.94 229.76Q1144.59 227.56 1144.59 221.84L1144.59 221.84L1144.59 117.56Q1144.59 108.98 1143.82 104.91Q1143.05 100.84 1142.06 99.52Q1141.07 98.20 1139.97 98.20L1139.97 98.20L1127.21 98.20Q1125.45 98.20 1125.45 94.02L1125.45 94.02Q1125.45 92.92 1125.78 91.93Q1126.11 90.94 1127.21 90.94L1127.21 90.94Q1136.23 90.94 1143.16 91.16Q1150.09 91.38 1154.93 91.38L1154.93 91.38L1180.23 91.38Q1200.91 91.38 1213.67 96.77Q1226.43 102.16 1232.48 110.96Q1238.53 119.76 1238.53 129.66L1238.53 129.66Q1238.53 139.34 1233.36 146.82Q1228.19 154.30 1219.50 159.25Q1210.81 164.20 1200.25 166.62ZM1214.77 131.86L1214.77 131.86Q1214.77 124.16 1210.59 116.90Q1206.41 109.64 1197.83 104.91Q1189.25 100.18 1175.83 100.18L1175.83 100.18Q1170.99 100.18 1169.12 102.49Q1167.25 104.80 1167.25 109.20L1167.25 109.20L1167.25 159.14Q1173.19 160.46 1178.91 160.46L1178.91 160.46Q1190.79 160.46 1198.71 156.39Q1206.63 152.32 1210.70 145.83Q1214.77 139.34 1214.77 131.86ZM1415.63 241.64L1415.63 241.64Q1415.63 241.64 1410.79 235.92Q1405.95 230.20 1397.70 220.30Q1389.45 210.40 1378.89 197.86Q1368.33 185.32 1357 171.68Q1345.67 158.04 1334.67 144.84Q1323.67 131.64 1314.43 120.42L1314.43 120.42L1313.55 120.42Q1313.99 152.10 1314.21 176.08Q1314.43 200.06 1314.87 215.68L1314.87 215.68Q1315.09 221.40 1316.19 226.57Q1317.29 231.74 1319.49 231.74L1319.49 231.74L1331.59 231.74Q1332.69 231.74 1333.13 232.95Q1333.57 234.16 1333.57 235.70L1333.57 235.70Q1333.57 239 1331.59 239L1331.59 239Q1323.45 239 1318.17 238.89Q1312.89 238.78 1308.27 238.78L1308.27 238.78Q1300.79 238.78 1293.75 239.11Q1286.71 239.44 1282.09 239.44L1282.09 239.44Q1281.21 239.44 1280.88 238.23Q1280.55 237.02 1280.55 235.70L1280.55 235.70Q1280.55 234.38 1280.88 233.17Q1281.21 231.96 1282.09 231.96L1282.09 231.96L1289.35 231.96Q1294.19 231.96 1296.50 230.75Q1298.81 229.54 1299.03 226.02L1299.03 226.02Q1300.13 214.80 1300.90 199.84Q1301.67 184.88 1302.22 168.38Q1302.77 151.88 1303.10 136.15Q1303.43 120.42 1303.43 107.66L1303.43 107.66L1301.89 105.90Q1299.25 102.60 1296.94 100.95Q1294.63 99.30 1291.22 98.64Q1287.81 97.98 1281.43 97.98L1281.43 97.98Q1280.77 97.98 1280.44 96.99Q1280.11 96 1280.11 94.90L1280.11 94.90Q1280.11 93.58 1280.44 92.26Q1280.77 90.94 1281.43 90.94L1281.43 90.94Q1284.29 90.94 1289.46 91.05Q1294.63 91.16 1300.68 91.16Q1306.73 91.16 1312.23 91.27Q1317.73 91.38 1321.25 91.38L1321.25 91.38Q1321.25 91.38 1325.54 96.77Q1329.83 102.16 1336.98 111.18Q1344.13 120.20 1353.04 131.31Q1361.95 142.42 1371.19 154.08Q1380.43 165.74 1388.79 176.41Q1397.15 187.08 1403.42 195Q1409.69 202.92 1412.33 206.66L1412.33 206.66L1413.21 206.66Q1412.99 186.20 1412.77 167.50Q1412.55 148.80 1412.11 133.29Q1411.67 117.78 1410.79 107L1410.79 107Q1410.13 98.20 1405.95 98.20L1405.95 98.20L1395.39 98.20Q1394.51 98.20 1393.96 97.21Q1393.41 96.22 1393.41 95.12L1393.41 95.12Q1393.41 93.80 1393.96 92.37Q1394.51 90.94 1395.39 90.94L1395.39 90.94Q1400.23 90.94 1407.05 91.16Q1413.87 91.38 1419.37 91.38L1419.37 91.38Q1425.53 91.38 1432.57 91.05Q1439.61 90.72 1445.33 90.72L1445.33 90.72Q1446.21 90.72 1446.76 92.26Q1447.31 93.80 1447.31 95.12L1447.31 95.12Q1447.31 97.98 1445.33 97.98L1445.33 97.98L1434.99 97.98Q1430.37 97.98 1429.16 100.18Q1427.95 102.38 1427.29 107.88L1427.29 107.88Q1426.63 114.04 1425.97 127.57Q1425.31 141.10 1424.87 159.47Q1424.43 177.84 1424.10 198.96Q1423.77 220.08 1423.77 241.64L1423.77 241.64Q1423.33 243.18 1420.25 243.18L1420.25 243.18Q1417.17 243.18 1415.63 241.64ZM1574.91 225.14L1574.91 225.14Q1570.73 211.72 1566.11 198.30Q1561.49 184.88 1556.87 171.02L1556.87 171.02L1517.05 171.02Q1509.79 194.12 1503.19 217.88L1503.19 217.88Q1502.31 221.40 1501.87 224.04Q1501.43 226.68 1501.43 228.44L1501.43 228.44Q1501.43 231.74 1502.75 231.74L1502.75 231.74L1518.59 231.74Q1519.91 231.74 1520.46 232.95Q1521.01 234.16 1521.01 235.26L1521.01 235.26Q1521.01 236.14 1520.46 237.57Q1519.91 239 1518.15 239L1518.15 239Q1514.63 239 1509.35 238.89Q1504.07 238.78 1498.79 238.78Q1493.51 238.78 1489.77 238.78L1489.77 238.78Q1483.39 238.78 1477.45 239.11Q1471.51 239.44 1465.35 239.44L1465.35 239.44Q1463.37 239.44 1463.37 235.70L1463.37 235.70Q1463.37 231.96 1465.35 231.96L1465.35 231.96L1476.35 231.96Q1481.19 231.96 1483.61 227.12L1483.61 227.12Q1489.99 213.48 1495.05 200.28Q1500.11 187.08 1505.17 172.78Q1510.23 158.48 1516.06 142.42Q1521.89 126.36 1529.59 107.22L1529.59 107.22Q1530.25 105.46 1530.91 103.81Q1531.57 102.16 1531.57 100.84L1531.57 100.84Q1531.57 98.86 1530.69 97.54Q1529.81 96.22 1529.81 95.34L1529.81 95.34Q1529.81 93.58 1532.01 93.58L1532.01 93.58Q1536.63 93.58 1539.05 92.04Q1541.47 90.50 1542.57 88.63Q1543.67 86.76 1544.55 85.22Q1545.43 83.68 1546.97 83.68L1546.97 83.68Q1547.85 83.68 1548.51 85.77Q1549.17 87.86 1550.05 90.28L1550.05 90.28L1594.27 209.74Q1599.11 222.50 1601.75 227.12Q1604.39 231.74 1605.93 231.74L1605.93 231.74L1613.85 231.74Q1616.05 231.74 1616.05 235.04L1616.05 235.04Q1616.05 236.58 1615.72 237.79Q1615.39 239 1614.29 239L1614.29 239Q1605.71 239 1599 238.89Q1592.29 238.78 1586.35 238.78L1586.35 238.78Q1580.63 238.78 1572.82 239.11Q1565.01 239.44 1558.41 239.44L1558.41 239.44Q1556.43 239.44 1556.43 235.48L1556.43 235.48Q1556.43 231.96 1558.41 231.96L1558.41 231.96L1570.95 231.96Q1577.11 231.96 1574.91 225.14ZM1537.95 113.82L1537.07 113.82Q1532.45 125.92 1528.27 137.91Q1524.09 149.90 1519.91 162.22L1519.91 162.22L1553.79 162.22Q1550.05 150.56 1545.98 138.57Q1541.91 126.58 1537.95 113.82L1537.95 113.82ZM1668.63 91.38L1698.55 91.38Q1726.05 91.38 1746.18 100.73Q1766.31 110.08 1777.20 126.69Q1788.09 143.30 1788.09 165.30L1788.09 165.30Q1788.09 182.46 1781.60 196.10Q1775.11 209.74 1763.45 219.31Q1751.79 228.88 1736.28 233.94Q1720.77 239 1702.73 239L1702.73 239L1676.99 239Q1662.91 239 1653.89 239.22Q1644.87 239.44 1639.59 239.44L1639.59 239.44Q1638.71 239.44 1638.27 238.34Q1637.83 237.24 1637.83 235.92L1637.83 235.92Q1637.83 234.38 1638.27 233.17Q1638.71 231.96 1639.59 231.96L1639.59 231.96L1649.05 231.96Q1654.77 231.96 1656.42 229.76Q1658.07 227.56 1658.07 221.84L1658.07 221.84L1658.07 117.12Q1658.07 108.54 1657.30 104.58Q1656.53 100.62 1655.54 99.52Q1654.55 98.42 1653.45 98.42L1653.45 98.42L1639.59 98.42Q1637.61 98.42 1637.61 95.12L1637.61 95.12Q1637.61 93.80 1638.16 92.37Q1638.71 90.94 1639.59 90.94L1639.59 90.94Q1642.23 90.94 1647.29 91.05Q1652.35 91.16 1658.18 91.27Q1664.01 91.38 1668.63 91.38L1668.63 91.38ZM1685.35 230.20L1703.39 229.98Q1721.43 229.76 1734.85 222.50Q1748.27 215.24 1755.64 202.04Q1763.01 188.84 1763.01 170.80L1763.01 170.80Q1763.01 151 1755.53 135.71Q1748.05 120.42 1731.88 111.07Q1715.71 101.72 1689.09 100.18L1689.09 100.18Q1685.13 99.96 1682.93 102.05Q1680.73 104.14 1680.73 109.20L1680.73 109.20L1680.73 210.84Q1680.73 219.20 1681.50 223.38Q1682.27 227.56 1683.37 228.88Q1684.47 230.20 1685.35 230.20L1685.35 230.20Z" fill="#000000" stroke="#000000" stroke-width="9" stroke-linejoin="round"/>
  <path d="M684.35 322.05L684.35 365.89L688.94 365.89Q694.39 365.89 699.21 365.02Q704.03 364.15 706.32 362.57L706.32 362.57L706.87 358.23Q706.95 357.91 707.38 357.75Q707.82 357.60 708.37 357.60L708.37 357.60Q709.56 357.60 709.48 358.23L709.48 358.23Q709.08 361.15 708.92 364.47Q708.77 367.79 708.77 370.79L708.77 370.79Q708.77 371.34 707.58 371.34L707.58 371.34Q707.11 371.34 706.71 371.22Q706.32 371.10 706.32 370.79L706.32 370.79L706.32 369.05L680.64 369.05Q677.32 369.05 675.35 369.09Q673.37 369.13 672.11 369.17Q670.85 369.21 669.58 369.21L669.58 369.21Q669.27 369.21 669.11 368.81Q668.95 368.42 668.95 367.94L668.95 367.94Q668.95 367.39 669.11 366.96Q669.27 366.52 669.58 366.52L669.58 366.52L672.98 366.52Q675.03 366.52 675.63 365.73Q676.22 364.94 676.22 362.89L676.22 362.89L676.22 325.44Q676.22 322.36 675.94 320.90Q675.66 319.44 675.31 318.96Q674.95 318.49 674.56 318.49L674.56 318.49L669.98 318.49Q669.34 318.49 669.34 316.99L669.34 316.99Q669.34 316.59 669.46 316.24Q669.58 315.88 669.98 315.88L669.98 315.88Q672.50 315.88 675.03 315.92Q677.56 315.96 679.93 315.96L679.93 315.96Q683.33 315.96 685.26 315.92Q687.20 315.88 688.46 315.80Q689.73 315.73 690.99 315.73L690.99 315.73Q691.39 315.73 691.50 316.12Q691.62 316.51 691.62 316.99L691.62 316.99Q691.62 317.54 691.46 317.98Q691.31 318.41 690.99 318.41L690.99 318.41L687.59 318.41Q685.62 318.41 684.99 319.20Q684.35 319.99 684.35 322.05L684.35 322.05ZM729.54 345.59L729.54 359.73Q729.54 362.73 729.78 364.23Q730.02 365.73 730.41 366.21Q730.81 366.68 731.20 366.68L731.20 366.68L735.07 366.68Q735.39 366.68 735.55 367.15Q735.70 367.63 735.70 368.02L735.70 368.02Q735.70 368.34 735.59 368.69Q735.47 369.05 735.23 369.05L735.23 369.05Q733.10 369.05 731.79 369.01Q730.49 368.97 729.38 368.97Q728.28 368.97 726.62 368.97L726.62 368.97Q723.22 368.97 721.48 369.09Q719.75 369.21 717.46 369.21L717.46 369.21Q717.22 369.21 717.06 368.77Q716.90 368.34 716.90 368.02L716.90 368.02Q716.90 367.63 717.02 367.23Q717.14 366.84 717.30 366.84L717.30 366.84L721.88 366.84Q722.83 366.84 722.83 365.50L722.83 365.50L722.83 346.93Q722.83 343.53 722.51 341.91Q722.20 340.29 721.68 339.78Q721.17 339.27 720.62 339.27L720.62 339.27L719.04 339.27Q718.80 339.27 718.60 338.83Q718.40 338.40 718.40 338.00L718.40 338.00Q718.40 337.77 718.48 337.33Q718.56 336.90 718.88 336.90L718.88 336.90Q720.77 336.90 722.35 336.07Q723.93 335.24 725.20 334.09Q726.46 332.95 727.33 332.12Q728.20 331.29 728.67 331.29L728.67 331.29Q729.86 331.29 729.86 332.24L729.86 332.24Q729.86 333.34 729.82 334.25Q729.78 335.16 729.70 336.46Q729.62 337.77 729.58 339.90Q729.54 342.03 729.54 345.59L729.54 345.59ZM726.22 325.21L726.22 325.21Q724.49 325.21 723.34 323.98Q722.20 322.76 722.20 321.02L722.20 321.02Q722.20 319.36 723.42 318.25Q724.64 317.15 726.22 317.15L726.22 317.15Q727.80 317.15 729.03 318.29Q730.25 319.44 730.25 321.02L730.25 321.02Q730.25 322.76 729.11 323.98Q727.96 325.21 726.22 325.21ZM778.21 336.50L776.15 336.50Q775.28 336.50 774.89 337.21L774.89 337.21Q773.86 338.87 772.40 342.31Q770.94 345.75 769.28 349.97Q767.62 354.20 766.08 358.35Q764.54 362.49 763.43 365.69Q762.33 368.89 761.93 370.16L761.93 370.16Q761.62 370.87 760.35 370.87L760.35 370.87Q759.17 370.87 758.85 370.08L758.85 370.08Q758.30 367.94 756.84 364.15Q755.38 360.36 753.40 355.86Q751.43 351.35 749.45 347.05Q747.48 342.74 745.97 339.58L745.97 339.58Q745.03 337.61 744.24 337.09Q743.45 336.58 741.79 336.58L741.79 336.58Q741.31 336.58 741.31 335.63L741.31 335.63Q741.31 335.24 741.43 334.84Q741.55 334.45 741.79 334.45L741.79 334.45Q744.00 334.45 745.58 334.53Q747.16 334.61 749.29 334.61L749.29 334.61Q750.79 334.61 752.97 334.53Q755.14 334.45 757.82 334.45L757.82 334.45Q758.14 334.45 758.22 334.76Q758.30 335.08 758.30 335.48L758.30 335.48Q758.30 336.50 757.82 336.50L757.82 336.50L754.03 336.50Q753.16 336.50 753.16 337.21L753.16 337.21Q753.16 337.53 753.80 339.27Q754.43 341.00 755.49 343.69Q756.56 346.38 757.75 349.54Q758.93 352.70 760.12 355.86Q761.30 359.02 762.17 361.62L762.17 361.62Q764.93 352.38 767.23 346.42Q769.52 340.45 769.52 338.16L769.52 338.16Q769.52 337.21 769.24 336.90Q768.96 336.58 768.57 336.58L768.57 336.58L765.33 336.58Q764.70 336.58 764.70 335.63L764.70 335.63Q764.70 335.24 764.82 334.84Q764.93 334.45 765.17 334.45L765.17 334.45Q767.15 334.45 768.29 334.49Q769.44 334.53 770.35 334.57Q771.25 334.61 772.44 334.61L772.44 334.61Q773.86 334.61 775.05 334.53Q776.23 334.45 778.21 334.45L778.21 334.45Q778.52 334.45 778.64 334.76Q778.76 335.08 778.76 335.48L778.76 335.48Q778.76 336.50 778.21 336.50L778.21 336.50ZM812.89 349.30L812.89 349.30Q808.78 349.62 803.01 349.54Q797.25 349.46 789.66 349.93L789.66 349.93Q789.66 353.65 791.00 356.21Q792.35 358.78 794.48 360.36Q796.61 361.94 799.10 362.65Q801.59 363.36 803.88 363.36L803.88 363.36Q807.12 363.36 809.14 362.73Q811.15 362.10 812.30 361.31Q813.44 360.52 814.07 359.89Q814.70 359.25 815.26 359.25L815.26 359.25Q816.13 359.25 816.13 360.20L816.13 360.20Q816.13 360.68 815.38 362.26Q814.63 363.84 813.01 365.65Q811.39 367.47 808.62 368.77Q805.86 370.08 801.83 370.08L801.83 370.08Q797.09 370.08 793.37 367.59Q789.66 365.10 787.53 361.15Q785.40 357.20 785.40 352.86L785.40 352.86Q785.40 348.35 787.02 344.76Q788.63 341.16 791.28 338.67Q793.93 336.19 797.09 334.88Q800.25 333.58 803.41 333.58L803.41 333.58Q806.80 333.58 809.53 335.24Q812.26 336.90 813.91 339.86Q815.57 342.82 815.57 346.93L815.57 346.93Q815.57 348.19 815.02 348.67Q814.47 349.14 812.89 349.30ZM801.27 337.85L801.27 337.85Q798.90 337.85 796.50 338.91Q794.09 339.98 792.31 342.11Q790.53 344.24 789.90 347.48L789.90 347.48Q792.66 347.17 795.82 346.93Q798.98 346.69 801.83 346.46Q804.67 346.22 806.25 345.98L806.25 345.98Q807.67 345.82 808.27 345.51Q808.86 345.19 808.86 344.48L808.86 344.48Q808.86 341.80 806.69 339.82Q804.51 337.85 801.27 337.85ZM907.21 337.29L903.82 337.29Q902.95 337.29 902.43 338.04Q901.92 338.79 901.60 339.43L901.60 339.43Q900.58 341.48 898.64 344.48Q896.71 347.48 894.02 350.84Q891.33 354.20 888.02 357.36L888.02 357.36Q892.28 360.91 896.11 363.05Q899.95 365.18 902.87 365.18L902.87 365.18Q905.00 365.18 906.07 364.39Q907.13 363.60 907.81 362.85Q908.48 362.10 909.19 362.10L909.19 362.10Q910.22 362.10 910.22 363.05L910.22 363.05Q910.22 363.84 908.75 365.53Q907.29 367.23 904.69 368.66Q902.08 370.08 898.76 370.08L898.76 370.08Q895.13 370.08 890.82 367.83Q886.52 365.57 882.17 361.94L882.17 361.94Q877.59 365.42 872.49 367.75Q867.40 370.08 862.26 370.08L862.26 370.08Q859.26 370.08 856.42 368.93Q853.57 367.79 851.80 365.34Q850.02 362.89 850.02 359.02L850.02 359.02Q850.02 354.59 852.07 351.28Q854.13 347.96 857.33 345.23Q860.52 342.51 863.92 340.06L863.92 340.06Q861.87 336.42 860.68 333.14Q859.50 329.87 859.50 327.34L859.50 327.34Q859.50 323.39 861.47 320.86Q863.45 318.33 866.33 317.15Q869.21 315.96 871.90 315.96L871.90 315.96Q876.72 315.96 879.52 318.57Q882.33 321.18 882.33 324.89L882.33 324.89Q882.33 327.73 880.67 330.18Q879.01 332.63 876.48 334.72Q873.95 336.82 871.19 338.79L871.19 338.79Q873.95 343.06 877.75 347.29Q881.54 351.51 885.57 355.23L885.57 355.23Q889.75 351.04 892.05 346.85Q894.34 342.66 894.34 340.22L894.34 340.22Q894.34 339.19 893.94 338.28Q893.55 337.37 892.76 337.37L892.76 337.37L889.52 337.37Q889.20 337.37 889.04 337.02Q888.89 336.66 888.89 336.26L888.89 336.26Q888.89 335.79 889.04 335.40Q889.20 335.00 889.52 335.00L889.52 335.00Q892.05 335.00 893.98 335.08Q895.92 335.16 897.97 335.16L897.97 335.16Q900.42 335.16 902.95 335.04Q905.48 334.92 907.21 334.92L907.21 334.92Q907.61 334.92 907.77 335.36Q907.92 335.79 907.92 336.26L907.92 336.26Q907.92 337.29 907.21 337.29L907.21 337.29ZM865.74 325.28L865.74 325.28Q865.74 327.50 866.81 330.30Q867.87 333.11 869.61 336.11L869.61 336.11Q872.45 333.66 874.27 330.77Q876.09 327.89 876.09 324.34L876.09 324.34Q876.09 321.73 874.94 320.27Q873.80 318.81 871.11 318.81L871.11 318.81Q868.98 318.81 867.36 320.43Q865.74 322.05 865.74 325.28ZM867.16 364.15L867.16 364.15Q870.40 364.15 873.60 362.93Q876.80 361.70 879.72 359.73L879.72 359.73Q875.61 356.01 871.90 351.51Q868.19 347.01 865.42 342.59L865.42 342.59Q862.03 345.19 859.58 348.19Q857.13 351.20 857.13 355.15L857.13 355.15Q857.13 358.31 858.59 360.32Q860.05 362.34 862.34 363.24Q864.63 364.15 867.16 364.15ZM955.96 316.04L966.70 316.04Q976.58 316.04 983.80 319.40Q991.03 322.76 994.94 328.72Q998.85 334.69 998.85 342.59L998.85 342.59Q998.85 348.75 996.52 353.65Q994.19 358.54 990.01 361.98Q985.82 365.42 980.25 367.23Q974.68 369.05 968.20 369.05L968.20 369.05L958.96 369.05Q953.90 369.05 950.66 369.13Q947.42 369.21 945.53 369.21L945.53 369.21Q945.21 369.21 945.05 368.81Q944.90 368.42 944.90 367.94L944.90 367.94Q944.90 367.39 945.05 366.96Q945.21 366.52 945.53 366.52L945.53 366.52L948.93 366.52Q950.98 366.52 951.57 365.73Q952.16 364.94 952.16 362.89L952.16 362.89L952.16 325.28Q952.16 322.20 951.89 320.78Q951.61 319.36 951.26 318.96Q950.90 318.57 950.51 318.57L950.51 318.57L945.53 318.57Q944.82 318.57 944.82 317.38L944.82 317.38Q944.82 316.91 945.02 316.40Q945.21 315.88 945.53 315.88L945.53 315.88Q946.48 315.88 948.29 315.92Q950.11 315.96 952.20 316.00Q954.30 316.04 955.96 316.04L955.96 316.04ZM961.96 365.89L968.44 365.81Q974.92 365.73 979.74 363.13Q984.55 360.52 987.20 355.78Q989.85 351.04 989.85 344.56L989.85 344.56Q989.85 337.45 987.16 331.96Q984.48 326.47 978.67 323.11Q972.86 319.75 963.30 319.20L963.30 319.20Q961.88 319.12 961.09 319.87Q960.30 320.62 960.30 322.44L960.30 322.44L960.30 358.94Q960.30 361.94 960.58 363.44Q960.85 364.94 961.25 365.42Q961.64 365.89 961.96 365.89L961.96 365.89ZM1016.87 359.33L1016.87 325.44Q1016.87 322.36 1016.59 320.90Q1016.31 319.44 1015.96 318.96Q1015.60 318.49 1015.21 318.49L1015.21 318.49L1010.62 318.49Q1009.99 318.49 1009.99 316.99L1009.99 316.99Q1009.99 316.59 1010.11 316.24Q1010.23 315.88 1010.62 315.88L1010.62 315.88Q1013.15 315.88 1015.68 315.92Q1018.21 315.96 1020.58 315.96L1020.58 315.96Q1023.98 315.96 1025.91 315.92Q1027.85 315.88 1029.11 315.80Q1030.37 315.73 1031.64 315.73L1031.64 315.73Q1032.03 315.73 1032.15 316.12Q1032.27 316.51 1032.27 316.99L1032.27 316.99Q1032.27 317.54 1032.11 317.98Q1031.95 318.41 1031.64 318.41L1031.64 318.41L1028.24 318.41Q1026.27 318.41 1025.63 319.20Q1025.00 319.99 1025.00 322.05L1025.00 322.05L1025.00 358.62Q1025.00 364.23 1024.61 368.97Q1024.21 373.71 1022.87 377.03L1022.87 377.03Q1021.29 380.82 1018.49 383.90Q1015.68 386.98 1011.97 388.80Q1008.25 390.62 1003.83 390.62L1003.83 390.62Q1003.28 390.62 1002.29 390.42Q1001.30 390.22 1000.47 389.59Q999.64 388.96 999.64 387.77L999.64 387.77Q999.64 384.77 1003.12 383.43L1003.12 383.43Q1004.86 384.45 1007.07 384.97Q1009.28 385.48 1010.70 385.48L1010.70 385.48Q1012.20 385.48 1013.07 384.77Q1013.94 384.06 1014.50 383.03L1014.50 383.03Q1015.29 381.37 1015.76 378.21Q1016.23 375.05 1016.47 371.42Q1016.71 367.79 1016.79 364.51Q1016.87 361.23 1016.87 359.33L1016.87 359.33ZM1100.92 355.54L1100.92 355.54Q1100.92 359.89 1098.28 363.16Q1095.63 366.44 1091.32 368.26Q1087.02 370.08 1082.04 370.08L1082.04 370.08Q1078.64 370.08 1075.68 369.29Q1072.72 368.50 1070.90 367.71L1070.90 367.71L1071.53 369.29Q1071.77 369.84 1071.14 370.24Q1070.51 370.63 1069.80 370.63L1069.80 370.63Q1069.16 370.63 1068.93 370.24L1068.93 370.24Q1068.29 368.50 1067.62 365.93Q1066.95 363.36 1066.48 360.56Q1066.00 357.75 1065.85 355.38L1065.85 355.38Q1065.85 354.99 1066.24 354.79Q1066.64 354.59 1067.19 354.59L1067.19 354.59Q1067.58 354.59 1067.98 354.71Q1068.37 354.83 1068.45 355.15L1068.45 355.15Q1068.93 356.65 1069.99 358.66Q1071.06 360.68 1072.80 362.61Q1074.54 364.55 1077.02 365.81Q1079.51 367.07 1082.67 367.07L1082.67 367.07Q1087.57 367.07 1090.10 364.43Q1092.63 361.78 1092.63 358.62L1092.63 358.62Q1092.63 354.83 1090.89 352.22Q1089.15 349.62 1086.35 347.72Q1083.54 345.82 1080.46 344.09Q1077.38 342.35 1074.58 340.37Q1071.77 338.40 1070.03 335.59Q1068.29 332.79 1068.29 328.76L1068.29 328.76Q1068.29 324.97 1070.63 321.85Q1072.96 318.73 1077.06 316.87Q1081.17 315.01 1086.46 315.01L1086.46 315.01Q1089.70 315.01 1091.88 315.61Q1094.05 316.20 1094.05 316.20L1094.05 316.20Q1093.97 315.96 1093.85 315.25Q1093.73 314.54 1093.73 314.38L1093.73 314.38Q1093.65 313.99 1094.05 313.79Q1094.44 313.59 1094.92 313.59L1094.92 313.59Q1095.87 313.59 1096.10 314.22L1096.10 314.22Q1097.05 317.54 1097.60 320.94Q1098.16 324.34 1098.24 326.79L1098.24 326.79Q1098.16 327.02 1097.64 327.14Q1097.13 327.26 1096.58 327.26L1096.58 327.26Q1095.87 327.26 1095.63 327.02L1095.63 327.02Q1095.08 325.05 1094.05 322.99Q1093.02 320.94 1090.97 319.48Q1088.91 318.02 1085.28 318.02L1085.28 318.02Q1081.65 318.02 1079.67 319.32Q1077.70 320.62 1076.95 322.56Q1076.19 324.49 1076.19 326.39L1076.19 326.39Q1076.19 329.55 1077.97 331.76Q1079.75 333.97 1082.59 335.71Q1085.44 337.45 1088.56 339.19Q1091.68 340.93 1094.52 343.06Q1097.37 345.19 1099.14 348.19Q1100.92 351.20 1100.92 355.54ZM1139.24 349.30L1139.24 349.30Q1135.13 349.62 1129.36 349.54Q1123.59 349.46 1116.01 349.93L1116.01 349.93Q1116.01 353.65 1117.35 356.21Q1118.70 358.78 1120.83 360.36Q1122.96 361.94 1125.45 362.65Q1127.94 363.36 1130.23 363.36L1130.23 363.36Q1133.47 363.36 1135.48 362.73Q1137.50 362.10 1138.64 361.31Q1139.79 360.52 1140.42 359.89Q1141.05 359.25 1141.61 359.25L1141.61 359.25Q1142.48 359.25 1142.48 360.20L1142.48 360.20Q1142.48 360.68 1141.73 362.26Q1140.97 363.84 1139.36 365.65Q1137.74 367.47 1134.97 368.77Q1132.21 370.08 1128.18 370.08L1128.18 370.08Q1123.44 370.08 1119.72 367.59Q1116.01 365.10 1113.88 361.15Q1111.74 357.20 1111.74 352.86L1111.74 352.86Q1111.74 348.35 1113.36 344.76Q1114.98 341.16 1117.63 338.67Q1120.28 336.19 1123.44 334.88Q1126.60 333.58 1129.76 333.58L1129.76 333.58Q1133.15 333.58 1135.88 335.24Q1138.60 336.90 1140.26 339.86Q1141.92 342.82 1141.92 346.93L1141.92 346.93Q1141.92 348.19 1141.37 348.67Q1140.82 349.14 1139.24 349.30ZM1127.62 337.85L1127.62 337.85Q1125.25 337.85 1122.84 338.91Q1120.43 339.98 1118.66 342.11Q1116.88 344.24 1116.25 347.48L1116.25 347.48Q1119.01 347.17 1122.17 346.93Q1125.33 346.69 1128.18 346.46Q1131.02 346.22 1132.60 345.98L1132.60 345.98Q1134.02 345.82 1134.62 345.51Q1135.21 345.19 1135.21 344.48L1135.21 344.48Q1135.21 341.80 1133.04 339.82Q1130.86 337.85 1127.62 337.85ZM1156.54 359.57L1156.54 337.53L1152.51 337.53Q1152.19 337.53 1151.96 337.09Q1151.72 336.66 1151.72 336.34L1151.72 336.34Q1151.72 336.03 1151.88 335.63Q1152.03 335.24 1152.35 335.16L1152.35 335.16Q1156.30 334.37 1158.43 331.33Q1160.57 328.29 1161.91 324.42L1161.91 324.42Q1162.07 324.02 1162.38 323.94Q1162.70 323.86 1162.94 323.86L1162.94 323.86Q1163.73 323.86 1163.73 324.89L1163.73 324.89Q1163.73 326.63 1163.49 328.72Q1163.25 330.81 1163.25 334.53L1163.25 334.53L1173.05 334.53Q1173.44 334.53 1173.64 335.08Q1173.84 335.63 1173.84 336.19L1173.84 336.19Q1173.84 336.58 1173.72 337.06Q1173.60 337.53 1173.21 337.53L1173.21 337.53L1163.25 337.53L1163.25 357.83Q1163.25 361.62 1164.56 363.48Q1165.86 365.34 1169.10 365.34L1169.10 365.34Q1170.84 365.34 1171.82 364.55Q1172.81 363.76 1173.40 363.01Q1174.00 362.26 1174.39 362.26L1174.39 362.26Q1175.18 362.26 1175.18 362.97L1175.18 362.97Q1175.18 364.15 1174.04 365.89Q1172.89 367.63 1170.76 368.97Q1168.62 370.31 1165.62 370.31L1165.62 370.31Q1161.44 370.31 1158.99 367.59Q1156.54 364.86 1156.54 359.57L1156.54 359.57Z" fill="#000000" stroke="#000000" stroke-width="1" stroke-linejoin="round"/>
</svg>
